<svg width="307" height="110" viewBox="0 0 307 110" fill="none" xmlns="http://www.w3.org/2000/svg">
<path d="M68.397 81.295C68.2845 81.4074 68.2845 81.4074 68.397 81.295C61.1973 85.6775 53.0976 88.5991 44.6604 88.8238C44.2105 89.161 43.3105 89.8352 43.3105 89.8352C43.3105 89.8352 42.298 89.0486 41.9605 88.8238C33.5234 88.5991 25.4237 85.5651 18.3365 81.295C18.3365 81.295 18.224 81.295 18.224 81.1826C18.1115 81.1826 10.7993 85.7898 10.7993 85.7898V95.6785C20.2489 101.297 30.711 104.668 41.9605 104.893C42.298 105.23 43.3105 106.017 43.3105 106.017C43.3105 106.017 44.323 105.23 44.6604 104.893C55.91 104.668 66.3721 101.297 75.8217 95.6785V85.7898C75.8217 86.0146 68.397 81.4074 68.397 81.295Z" fill="#191817"/>
<path d="M68.6221 82.9805C61.5349 87.0258 53.0978 90.1722 44.8856 90.397C44.6606 90.5093 43.3106 91.633 43.3106 91.633C43.3106 91.633 41.9607 90.6217 41.7357 90.397C33.5235 90.1722 24.9739 87.0258 17.8867 82.9805L12.1494 86.9135V95.1165C21.2615 100.286 31.3861 103.207 41.8482 103.432H42.0732C42.0732 103.432 42.8607 104.106 43.1982 104.443C43.5356 104.106 44.3231 103.432 44.3231 103.432H44.5481C55.0102 103.207 65.2473 100.173 74.2469 95.1165V86.9135L68.6221 82.9805Z" fill="url(#paint0_linear_369_5287)"/>
<path d="M32.736 8.70334C30.8236 9.71468 30.7111 10.9508 31.1611 11.8497C31.2736 11.7374 32.1736 11.7374 33.0735 11.2879C33.5235 11.1755 35.5484 11.625 36.8984 12.7487C37.0109 12.1868 37.1234 11.625 37.1234 11.0631C37.1234 9.2652 36.3359 7.57963 35.0985 6.68066C34.986 6.79304 34.761 6.79303 34.6485 6.90541C33.0735 7.80438 33.2985 8.4786 32.736 8.70334Z" fill="white"/>
<path d="M81.2215 48.595C81.2215 48.1455 81.109 47.696 81.109 47.2465C80.659 43.4259 80.7715 39.7177 80.884 35.897C80.9965 32.4135 80.4341 29.0424 78.6341 26.0084C77.0592 23.3115 74.2468 19.7156 70.8719 19.2661C67.7221 18.8166 65.6972 21.6259 62.8848 22.3001C59.7349 23.0867 57.935 23.0867 54.8976 20.8393C53.6601 19.7156 49.3853 10.7259 48.2604 8.92798C46.9104 6.9053 45.1105 5.66922 42.7481 4.99499C40.0482 4.32076 35.2109 5.44447 34.1984 6.79293C33.5235 7.6919 33.0735 7.57953 33.0735 8.14138C33.0735 9.26509 35.2109 11.5125 37.0108 12.6362C35.6609 12.7486 37.6858 15.895 37.4608 16.6816C37.1233 17.4682 37.2358 21.5135 32.6235 22.3001C29.0236 23.1991 24.6363 22.4125 23.6239 22.0754C20.699 21.2888 18.4491 18.7043 15.4117 19.1538C12.0368 19.6032 9.44944 23.0867 7.8745 25.7836C6.07458 28.93 5.6246 32.1888 5.6246 35.6723C5.73709 39.4929 5.84959 43.2012 5.39961 47.0218C5.39961 47.4713 5.28711 47.9208 5.28711 48.3702C5.28711 48.2579 21.149 39.9424 21.5989 39.4929C22.2739 38.8187 22.6114 38.3692 23.5114 37.4702L23.6239 58.8208C23.6239 58.8208 26.0988 55.562 26.7737 56.2362C27.2237 56.6857 25.5363 67.8104 24.0738 72.9795C24.4113 72.9795 26.3238 71.8558 26.5487 71.9682C26.8862 72.0805 26.7737 74.7775 26.8862 75.0022C27.1112 74.6651 27.7862 73.429 28.2362 73.6537C28.7987 73.7661 28.7987 75.2269 28.7987 75.6764C29.2486 74.6651 29.5861 73.3166 30.1486 72.3053C30.5986 71.4063 31.611 69.6084 32.286 68.4847C32.8485 67.6981 35.0984 65.3383 36.3358 64.8888C38.0233 64.3269 42.4106 64.7764 43.1981 67.0238H43.5356C44.773 63.9898 49.0478 63.7651 51.1852 65.563C52.3102 66.3496 55.1226 70.1702 55.5726 71.0692C56.0225 71.9682 57.3725 74.5527 57.935 75.6764C57.935 75.2269 57.935 73.7661 58.3849 73.6537C58.9474 73.5414 59.6224 74.7775 59.7349 75.0022C59.8474 74.7775 59.7349 72.0805 60.0724 71.9682C60.2974 71.8558 62.2098 72.9795 62.5473 72.9795C61.0848 68.3723 60.0724 59.1579 59.9599 58.596C59.9599 58.1465 59.7349 54.2135 59.9599 52.6403C60.0724 55.3373 60.4099 56.0115 62.9973 58.8208C62.9973 58.1465 63.2222 39.4929 63.1098 37.4702C63.8972 38.2568 64.1222 38.9311 64.9097 39.4929C67.4971 41.5156 81.2215 48.3702 81.2215 48.595Z" fill="#B68A35"/>
<path d="M63.11 54.7752C63.11 54.6628 63.2225 54.6628 63.2225 54.5505C63.56 54.8876 63.7849 55.1123 64.1224 55.4494C65.3599 56.7979 66.2598 58.3711 67.2723 59.8319C68.3973 61.4051 69.8597 62.6412 71.3221 63.9896C72.5596 65.1133 78.1844 69.2711 80.8843 70.9566C81.3342 68.7092 80.7718 64.3267 80.7718 62.0793C80.7718 60.0566 80.7717 58.7082 78.9718 57.4721C76.7219 55.8989 74.022 54.7752 71.6596 53.4267C69.5222 52.1907 67.6098 50.6175 65.4724 49.269C63.8974 48.37 63.335 47.2463 63.11 46.0103C62.7725 49.0443 62.885 51.9659 63.11 54.7752Z" fill="url(#paint1_linear_369_5287)"/>
<path d="M23.2867 54.7752C23.2867 54.6628 23.1742 54.6628 23.1742 54.5505C22.8367 54.8876 22.6117 55.1123 22.2742 55.4494C21.0367 56.7979 20.1368 58.3711 19.1243 59.8319C17.9994 61.4051 16.5369 62.6412 15.0745 63.9896C13.837 65.1133 8.21226 69.2711 5.51237 70.9566C5.06239 68.7092 5.62487 64.3267 5.62487 62.0793C5.62487 60.0566 5.62487 58.7082 7.4248 57.4721C9.6747 55.8989 12.3746 54.7752 14.737 53.4267C16.8744 52.1907 18.7868 50.6175 20.9242 49.269C22.4992 48.37 23.0617 47.2463 23.2867 46.0103C23.6241 49.0443 23.5116 51.9659 23.2867 54.7752Z" fill="url(#paint2_linear_369_5287)"/>
<path d="M51.4102 65.6754C49.8352 64.1022 45.8979 63.6527 43.198 66.9114C40.6106 63.6527 36.5608 64.1022 34.9858 65.6754C34.6483 67.2486 30.3735 81.4073 29.811 82.8682C31.9484 83.5424 31.9484 83.2053 33.2984 82.7558C33.6359 86.8011 35.9983 84.329 36.5608 83.8795C38.4732 87.2506 40.2731 85.2279 41.1731 83.6547C41.1731 84.8908 41.7355 85.5651 43.0855 86.464C44.4354 85.4527 44.9979 84.8908 44.9979 83.6547C46.0104 85.2279 47.6978 87.2506 49.6102 83.8795C50.1727 84.4413 52.5351 86.8011 52.8726 82.7558C54.335 83.2053 54.2225 83.5424 56.36 82.8682C56.0225 81.4073 51.7476 67.2486 51.4102 65.6754Z" fill="white"/>
<path d="M63.1098 47.2467C64.5722 51.6292 78.2967 57.5848 81.109 59.2704C81.109 56.4611 80.8841 54.6632 80.8841 52.4158C80.8841 50.3931 80.8841 49.0446 79.0841 47.8085C76.8342 46.2353 74.1343 45.1116 71.7719 43.7632C69.6345 42.5271 67.7221 40.9539 65.5847 39.6054C64.0097 38.7065 63.4473 37.5828 63.2223 36.3467C62.7723 39.2683 63.1098 47.359 63.1098 47.2467Z" fill="white"/>
<path d="M63.1098 62.4165C63.1098 64.4392 64.5722 66.0124 66.0346 67.2485C66.0346 68.3722 66.7096 71.4062 69.1845 72.3052C69.1845 73.9908 70.5345 76.2382 73.0094 77.4743C73.0094 79.6093 75.5968 81.4073 76.9467 81.7444C75.9342 88.4866 79.9841 90.5093 80.9965 91.0712C80.9965 88.2619 80.7715 76.6877 80.7715 74.4403C80.7715 72.4176 80.7715 71.0691 78.9716 69.833C71.8844 64.664 65.5847 57.2475 62.8848 54.1011C62.6598 57.0227 63.1098 62.5289 63.1098 62.4165Z" fill="white"/>
<path d="M23.2864 47.2467C21.8239 51.6292 8.09949 57.5848 5.28711 59.2704C5.28711 56.4611 5.5121 54.6632 5.5121 52.4158C5.5121 50.3931 5.5121 49.0446 7.31203 47.8085C9.56194 46.2353 12.2618 45.1116 14.6242 43.7632C16.7616 42.5271 18.6741 40.9539 20.8115 39.6054C22.3864 38.7065 22.9489 37.5828 23.1739 36.3467C23.6239 39.2683 23.3989 47.359 23.2864 47.2467Z" fill="white"/>
<path d="M23.2867 62.4165C23.2867 64.4392 21.8242 66.0124 20.3618 67.2485C20.3618 68.3722 19.6868 71.4062 17.2119 72.3052C17.2119 73.9908 15.862 76.2382 13.3871 77.4743C13.3871 79.6093 10.7997 81.4073 9.44975 81.7444C10.4622 88.4866 6.41237 90.5093 5.39991 91.0712C5.28742 88.2619 5.6249 76.6877 5.6249 74.4403C5.6249 72.4176 5.6249 71.0691 7.42483 69.833C14.3995 64.664 20.8118 57.2475 23.5117 54.1011C23.7367 57.0227 23.3992 62.5289 23.2867 62.4165Z" fill="white"/>
<path d="M51.4102 65.6754C49.8352 64.1022 45.8979 63.6527 43.198 66.9114C40.6106 63.6527 36.5608 64.1022 34.9858 65.6754C34.6483 67.2486 30.3735 81.4073 29.811 82.8682C31.9484 83.5424 31.9484 83.2053 33.2984 82.7558C33.6359 86.8011 35.9983 84.329 36.5608 83.8795C38.4732 87.2506 40.2731 85.2279 41.1731 83.6547C41.1731 84.8908 41.7355 85.5651 43.0855 86.464C44.4354 85.4527 44.9979 84.8908 44.9979 83.6547C46.0104 85.2279 47.6978 87.2506 49.6102 83.8795C50.1727 84.4413 52.5351 86.8011 52.8726 82.7558C54.335 83.2053 54.2225 83.5424 56.36 82.8682C56.0225 81.4073 51.7476 67.2486 51.4102 65.6754Z" fill="url(#paint3_linear_369_5287)"/>
<path d="M63.1098 47.2467C64.5722 51.6292 78.2967 57.5848 81.109 59.2704C81.109 56.4611 80.8841 54.6632 80.8841 52.4158C80.8841 50.3931 80.8841 49.0446 79.0841 47.8085C76.8342 46.2353 74.1343 45.1116 71.7719 43.7632C69.6345 42.5271 67.7221 40.9539 65.5847 39.6054C64.0097 38.7065 63.4473 37.5828 63.2223 36.3467C62.7723 39.2683 63.1098 47.359 63.1098 47.2467Z" fill="url(#paint4_linear_369_5287)"/>
<path d="M63.1098 62.4165C63.1098 64.4392 64.5722 66.0124 66.0346 67.2485C66.0346 68.3722 66.7096 71.4062 69.1845 72.3052C69.1845 73.9908 70.5345 76.2382 73.0094 77.4743C73.0094 79.6093 75.5968 81.4073 76.9467 81.7444C75.9342 88.4866 79.9841 90.5093 80.9965 91.0712C80.9965 88.2619 80.7715 76.6877 80.7715 74.4403C80.7715 72.4176 80.7715 71.0691 78.9716 69.833C71.8844 64.664 65.5847 57.2475 62.8848 54.1011C62.6598 57.0227 63.1098 62.5289 63.1098 62.4165Z" fill="url(#paint5_linear_369_5287)"/>
<path d="M23.2864 47.2467C21.8239 51.6292 8.09949 57.5848 5.28711 59.2704C5.28711 56.4611 5.5121 54.6632 5.5121 52.4158C5.5121 50.3931 5.5121 49.0446 7.31203 47.8085C9.56194 46.2353 12.2618 45.1116 14.6242 43.7632C16.7616 42.5271 18.6741 40.9539 20.8115 39.6054C22.3864 38.7065 22.9489 37.5828 23.1739 36.3467C23.6239 39.2683 23.3989 47.359 23.2864 47.2467Z" fill="url(#paint6_linear_369_5287)"/>
<path d="M23.2867 62.4165C23.2867 64.4392 21.8242 66.0124 20.3618 67.2485C20.3618 68.3722 19.6868 71.4062 17.2119 72.3052C17.2119 73.9908 15.862 76.2382 13.3871 77.4743C13.3871 79.6093 10.7997 81.4073 9.44975 81.7444C10.4622 88.4866 6.41237 90.5093 5.39991 91.0712C5.28742 88.2619 5.6249 76.6877 5.6249 74.4403C5.6249 72.4176 5.6249 71.0691 7.42483 69.833C17.0994 62.866 20.8118 57.2475 23.5117 54.1011C23.7367 57.0227 23.3992 62.5289 23.2867 62.4165Z" fill="url(#paint7_linear_369_5287)"/>
<path d="M26.8865 75.4516C26.8865 74.7774 27.224 72.9795 26.4365 72.53C25.9865 72.1929 24.8616 73.2042 23.8491 73.7661C25.5366 68.597 29.4739 52.9774 28.7989 48.2578C33.5237 50.73 36.1111 52.4155 39.036 54.4382C41.9609 56.5733 42.2984 62.7537 40.3859 61.9671C36.2236 60.3939 30.7113 65.9001 28.9114 75.1145C28.4614 73.8784 28.1239 72.9795 26.8865 75.4516Z" fill="url(#paint8_linear_369_5287)"/>
<path d="M59.6226 75.4516C59.6226 74.7774 59.2851 72.9795 60.0726 72.53C60.5226 72.1929 61.6475 73.2042 62.66 73.7661C60.9725 68.597 57.0352 52.9774 57.7102 48.2578C52.9854 50.73 50.398 52.4155 47.4731 54.4382C44.5482 56.5733 44.2107 62.7537 46.1231 61.9671C50.2855 60.3939 55.7977 65.9001 57.5977 75.1145C57.9352 73.8784 58.3851 72.9795 59.6226 75.4516Z" fill="url(#paint9_linear_369_5287)"/>
<path d="M35.0987 22.0753C25.7616 28.8176 17.0995 18.8166 14.1746 21.6259C12.3747 23.3114 7.08738 29.1547 7.08738 31.7393C7.08738 34.3238 7.42487 46.3475 6.5249 47.2465C9.1123 47.2465 21.8243 39.2681 22.4993 38.5939C24.9742 36.1217 25.8741 37.3578 29.024 37.3578C30.1489 36.5712 31.4989 36.0094 32.8488 35.2228C37.4611 32.3011 35.2112 26.6826 35.0987 22.0753Z" fill="url(#paint10_linear_369_5287)"/>
<path d="M79.1968 31.29C78.4093 28.8179 72.897 21.4014 70.4221 21.4014C67.4973 21.4014 62.5475 26.2333 56.8102 23.9859C49.948 21.1766 50.8479 10.8385 43.0857 7.24261C45.6731 7.91683 48.148 9.37766 47.3606 8.92817C43.6482 2.18591 34.8736 4.99518 32.9612 7.91683C32.6237 9.04055 34.8736 11.1756 36.6735 12.6364C38.3609 15.221 38.4734 15.4457 37.1235 19.8282C35.7735 24.2106 46.1231 22.8622 49.048 26.3457C52.1979 30.1663 55.6852 33.088 60.5225 34.2117C60.635 34.2117 60.86 34.2117 60.9725 34.324C61.8725 36.9086 69.2972 43.988 79.9842 47.4715C78.5218 45.3364 79.9842 33.6498 79.1968 31.29Z" fill="url(#paint11_linear_369_5287)"/>
<path d="M18.4491 85.7898C18.6741 86.2393 19.1241 86.2393 19.5741 86.2393C19.7991 86.2393 20.024 86.1269 20.1365 86.2393C20.3615 86.2393 20.5865 86.9135 20.8115 87.0259C21.0365 87.0259 21.824 87.0259 22.049 87.0259C22.4989 87.1383 22.9489 87.5877 23.3989 87.5877C23.8489 87.5877 24.0739 87.2506 24.1864 86.9135C24.2989 86.464 24.0739 84.8908 24.5239 84.4414C24.7489 84.5537 25.3113 85.1156 25.6488 85.228C25.8738 85.3403 26.6613 85.5651 26.7738 85.6774C26.8863 85.6774 25.4238 83.3176 25.4238 82.8682C25.1988 81.1826 26.6613 79.0475 27.1113 78.1486C27.3362 77.6991 27.7862 76.1259 28.0112 75.6764C28.2362 75.2269 28.3487 74.1032 27.8987 74.4403C26.3238 75.564 26.6613 72.8671 26.2113 72.9795C24.9738 73.2042 24.6364 75.2269 24.4114 76.2383C24.1864 77.0249 22.3865 81.295 22.049 81.4073C21.7115 81.295 21.149 81.4073 20.8115 82.0816C20.3615 81.5197 19.7991 80.7331 19.0116 80.7331C17.9991 80.8455 18.4491 82.3063 18.5616 82.8682C18.6741 83.3176 18.2241 84.7785 18.2241 85.228C18.2241 85.228 18.3366 85.5651 18.4491 85.7898Z" fill="white"/>
<path d="M68.1724 85.7899C67.9475 86.2394 67.2725 86.4641 66.71 86.4641C66.485 86.4641 66.035 86.6888 65.9225 86.8012C65.6975 87.026 65.4726 86.9136 65.1351 87.026C64.9101 87.026 64.6851 87.1383 64.4601 87.1383C64.0101 87.2507 63.5601 87.5878 63.1101 87.7002C62.6602 87.7002 62.3227 87.3631 62.2102 86.9136C62.0977 86.4641 61.7602 84.7785 61.5352 84.8909C61.3102 85.0033 60.1853 85.4528 59.5103 85.6775C59.3978 85.6775 60.7477 83.2053 60.9727 82.7559C61.1977 82.3064 61.1977 81.9693 60.8602 81.295C60.8602 81.1827 59.8478 79.2723 59.3978 78.261C59.1728 77.8115 58.6103 76.0136 58.3853 75.5641C58.1604 75.1146 58.0479 73.9909 58.4978 74.328C60.1853 75.4517 59.7353 72.7548 60.1853 72.8672C61.4227 73.0919 61.7602 75.1146 61.9852 76.126C62.2102 76.9126 62.6602 77.8115 62.9977 78.4858C63.2226 79.2724 64.0101 80.3961 64.0101 81.6321C64.0101 81.6321 64.2351 81.295 64.4601 81.295C65.0226 81.295 65.3601 81.1827 65.4726 81.9693C65.9225 81.295 66.485 80.6208 67.2725 80.6208C68.2849 80.7332 67.9475 82.194 67.835 82.7559C67.7225 83.2053 67.835 83.4301 67.9475 83.7672C68.6224 85.228 68.1724 85.7899 68.1724 85.7899Z" fill="white"/>
<path d="M39.4858 8.36612C39.4858 9.15272 38.8108 9.71458 37.9109 9.71458C37.0109 9.71458 36.3359 9.04035 36.3359 8.36612C36.3359 7.57952 37.0109 7.01767 37.9109 7.01767C38.6983 6.9053 39.4858 7.57952 39.4858 8.36612Z" fill="url(#paint12_linear_369_5287)"/>
<path d="M33.1863 9.71462H33.2988C33.2988 9.48988 33.0738 9.26514 32.7363 9.26514C32.3988 9.26514 32.1738 9.48988 32.1738 9.71462C32.1738 9.93936 32.3988 10.0517 32.6238 10.1641V10.0517C32.7363 9.82699 32.9613 9.71462 33.1863 9.71462Z" fill="#191817"/>
<path fill-rule="evenodd" clip-rule="evenodd" d="M36.5611 8.59071C37.0111 10.1639 39.3735 9.37731 38.6985 7.57937C39.711 7.24226 40.386 7.24226 41.1734 7.12989C39.1485 6.79277 36.8986 6.56803 35.4362 7.24226C34.7612 7.57937 34.9862 8.02885 34.9862 8.14123C35.0987 7.80411 35.7737 7.69174 36.2236 7.91648C35.8862 10.8381 39.5985 10.501 39.486 8.14123C39.1485 10.0515 36.6736 10.0515 36.5611 8.59071Z" fill="#191817"/>
<path fill-rule="evenodd" clip-rule="evenodd" d="M38.4733 7.91684C38.2483 7.69209 37.5733 7.57972 37.2358 7.91684C37.2358 7.57972 37.4608 7.35498 37.7983 7.35498C38.2483 7.35498 38.4733 7.57972 38.4733 7.91684Z" fill="white"/>
<path d="M81.5592 60.1692C81.8966 60.2816 82.2341 60.3939 82.4591 60.5063C81.4467 58.9331 81.5592 56.4609 81.5592 55.8991V49.9434C81.8966 50.0558 82.2341 50.1682 82.4591 50.2805C81.4467 48.7073 81.5592 46.2352 81.5592 45.6733V31.6269C81.5592 27.8063 75.7094 18.4795 70.6471 18.3671C67.1597 18.2548 62.9974 23.1991 57.8226 21.963C56.2477 21.5135 54.8977 19.8279 53.7728 17.5805C51.8604 13.7599 50.0604 8.59083 45.4481 5.55681C40.4983 2.29805 34.5361 6.0063 33.8611 6.56815C33.2986 7.13001 32.3986 8.70321 31.8362 8.92795C30.2612 9.71455 30.0362 11.1754 30.0362 11.7372C30.0362 12.2991 30.1487 13.5352 31.1612 14.3218C31.0487 13.6475 30.9362 13.3104 31.1612 12.9733C31.8362 13.0857 33.1861 13.3104 34.0861 12.9733C34.5361 13.4228 35.5485 14.2094 35.9985 15.1084C36.6735 16.3444 36.6735 16.4568 36.6735 17.0187C36.6735 18.2548 36.111 20.0527 34.3111 21.1764C32.5111 22.5249 28.1238 23.1991 22.6115 21.4011C19.6867 20.3898 18.4492 18.3671 15.7493 18.3671C10.7995 18.4795 4.94977 27.8063 4.94977 31.6269V45.5609C4.94977 46.1228 5.06226 48.7073 4.0498 50.1682C4.1623 50.1682 4.49979 50.0558 4.94977 49.9434V55.8991C4.94977 56.4609 5.06226 59.0455 4.0498 60.5063C4.2748 60.3939 4.61228 60.2816 4.94977 60.1692V67.8104C4.94977 68.3723 5.06226 70.9568 4.0498 72.4176C4.1623 72.4176 4.49979 72.3053 4.94977 72.0805V87.4754C4.94977 87.9249 4.94977 89.3857 4.61228 90.8465C4.49979 91.296 4.83727 91.8578 5.28725 91.6331C7.19968 90.9589 10.1246 89.3857 10.1246 85.1156V82.6434C11.587 81.9692 13.2744 80.9578 13.8369 78.1486C15.4118 77.362 17.2118 75.9011 17.6618 73.0919C19.3492 72.0805 21.0366 70.395 21.0366 67.2486C22.4991 66.1249 23.399 64.8888 23.5115 63.8774C23.624 63.2032 23.7365 61.63 23.7365 59.7197C24.749 58.9331 25.5364 58.0341 25.9864 57.2475C25.7614 61.2929 24.974 66.6867 23.174 74.1032C23.5115 74.1032 23.9615 73.9908 24.4115 73.8785C24.1865 75.3393 22.8365 78.9352 22.0491 80.6207C21.9366 80.6207 21.8241 80.6207 21.7116 80.6207C21.3741 80.6207 21.2616 80.9578 21.0366 81.295C20.6991 80.7331 20.1366 79.7218 19.0117 80.0589C17.8867 80.396 18.1117 81.8568 18.3367 82.4187C18.6742 83.6548 17.8867 83.9919 17.9992 85.0032C18.1117 85.6774 18.5617 86.2393 19.0117 86.464C19.1242 86.8011 19.3492 87.0259 19.6867 87.1383C20.0242 87.2506 20.0242 87.0259 20.0242 86.5764C20.1366 86.5764 20.1366 86.5764 20.2491 86.464C20.3616 86.8011 20.5866 87.0259 20.8116 87.1383C20.9241 87.363 21.1491 87.5877 21.5991 87.9249C22.0491 88.1496 21.7116 87.7001 21.7116 87.2506C21.8241 87.2506 22.0491 87.1383 22.1616 87.0259C22.1616 87.1383 22.2741 87.2506 22.3866 87.363L22.4991 87.4754C22.6115 87.9249 22.949 88.1496 23.399 88.4867C23.7365 88.5991 23.624 88.262 23.5115 87.9249C23.9615 87.9249 24.4115 87.7001 24.524 86.9135C24.749 85.9022 24.1865 86.0145 24.8615 84.7785C24.974 84.7785 25.8739 85.1156 26.0989 85.228C25.1989 84.8908 24.749 82.7558 24.6365 83.43C23.849 84.7785 24.524 87.2506 23.7365 87.363C21.2616 87.4754 23.0615 84.4414 23.174 83.6548C23.2865 82.6434 23.174 81.295 24.1865 81.5197C25.0864 81.7444 26.0989 84.5537 26.6614 85.3403C26.7739 85.4527 27.8988 86.1269 28.0113 85.9022C26.8864 84.7785 26.2114 82.9805 26.0989 82.4187C25.9864 81.6321 25.9864 81.295 26.2114 80.6207C26.4364 80.0589 27.7863 77.5867 28.3488 76.463C28.4613 76.9125 28.6863 77.362 28.6863 77.6991C28.9113 75.1145 31.7237 70.395 34.1986 67.4733C33.2986 70.395 31.2737 77.362 30.7112 79.2723C30.2612 80.8455 29.1363 82.531 28.9113 82.7558C29.8113 83.0929 31.6112 83.43 32.7361 82.8682C32.5111 83.5424 32.6236 84.1042 33.0736 84.6661C33.7486 85.3403 35.5485 85.7898 36.561 84.2166C37.3484 86.8011 40.0483 86.6888 41.1733 84.8908C41.6233 86.3517 42.6357 86.5764 43.1982 87.1383C43.7607 86.5764 44.7732 86.3517 45.2231 84.8908C46.3481 86.6888 49.1605 86.8011 49.8354 84.2166C50.7354 85.7898 52.6478 85.3403 53.3228 84.6661C53.8853 84.1042 53.8853 83.5424 53.6603 82.8682C54.8977 83.3176 56.5852 83.0929 57.4851 82.7558C57.2601 82.531 56.1352 80.8455 55.6852 79.2723C55.1227 77.362 53.0978 70.2826 52.1978 67.4733C54.6727 70.2826 57.4851 75.1145 57.7101 77.6991C57.8226 77.362 57.9351 76.9125 58.0476 76.463C58.6101 77.6991 59.96 80.0589 60.185 80.6207C60.41 81.1826 60.5225 81.6321 60.2975 82.4187C60.185 82.9805 59.6225 84.7785 58.4976 85.9022C58.6101 86.2393 59.6225 85.6774 59.6225 85.5651C60.185 84.6661 61.31 81.8568 62.0974 81.6321C62.9974 81.295 62.9974 82.7558 63.1099 83.7671C63.2224 84.5537 65.0223 87.5877 62.5474 87.4754C61.6475 87.4754 62.3224 84.8908 61.6475 83.5424C61.535 82.9805 60.9725 85.1156 60.185 85.4527C60.2975 85.4527 61.1975 84.8908 61.31 84.8908C61.8725 86.1269 61.4225 86.0145 61.6475 87.0259C61.8725 87.7001 62.2099 88.0372 62.6599 88.0372C62.6599 88.3743 62.5474 88.7115 62.8849 88.5991C63.3349 88.3743 63.6724 88.0372 63.7849 87.5877C63.7849 87.5877 63.8974 87.5877 63.8974 87.4754C64.0099 87.363 64.1224 87.2506 64.1224 87.1383C64.2349 87.2506 64.4598 87.363 64.5723 87.363C64.4598 87.8125 64.2349 88.262 64.6848 88.0372C65.1348 87.7001 65.3598 87.4754 65.4723 87.2506C65.6973 87.1383 65.9223 86.9135 66.0348 86.5764C66.1473 86.5764 66.1473 86.6888 66.2598 86.6888C66.2598 87.1383 66.2598 87.4754 66.5973 87.2506C66.9347 87.1383 67.1597 86.9135 67.2722 86.5764C67.8347 86.3517 68.1722 85.9022 68.2847 85.1156C68.3972 84.1042 67.6097 83.6548 67.9472 82.531C68.1722 81.8568 68.3972 80.5084 67.2722 80.1713C66.1473 79.8341 65.6973 80.7331 65.2473 81.4073C65.1348 81.0702 64.9098 80.8455 64.5723 80.7331C64.4598 80.7331 64.3474 80.7331 64.2349 80.7331C63.3349 79.1599 62.0974 75.564 61.8725 73.9908C62.3224 74.1032 62.7724 74.2156 63.1099 74.2156C61.1975 66.6867 60.41 61.2929 60.185 57.3599C60.635 58.1465 61.4225 59.0455 62.4349 59.8321C62.4349 61.7424 62.5474 63.3156 62.6599 63.9898C62.8849 65.0011 63.6724 66.2372 65.1348 67.3609C65.1348 70.6197 66.8223 72.3053 68.5097 73.2042C68.9597 76.0135 70.7596 77.4743 72.3345 78.2609C72.897 80.9578 74.5844 82.0816 76.0469 82.7558V85.228C76.0469 89.4981 78.8593 91.0713 80.8842 91.8579C81.4467 92.0826 81.7841 91.6331 81.6716 91.296C81.2217 89.8352 81.2217 88.1496 81.2217 87.7001V72.1929C81.5591 72.3053 81.8966 72.4176 82.1216 72.53C81.1092 70.9568 81.2217 68.4846 81.2217 67.9228V60.1692H81.5592ZM34.4236 12.2991C34.0861 12.4115 32.2862 12.7486 32.0612 12.5238C32.3987 12.2991 32.7361 12.1867 33.5236 11.7372C34.0861 11.7372 34.6486 12.0743 35.436 12.6362C34.8735 12.2991 34.8736 12.1867 34.4236 12.2991ZM8.77461 74.4403V78.8228C8.77461 79.3846 8.77461 80.9578 8.66212 82.7558V85.6774C8.66212 87.4754 6.86219 89.1609 5.62474 89.7228C5.84973 89.3857 6.18722 88.4867 6.18722 87.1383V71.5187C6.97469 71.0692 7.87465 70.6197 8.54962 69.7207C8.66212 69.7207 8.66212 69.6084 8.77461 69.6084C8.77461 72.1929 8.77461 73.9908 8.77461 74.4403ZM8.77461 61.0682C8.77461 61.7424 8.66212 65.4506 8.66212 65.9001C8.66212 67.8104 6.86219 69.3836 5.62474 69.9455C5.84973 69.6084 6.18722 68.7094 6.18722 67.3609V59.6073C6.86219 59.2702 7.64966 58.8207 8.21214 58.1465C8.43713 58.0341 8.66212 58.0341 8.88711 57.9218C8.88711 58.9331 8.77461 60.2816 8.77461 61.0682ZM5.73724 57.9218C5.96223 57.5846 6.29971 56.6857 6.29971 55.3372V49.2692C6.97469 48.9321 7.76215 48.4826 8.32463 47.8084C8.54962 47.696 8.66212 47.696 8.88711 47.5836C8.88711 48.0331 8.77461 48.595 8.77461 49.2692V52.9774C8.77461 55.7867 7.19968 57.3599 5.73724 57.9218ZM10.1246 47.1341C10.912 46.797 11.6995 46.2352 12.3745 45.5609C12.487 45.5609 12.712 45.4486 12.8244 45.4486C12.8244 45.898 12.712 46.4599 12.712 47.1341V50.9548C12.712 53.5393 11.2495 55.1125 9.78707 55.7867C10.0121 55.0001 10.1246 54.2135 10.1246 53.3145V49.6063C10.1246 48.8197 10.0121 47.9207 10.1246 47.1341ZM12.712 72.1929V76.0135C12.712 78.7104 10.912 80.2836 9.89957 80.7331C10.1246 80.396 10.1246 79.6094 10.1246 78.2609V76.9125V74.6651C10.1246 74.2156 10.1246 71.9682 10.1246 69.1589C11.0245 68.7094 12.037 68.1475 12.8244 67.1362C12.712 69.0465 12.712 71.5187 12.712 72.1929ZM12.712 58.8207V62.6413C12.712 65.2259 11.137 66.9114 9.89957 67.4733C10.0121 66.7991 10.1246 66.1249 10.1246 65.3383V65.2259C10.1246 65.1135 10.1246 65.1135 10.1246 65.0011V63.6527V61.4053C10.1246 60.5063 10.1246 58.7084 10.1246 57.4723C10.912 57.1352 11.6995 56.5733 12.3745 55.8991C12.487 55.8991 12.712 55.7867 12.8244 55.7867C12.712 56.6857 12.712 58.1465 12.712 58.8207ZM13.7244 53.3145C13.9494 52.6403 14.0619 51.9661 14.0619 51.1795V45.2238C14.0619 45.1115 14.0619 44.9991 14.0619 44.8867C14.5119 44.662 14.9619 44.4372 15.4118 44.1001C15.8618 43.9877 16.1993 43.8754 16.5368 43.763C16.5368 44.2125 16.5368 44.662 16.5368 45.3362V48.8197C16.4243 51.1795 15.0744 52.6403 13.7244 53.3145ZM16.4243 68.2599V71.7434C16.4243 74.1032 15.2993 75.4517 13.9494 76.2383V70.2826C13.9494 70.0578 13.9494 67.2486 13.9494 65.563C14.8494 65.1135 15.7493 64.4393 16.4243 63.5403C16.4243 65.0011 16.4243 67.2486 16.4243 68.2599ZM16.4243 55.6743V59.1578C16.4243 61.5176 15.1869 62.9785 13.9494 63.6527C13.9494 63.4279 13.9494 63.2032 13.9494 62.8661V56.9104C13.9494 56.6857 13.9494 55.8991 13.9494 55.1125C14.3994 54.8877 14.9619 54.5506 15.4118 54.2135C15.7493 54.1011 16.0868 53.9888 16.4243 53.764C16.4243 54.4383 16.4243 54.4383 16.4243 55.6743ZM17.7742 53.0898C18.2242 52.7527 18.7867 52.4156 19.2367 51.9661C19.4617 51.8537 19.5742 51.7413 19.6867 51.7413C19.6867 52.0785 19.6867 52.4156 19.6867 52.7527V56.2362C19.6867 58.2589 18.7867 59.6073 17.6618 60.5063C17.6618 60.1692 17.7742 59.8321 17.7742 59.495V54.4383C17.6618 53.9888 17.6618 53.5393 17.7742 53.0898ZM19.6867 63.4279V66.9114C19.6867 68.9341 18.7867 70.2826 17.7742 71.0692V66.7991C17.7742 66.3496 17.7742 63.7651 17.7742 62.3042C18.4492 61.8548 19.1242 61.2929 19.6867 60.6187C19.6867 61.63 19.6867 62.8661 19.6867 63.4279ZM19.6867 43.5383V47.0218C19.6867 49.2692 18.5617 50.73 17.3243 51.5166C17.5493 50.8424 17.6618 50.0558 17.6618 49.0444V43.9877C17.6618 43.763 17.6618 43.4259 17.6618 43.2011C18.3367 42.864 18.7867 42.3022 19.2367 41.8527C19.3492 41.7403 19.4617 41.7403 19.5742 41.6279C19.6867 41.9651 19.6867 42.6393 19.6867 43.5383ZM22.949 62.4166C22.949 63.4279 22.0491 64.5517 20.9241 65.4506V62.9785C20.9241 62.4166 20.9241 59.0455 20.9241 57.4723C21.9366 56.798 22.6115 55.8991 22.949 55.2249C23.0615 57.9218 22.949 61.7424 22.949 62.4166ZM20.9241 50.9548C21.8241 50.2805 22.6115 49.3816 22.949 48.7073C22.949 50.6176 22.949 52.3032 22.949 52.7527C22.949 53.8764 22.0491 54.8877 20.9241 55.7867V52.3032C20.9241 51.9661 20.9241 51.4042 20.9241 50.9548ZM22.949 46.1228C22.949 47.2465 21.9366 48.4826 20.6991 49.3816C20.8116 48.8197 20.9241 48.0331 20.9241 47.2465C20.9241 45.3362 20.9241 45.6733 20.9241 43.0888C20.9241 42.4145 20.9241 41.5156 20.9241 40.729C21.8241 40.0547 22.4991 39.2682 22.949 38.4816C23.0615 41.1785 22.949 45.3362 22.949 46.1228ZM20.1366 82.8682C20.2491 83.2053 20.6991 85.7898 19.6867 86.1269C18.7867 86.3517 17.7742 85.6774 18.5617 83.8795C18.8992 82.8682 18.3367 80.9578 18.8992 80.8455C19.6867 80.6207 20.3616 81.7444 20.5866 82.6434C20.6991 82.8682 20.6991 83.2053 20.5866 83.3176C20.4741 82.8682 20.1366 82.3063 20.1366 82.8682ZM22.8365 83.7671C22.8365 83.9919 22.724 84.1042 22.724 84.329C22.4991 83.9919 22.1616 82.8682 22.1616 83.5424C22.1616 83.9919 22.1616 86.8011 21.2616 86.8011C20.3616 86.9135 20.1366 86.1269 20.6991 85.1156C21.1491 84.2166 20.8116 81.5197 21.4866 81.4073C22.1616 81.4073 22.6115 81.9692 22.8365 82.6434C22.8365 82.9805 22.949 83.3176 22.8365 83.7671ZM26.9989 78.0362C26.6614 78.5981 26.2114 78.7104 25.9864 79.1599C25.6489 79.6094 25.8739 80.5084 25.4239 80.8455C25.1989 81.0702 25.0864 81.295 25.0864 81.9692C24.8615 81.6321 24.524 81.295 24.299 81.1826C23.849 80.8455 23.174 80.9578 22.8365 81.5197C22.724 81.4073 22.6115 81.295 22.4991 81.0702C22.6115 80.9578 22.724 80.7331 22.724 80.5084C22.949 80.1712 22.8365 79.6094 22.949 79.3846C23.0615 79.2723 23.399 79.0475 23.624 78.7104C23.7365 78.3733 23.7365 77.6991 23.849 77.362C23.9615 77.0249 24.1865 76.9125 24.4115 76.463C24.4115 76.3506 24.524 75.4517 24.6365 75.1145C24.8615 74.5527 25.4239 73.8785 25.9864 73.3166C25.9864 74.5527 25.9864 74.8898 26.2114 76.2383C26.7739 75.6764 27.2239 75.2269 27.6738 74.7774C27.6738 75.6764 27.5613 75.9011 27.2239 76.5754C27.1114 77.1372 27.3364 77.4743 26.9989 78.0362ZM30.4862 82.4187C30.9362 81.9692 31.2737 80.8455 31.4987 79.7218C31.7237 78.8228 34.3111 69.2712 34.8735 66.9114C35.3235 66.462 35.661 66.2372 35.9985 66.0125C36.2235 65.7877 36.561 65.6754 36.8985 65.6754C36.2235 68.0352 33.8611 78.9352 33.4111 81.1826C33.1861 82.4187 32.0612 82.6434 30.4862 82.4187ZM36.4485 82.1939C36.2235 83.6548 35.9985 84.5537 34.4236 84.1042C33.4111 83.8795 34.3111 82.1939 34.5361 81.0702C34.7611 80.0589 37.3484 67.3609 37.6859 65.4506C38.1359 65.4506 38.6984 65.4506 39.1484 65.563C38.8109 66.9115 36.4485 82.1939 36.4485 82.1939ZM41.0608 80.2836C40.9483 81.6321 40.8358 82.7558 40.8358 83.0929C40.2733 85.7898 36.786 85.6774 37.4609 82.0816C37.5734 81.1826 39.3734 68.3723 39.8234 65.7877C40.4983 66.0125 41.2858 66.2372 41.8483 66.6867C41.7358 68.0352 41.2858 75.564 41.0608 80.2836ZM43.1982 85.6774C42.5232 85.228 41.9608 84.5537 41.9608 82.531C41.9608 80.7331 42.1858 68.9341 42.2982 67.0238C42.7482 67.4733 43.0857 67.9228 43.1982 68.4846C43.3107 67.9228 43.6482 67.4733 44.0982 67.0238C44.0982 68.9341 44.4357 80.7331 44.4357 82.531C44.4357 84.5537 43.8732 85.228 43.1982 85.6774ZM45.6731 83.0929C45.5606 82.7558 45.5606 81.7444 45.4481 80.2836C45.2231 75.564 44.7731 68.0352 44.7731 66.5743C45.3356 66.2372 46.1231 65.9001 46.7981 65.6754C47.1356 68.3723 48.9355 81.0702 49.1605 81.9692C49.7229 85.5651 46.1231 85.7898 45.6731 83.0929ZM52.0854 84.1042C50.3979 84.5537 50.2854 83.5424 50.0604 82.1939C50.0604 82.1939 47.698 66.9115 47.3605 65.563C47.923 65.4506 48.373 65.4506 48.823 65.4506C49.1605 67.1362 51.8604 80.0589 51.9729 81.0702C52.1978 82.1939 53.0978 83.8795 52.0854 84.1042ZM54.8977 79.7218C55.1227 80.8455 55.4602 81.9692 55.9102 82.4187C54.3353 82.7558 53.3228 82.4187 52.8728 81.0702C52.4228 78.9352 49.9479 68.0352 49.3855 65.563C49.7229 65.6754 50.0604 65.7877 50.2854 65.9001C50.6229 66.1249 50.9604 66.462 51.4104 66.7991C52.0854 69.2712 54.6727 78.8228 54.8977 79.7218ZM65.8098 82.6434C66.0348 81.8568 66.7098 80.7331 67.4972 80.8455C68.0597 80.9578 67.4972 82.9805 67.8347 83.8795C68.5097 85.7898 67.4972 86.3517 66.7098 86.1269C65.6973 85.9022 66.1473 83.3176 66.2598 82.8682C66.2598 82.3063 65.9223 82.8682 65.6973 83.2053C65.6973 83.0929 65.6973 82.9805 65.8098 82.6434ZM65.0223 81.5197C65.6973 81.5197 65.2473 84.2166 65.8098 85.228C66.2598 86.2393 66.0348 87.0259 65.1348 86.9135C64.2349 86.8011 64.2349 84.1042 64.2349 83.6548C64.2349 82.9805 63.8974 83.9919 63.6724 84.4413C63.6724 84.329 63.5599 84.1042 63.5599 83.8795C63.4474 83.43 63.5599 83.0929 63.5599 82.8682C63.8974 82.0816 64.3474 81.4073 65.0223 81.5197ZM62.6599 78.8228C62.7724 79.1599 63.2224 79.3847 63.2224 79.497C63.3349 79.7218 63.3349 80.2836 63.4474 80.6207C63.5599 80.8455 63.6724 80.9579 63.6724 81.1826C63.5599 81.295 63.4474 81.4073 63.3349 81.6321C63.1099 81.0702 62.4349 80.9578 61.8725 81.295C61.6475 81.4073 61.31 81.7444 61.085 82.0816C61.1975 81.4073 61.085 81.1826 60.7475 80.9578C60.41 80.5084 60.5225 79.7218 60.185 79.2723C59.96 78.9352 59.51 78.7104 59.1726 78.1486C58.8351 77.5867 59.0601 77.2496 58.7226 76.6877C58.3851 76.0135 58.2726 75.7888 58.2726 74.8898C58.6101 75.3393 59.0601 75.7888 59.735 76.3506C59.96 75.0022 59.96 74.6651 59.96 73.429C60.5225 73.8785 61.1975 74.6651 61.31 75.2269C61.4225 75.564 61.535 76.463 61.535 76.5754C61.6475 77.0249 61.8725 77.1372 62.0974 77.4743C62.5474 77.8115 62.5474 78.4857 62.6599 78.8228ZM62.8849 52.8651C62.8849 52.9774 62.8849 52.9774 62.8849 53.0898C62.8849 53.0898 62.8849 52.9774 62.8849 52.8651ZM65.4723 62.9785V65.4506C64.3474 64.5517 63.4474 63.4279 63.4474 62.4166C63.4474 61.63 63.3349 57.9218 63.3349 55.2249C63.7849 56.0115 64.4598 56.798 65.3598 57.4723C65.4723 59.1578 65.4723 62.4166 65.4723 62.9785ZM63.4474 48.595C63.8974 49.3816 64.5723 50.1682 65.5848 50.8424C65.5848 51.2919 65.5848 51.8537 65.5848 52.1908V55.6743C64.4598 54.7754 63.5599 53.6517 63.5599 52.6403C63.4474 52.3032 63.4474 50.5053 63.4474 48.595ZM63.4474 46.1228C63.4474 45.3362 63.3349 41.1785 63.3349 38.4816C63.7849 39.2682 64.4598 40.0547 65.3598 40.729C65.4723 41.5156 65.3598 42.4145 65.3598 43.0888C65.3598 45.7857 65.3598 45.3362 65.3598 47.2465C65.3598 48.0331 65.4723 48.7073 65.5848 49.3816C64.4598 48.3702 63.4474 47.2465 63.4474 46.1228ZM68.7347 66.7991V71.0692C67.7222 70.2826 66.8223 68.9341 66.8223 66.9114V63.4279C66.8223 62.7537 66.8223 61.63 66.8223 60.6187C67.3847 61.4053 68.0597 61.8548 68.7347 62.3042C68.7347 63.8774 68.7347 66.3496 68.7347 66.7991ZM66.8223 56.2362V52.7527C66.8223 52.4156 66.8223 51.9661 66.8223 51.7413C66.9347 51.8537 67.1597 51.9661 67.3847 51.9661C67.8347 52.4156 68.2847 52.7527 68.8472 53.0898C68.8472 53.5393 68.8472 53.9888 68.8472 54.3259V59.3826C68.8472 59.7197 68.8472 60.0568 68.9597 60.3939C67.7222 59.6073 66.8223 58.2589 66.8223 56.2362ZM66.8223 46.9094V43.4259C66.8223 42.5269 66.8223 41.8527 66.7098 41.4032C66.8223 41.5156 66.9347 41.5156 67.1597 41.6279C67.6097 42.0774 68.1722 42.6393 68.7347 42.9764C68.7347 43.3135 68.7347 43.5383 68.7347 43.763V48.8197C68.7347 49.7187 68.8472 50.6176 69.0722 51.2919C67.9472 50.6176 66.8223 49.2692 66.8223 46.9094ZM72.447 70.2826V76.2383C71.2096 75.4517 69.9721 73.9908 69.9721 71.7434V68.2599C69.9721 67.2486 69.9721 65.0011 69.9721 63.6527C70.6471 64.5517 71.5471 65.2259 72.447 65.6754C72.447 67.1362 72.447 70.0578 72.447 70.2826ZM70.0846 59.1578V55.6743C70.0846 54.3259 70.0846 54.3259 70.0846 53.764C70.4221 53.8764 70.7596 54.1011 71.0971 54.2135C71.5471 54.5506 71.997 54.8877 72.5595 55.1125C72.5595 55.8991 72.5595 56.798 72.5595 56.9104V62.8661C72.5595 63.0908 72.5595 63.4279 72.5595 63.6527C71.2096 62.9785 70.0846 61.5176 70.0846 59.1578ZM70.0846 48.7073V45.2238C70.0846 44.5496 70.0846 43.9877 70.0846 43.6506C70.4221 43.763 70.7596 43.8754 71.2096 43.9877C71.6596 44.3249 72.1095 44.5496 72.5595 44.7743C72.5595 44.8867 72.5595 44.9991 72.5595 45.1115V51.0671C72.5595 51.8537 72.672 52.6403 72.897 53.2022C71.4346 52.6403 70.0846 51.1795 70.0846 48.7073ZM73.797 76.0135V72.1929C73.797 71.5187 73.797 69.0465 73.6845 67.2486C74.4719 68.2599 75.4844 68.8218 76.3844 69.2712C76.3844 72.0805 76.3844 74.3279 76.3844 74.7774V77.0249V78.3733C76.3844 79.7218 76.3844 80.5084 76.6094 80.8455C75.4844 80.2836 73.797 78.7104 73.797 76.0135ZM73.797 62.6413V58.8207C73.797 58.1465 73.797 56.6857 73.6845 55.6743C73.797 55.7867 74.022 55.7867 74.1345 55.7867C74.8094 56.4609 75.5969 57.0228 76.3844 57.3599C76.3844 58.596 76.3844 60.3939 76.3844 61.2929V63.5403V64.8888C76.3844 65.0011 76.3844 65.1135 76.3844 65.1135V65.2259C76.3844 66.0125 76.4969 66.6867 76.6094 67.3609C75.3719 66.9115 73.797 65.2259 73.797 62.6413ZM73.797 50.9548V47.1341C73.797 46.4599 73.797 45.898 73.6845 45.4486C73.797 45.5609 74.022 45.5609 74.1345 45.5609C74.8094 46.2352 75.5969 46.797 76.3844 47.1341C76.3844 47.9207 76.3844 48.8197 76.3844 49.6063V53.3145C76.3844 54.2135 76.4969 55.0001 76.7218 55.6743C75.2594 55.0001 73.797 53.5393 73.797 50.9548ZM77.7343 85.6774V82.7558C77.7343 80.9578 77.7343 79.2723 77.7343 78.8228V74.4403C77.7343 74.1032 77.7343 72.1929 77.7343 69.7207C77.8468 69.7207 77.9593 69.8331 77.9593 69.8331C78.6343 70.6197 79.5342 71.1816 80.3217 71.631V87.2506C80.3217 88.5991 80.5467 89.4981 80.8842 89.8352C79.4217 89.1609 77.7343 87.4754 77.7343 85.6774ZM77.7343 65.9001C77.7343 65.4506 77.7343 61.7424 77.7343 61.0682C77.7343 60.2816 77.7343 58.9331 77.6218 57.9218C77.8468 58.0341 78.0718 58.0341 78.2968 58.1465C78.9718 58.8207 79.6467 59.2702 80.3217 59.6073V67.3609C80.3217 68.7094 80.5467 69.6084 80.8842 69.9455C79.4217 69.3836 77.7343 67.8104 77.7343 65.9001ZM77.6218 53.0898V49.2692C77.6218 48.595 77.6218 48.1455 77.5093 47.5836C77.7343 47.696 77.9593 47.696 78.0718 47.8084C78.7468 48.4826 79.4217 48.9321 80.0967 49.2692V55.3372C80.0967 56.6857 80.3217 57.5846 80.6592 57.9218C79.3092 57.3599 77.6218 55.7867 77.6218 53.0898ZM77.6218 42.864V41.5156C77.6218 40.8413 77.6218 40.1671 77.6218 39.83C77.6218 38.5939 77.3968 36.9084 76.1594 36.0094C76.4969 37.4702 76.2719 37.695 76.2719 40.1671V41.8527C76.2719 41.8527 76.2719 41.8527 76.2719 42.0774V43.0888C76.2719 43.9877 76.3844 44.7743 76.6094 45.4486C75.1469 44.7743 73.6845 43.3135 73.6845 40.6166C73.6845 39.7176 73.4595 36.1218 72.3345 34.6609V40.9537C72.3345 41.7403 72.447 42.5269 72.672 43.2011C69.4096 41.5156 69.6346 35.7846 68.6222 33.6496C68.6222 35.5599 68.6222 36.9084 68.6222 38.8187C68.6222 39.7176 68.7347 40.6166 68.9597 41.2908C66.0348 39.4929 65.6973 35.7846 65.4723 33.0877C65.1348 34.0991 64.6848 36.6836 65.4723 39.2682C63.5599 37.8073 62.4349 34.6609 62.5474 32.3011C62.2099 33.5372 61.9849 35.4475 62.5474 37.2455C62.4349 39.3805 62.4349 56.2362 62.4349 58.0341C61.31 57.1352 60.185 55.4496 60.2975 52.9774C60.2975 52.5279 60.41 52.1908 60.41 51.8537C61.1975 46.5723 61.31 39.0434 59.1726 32.9754C60.9725 42.4145 58.7226 52.0785 58.3851 54.1011C57.8226 57.5846 59.0601 64.7764 61.535 72.8671C61.085 72.4176 59.3976 71.7434 58.7226 71.0692C58.7226 71.7434 58.9476 72.53 58.9476 74.1032C58.0476 72.6424 57.8226 72.6424 56.9227 71.0692C57.1476 72.8671 57.1476 73.0919 57.1476 74.6651C56.2477 72.9795 55.7977 70.8444 53.7728 67.698C49.273 60.731 42.8607 65.0011 42.8607 66.2372C42.8607 65.0011 36.4485 60.731 31.9487 67.698C29.9238 70.8444 29.4738 72.9795 28.5738 74.6651C28.5738 73.0919 28.4613 72.8671 28.7988 71.0692C27.8988 72.6424 27.5613 72.6424 26.7739 74.1032C26.7739 72.53 26.9989 71.7434 26.9989 71.0692C26.3239 71.7434 24.749 72.4176 24.1865 72.8671C26.6614 64.8888 27.7863 57.5846 27.3364 54.1011C26.9989 52.1908 24.8615 42.4145 26.5489 32.9754C24.4115 39.0434 24.524 46.5723 25.3114 51.8537C25.3114 52.1908 25.4239 52.6403 25.4239 52.9774C25.5364 55.4496 24.4115 57.1352 23.2865 58.0341C23.2865 56.2362 23.2865 39.3805 23.174 37.2455C23.7365 35.3352 23.5115 33.5372 23.174 32.3011C23.2865 34.5486 22.2741 37.695 20.2491 39.2682C21.0366 36.796 20.5866 34.0991 20.2491 33.0877C20.0242 35.7846 19.6867 39.3805 16.7618 41.2908C16.9868 40.6166 17.0993 39.83 17.0993 38.8187C17.0993 36.9084 17.0993 35.5599 17.0993 33.6496C15.9743 35.897 16.3118 41.6279 13.0494 43.2011C13.2744 42.5269 13.3869 41.8527 13.3869 40.9537V34.6609C12.262 36.1218 12.037 39.83 12.037 40.6166C12.037 43.2011 10.5745 44.7743 9.1121 45.4486C10.0121 44.7743 10.1246 43.9877 10.1246 43.0888V42.0774C10.1246 41.8527 10.1246 41.8527 10.1246 41.8527V40.1671C10.1246 37.695 9.89957 37.4702 10.2371 36.0094C8.9996 36.796 8.77461 38.4816 8.77461 39.83C8.77461 40.1671 8.77461 40.8413 8.77461 41.5156V42.864C8.77461 45.5609 7.08718 47.1341 5.62474 47.696C5.84973 47.3589 6.18722 46.4599 6.18722 45.1115V31.964C6.18722 28.2558 10.462 23.9857 12.1495 22.0754C16.5368 16.9063 18.5617 21.064 22.949 22.6372C30.3737 25.1094 34.3111 22.3001 34.3111 22.3001C38.2484 19.8279 38.2484 17.4682 38.2484 16.0073C38.2484 14.996 37.9109 13.7599 37.1235 12.8609C35.7735 11.5125 33.4111 11.063 32.9611 11.1754C32.0612 11.6249 31.2737 11.6249 31.0487 11.7372C30.5987 10.9506 30.7112 9.60217 32.6236 8.59083C33.1861 8.25372 32.9611 7.69186 34.5361 6.68052C39.3734 4.09599 43.8732 5.10733 46.5731 8.02898C45.6731 7.69186 44.7731 7.35475 43.0857 7.24238C45.3356 8.02898 47.923 9.82692 49.6105 12.9733C50.2854 14.2094 51.8604 17.5805 52.4228 18.5919C53.6603 20.7269 55.7977 25.3341 63.3349 22.7496C67.8347 21.2888 69.7471 17.0187 74.1345 22.1877C75.7094 24.0981 80.0967 28.3682 80.0967 32.0764V45.2238C80.0967 46.5723 80.3217 47.4712 80.6592 47.8084C79.3092 47.0218 77.6218 45.5609 77.6218 42.864Z" fill="#191817"/>
<path d="M33.4112 11.625C32.6237 12.0745 32.3987 12.1869 31.9487 12.4116C32.1737 12.6363 33.9736 12.2992 34.3111 12.1869C34.7611 12.0745 34.7611 12.2992 35.3236 12.4116C34.5361 12.0745 33.9736 11.7374 33.4112 11.625Z" fill="white"/>
<path d="M57.7103 42.5271C57.7103 50.5055 51.1856 57.023 43.1984 57.023C35.2113 57.023 28.6865 50.5055 28.6865 42.5271C28.6865 34.5488 35.2113 28.0312 43.1984 28.0312C51.2981 28.0312 57.7103 34.5488 57.7103 42.5271Z" fill="#DDDCDC"/>
<path d="M55.46 42.5268C55.46 49.2691 49.9478 54.7753 43.198 54.7753C41.7356 54.7753 40.2732 54.5506 39.0357 53.9887C34.3109 52.3031 30.936 47.6959 30.936 42.4145C30.936 37.133 34.3109 32.5258 39.0357 30.8402C40.3857 30.3908 41.7356 30.166 43.198 30.166C49.9478 30.2784 55.46 35.6722 55.46 42.5268Z" fill="url(#paint13_linear_369_5287)"/>
<path d="M54.7854 38.3691C44.0983 35.5598 31.6113 38.3691 31.6113 38.3691C32.8488 34.8856 35.5487 32.0763 39.036 30.8402C40.386 30.3908 41.7359 30.166 43.1984 30.166C48.4856 30.2784 53.098 33.6495 54.7854 38.3691Z" fill="#008B39"/>
<path d="M54.7851 46.5723C43.9855 49.4939 31.4985 46.5723 31.4985 46.5723C32.736 50.0558 35.4359 52.8651 38.9232 54.1011C40.2732 54.5506 41.6231 54.7754 43.0856 54.7754C48.4853 54.7754 53.0977 51.4042 54.7851 46.5723Z" fill="#191817"/>
<path d="M44.9983 37.5825C50.2856 37.8072 53.7729 38.5938 53.7729 38.5938C54.8979 39.7176 54.7854 44.3248 53.7729 46.3475C53.7729 46.3475 49.9481 47.134 45.7858 47.3588C42.7484 47.4712 38.9235 47.134 38.9235 47.134C38.9235 47.134 38.811 45.7856 38.811 42.5268C38.811 39.1557 38.9235 37.8072 38.9235 37.8072C38.9235 37.8072 42.1859 37.4701 44.9983 37.5825Z" fill="url(#paint14_linear_369_5287)"/>
<path d="M38.1359 42.3021C38.1359 49.2691 38.9234 54.1011 38.9234 54.1011C34.1986 52.4155 30.8237 47.8083 30.8237 42.5269C30.8237 37.2454 34.1986 32.6382 38.9234 30.9526C38.9234 30.9526 38.1359 35.1104 38.1359 42.3021Z" fill="#D70926"/>
<path d="M43.1984 57.6971C34.8738 57.6971 28.124 50.9548 28.124 42.6393C28.124 34.2115 34.8738 27.4692 43.1984 27.4692C51.5231 27.4692 58.2728 34.2115 58.2728 42.527C58.3853 50.8424 51.5231 57.6971 43.1984 57.6971ZM43.1984 28.4806C35.4362 28.4806 29.1365 34.7734 29.1365 42.527C29.1365 50.2806 35.4362 56.5734 43.1984 56.5734C50.9606 56.5734 57.2603 50.2806 57.2603 42.527C57.3728 34.7734 50.9606 28.4806 43.1984 28.4806Z" fill="#191817"/>
<path d="M51.973 55.3371C51.973 55.3371 50.7355 55 50.398 54.8877L49.948 53.3145C49.948 53.3145 49.2731 54.3258 49.0481 54.6629C48.7106 54.6629 47.4731 54.5505 47.4731 54.5505L48.4856 55.899C48.3731 56.2361 47.8106 57.4722 47.8106 57.4722L49.2731 56.798L50.5105 57.6969C50.5105 57.6969 50.5105 56.3485 50.5105 56.1237C50.848 56.0114 51.973 55.4495 51.973 55.3371Z" fill="#191817"/>
<path d="M50.7356 55.5622L50.5106 55.4498L49.9481 55.2251L49.8356 54.888V54.4385L49.3856 55.1127H48.5981L49.0481 55.7869L48.9356 56.2364L48.8231 56.5735L49.0481 56.4612L49.3856 56.3488L50.0606 56.9106V56.124L50.7356 55.5622Z" fill="white"/>
<path d="M38.9233 54.5505C38.9233 54.4382 38.9233 54.4382 38.9233 54.5505C38.9233 54.5505 37.6859 54.6629 37.2359 54.6629C37.0109 54.4382 36.336 53.3145 36.336 53.3145L35.886 54.8877C35.5485 55 34.311 55.3371 34.311 55.3371C34.311 55.3371 35.436 56.0114 35.7735 56.1237C35.7735 56.3485 35.7735 57.6969 35.7735 57.6969L37.0109 56.798L38.4734 57.4722C38.4734 57.4722 38.0234 56.2361 37.7984 55.899L38.9233 54.5505Z" fill="#191817"/>
<path d="M37.5736 55.4498L37.7985 55.1127H37.0111L36.7861 54.7756L36.5611 54.4385L36.3361 55.2251L35.9986 55.3374L35.6611 55.4498L36.3361 55.7869V56.5735L36.7861 56.2364L37.0111 56.0117L37.4611 56.2364L37.686 56.3488L37.5736 55.8993L37.4611 55.5622L37.5736 55.4498Z" fill="white"/>
<path d="M34.1985 33.5376L32.6236 32.751L32.5111 31.0654C32.5111 31.0654 31.7236 31.9644 31.3862 32.3015L29.9237 31.9644C29.9237 31.9644 30.3737 33.0881 30.5987 33.3129C30.3737 33.65 29.6987 34.6613 29.6987 34.6613C29.6987 34.6613 30.9362 34.4366 31.2737 34.4366L32.2861 35.6726C32.2861 35.6726 32.5111 34.4366 32.5111 34.0994C32.9611 33.9871 34.0861 33.5376 34.1985 33.5376Z" fill="#191817"/>
<path d="M45.5606 27.1322C45.4481 27.1322 45.4481 27.1322 45.5606 27.1322C45.5606 27.1322 44.2106 27.0198 43.8731 27.0198C43.7606 26.6827 43.1982 25.6714 43.1982 25.6714C43.1982 25.6714 42.6357 26.6827 42.5232 27.0198C42.1857 27.0198 40.9482 27.1322 40.9482 27.1322C40.9482 27.1322 41.9607 28.0312 42.1857 28.2559L41.8482 29.8291C41.8482 29.8291 42.9732 29.1549 43.1982 29.0425C43.5356 29.1549 44.5481 29.8291 44.5481 29.8291L44.2106 28.2559C44.5481 28.0312 45.4481 27.1322 45.5606 27.1322Z" fill="#191817"/>
<path d="M44.3232 27.5816C44.3232 27.4692 44.3232 27.4692 44.3232 27.5816L43.5357 27.4692L43.1982 26.6826L42.7482 27.4692H42.0732L42.6357 28.0311L42.5232 28.8177L43.1982 28.4806L43.8732 28.8177L43.7607 28.0311L44.3232 27.5816Z" fill="white"/>
<path d="M56.6979 34.7736C56.6979 34.7736 56.0229 33.7623 55.7979 33.4252C55.9104 33.088 56.4729 32.0767 56.4729 32.0767L55.0104 32.4138C54.7854 32.1891 53.8855 31.1777 53.8855 31.1777L53.773 32.8633L52.3105 33.6499C52.3105 33.6499 53.4355 34.0994 53.773 34.2118C53.8855 34.5489 53.998 35.785 53.998 35.785L55.0104 34.5489C55.3479 34.5489 56.5854 34.7736 56.6979 34.7736Z" fill="#191817"/>
<path d="M55.5728 33.9868L55.1228 33.425L55.4603 32.6384L54.6728 32.8631L54.2228 32.3013V33.0879L53.5479 33.425L54.2228 33.7621L54.3353 34.5487L54.8978 33.9868H55.5728Z" fill="white"/>
<path d="M32.9611 33.425L32.1737 33.0879V32.3013L31.7237 32.8631L30.9362 32.6384L31.2737 33.425L30.8237 33.9868L31.6112 33.8745L32.1737 34.4363L32.2862 33.6497L32.9611 33.425C32.9611 33.5374 32.9611 33.5374 32.9611 33.425Z" fill="white"/>
<path d="M31.1612 46.7972C31.1612 46.7972 30.3738 45.8982 30.1488 45.5611C30.2613 45.224 30.5988 43.9879 30.5988 43.9879L29.1363 44.6622C28.7988 44.4374 27.7864 43.7632 27.7864 43.7632C27.7864 43.7632 28.0114 44.9993 28.0114 45.3364L26.7739 46.3477C26.7739 46.3477 27.8989 46.6848 28.2364 46.6848C28.3489 47.0219 28.6863 48.258 28.6863 48.258C28.6863 48.258 29.2488 47.1343 29.4738 46.7972H31.1612Z" fill="#191817"/>
<path d="M30.149 46.3475L29.5865 45.7857L29.8115 44.9991L29.0241 45.3362L28.3491 44.8867L28.4616 45.5609L27.7866 46.1228L28.5741 46.3475L28.7991 47.0218L29.2491 46.3475H30.149Z" fill="white"/>
<path d="M59.6227 46.3477L58.3852 45.3364C58.4977 44.9993 58.6102 43.7632 58.6102 43.7632C58.6102 43.7632 57.5978 44.5498 57.2603 44.6622L55.7978 43.9879C55.7978 43.9879 56.1353 45.224 56.2478 45.5611C56.0228 45.7859 55.2354 46.7972 55.2354 46.7972H56.8103C57.0353 47.1343 57.5978 48.258 57.5978 48.258C57.5978 48.258 57.9352 47.0219 58.0477 46.6848C58.3852 46.6848 59.6227 46.3477 59.6227 46.3477Z" fill="#191817"/>
<path d="M58.4977 46.1228L57.8227 45.5609L57.9352 44.8867L57.2602 45.3362L56.4727 44.9991L56.6977 45.7857L56.1353 46.3475H56.9227L57.3727 47.0218L57.5977 46.3475L58.4977 46.1228Z" fill="white"/>
<path d="M63.8973 96.8022C64.1223 97.3641 63.6723 98.0383 62.9973 98.263C62.3223 98.4878 61.7598 98.263 61.4224 97.8136C61.6474 98.0383 61.9848 98.1507 62.4348 98.0383C62.8848 97.9259 63.2223 97.4764 63.1098 97.027C62.8848 96.4651 62.7723 95.7909 62.5473 95.229C62.4348 95.0043 62.2098 94.8919 61.9848 95.0043C62.3223 94.5548 62.5473 93.9929 62.8848 93.5435C63.2223 94.5548 63.5598 95.6785 63.8973 96.8022Z" fill="white"/>
<path d="M38.8108 100.96C39.0358 100.96 39.2608 100.848 39.2608 100.623C39.2608 100.398 39.0358 100.286 38.8108 100.173C38.5858 100.173 38.3608 100.286 38.3608 100.51C38.3608 100.735 38.5858 100.96 38.8108 100.96Z" fill="white"/>
<path d="M26.8863 92.757C26.6614 92.6446 26.4364 92.757 26.3239 92.9817C26.2114 93.2065 26.4364 93.4312 26.6614 93.4312C26.8863 93.5436 27.1113 93.4312 27.1113 93.2065C27.2238 92.9817 27.1113 92.757 26.8863 92.757Z" fill="white"/>
<path d="M56.2476 94.1055C56.0227 94.1055 55.9102 94.3302 55.9102 94.5549C55.9102 94.7797 56.1351 94.8921 56.3601 94.8921C56.5851 94.8921 56.6976 94.6673 56.6976 94.4426C56.6976 94.2178 56.4726 94.1055 56.2476 94.1055Z" fill="white"/>
<path d="M40.6106 101.072C40.8356 101.072 41.0606 100.96 41.0606 100.735C41.0606 100.51 40.8356 100.398 40.6106 100.286C40.3856 100.286 40.1606 100.398 40.1606 100.623C40.1606 100.847 40.3856 101.072 40.6106 101.072Z" fill="white"/>
<path d="M37.6858 100.848C37.9108 100.848 38.1358 100.735 38.1358 100.511C38.1358 100.286 37.9108 100.173 37.6858 100.061C37.4608 100.061 37.2358 100.173 37.2358 100.398C37.2358 100.735 37.4608 100.848 37.6858 100.848Z" fill="white"/>
<path d="M27.8987 92.9818C27.6737 92.8694 27.4487 93.0942 27.4487 93.2065C27.4487 93.4313 27.5612 93.656 27.7862 93.656C28.0112 93.7684 28.2362 93.656 28.2362 93.4313C28.2362 93.2065 28.1237 92.9818 27.8987 92.9818Z" fill="white"/>
<path d="M57.1475 93.8809C56.9226 93.8809 56.8101 94.1056 56.8101 94.3303C56.8101 94.5551 57.0351 94.6675 57.26 94.5551C57.485 94.5551 57.5975 94.3303 57.5975 94.1056C57.5975 93.9932 57.3725 93.8809 57.1475 93.8809Z" fill="white"/>
<path d="M73.0095 92.6448C72.897 92.42 72.7846 92.1953 72.6721 91.9705C71.7721 90.1726 70.8721 88.3747 69.9722 86.4644C70.5346 86.5767 70.9846 86.6891 71.5471 86.8015C71.3221 87.0262 71.3221 87.251 71.4346 87.4757C72.2221 89.0489 73.0095 90.6221 73.9095 92.1953C73.4595 92.3077 73.2345 92.5324 73.0095 92.6448Z" fill="white"/>
<path d="M51.2977 99.1623C51.0727 96.9148 50.7352 94.555 50.5103 92.3076C50.9602 92.6447 51.4102 92.8695 51.8602 93.2066C51.5227 93.319 51.5227 93.5437 51.5227 93.7684C51.7477 95.5664 51.9727 97.2519 52.1977 99.0499C51.8602 99.0499 51.6352 99.1623 51.2977 99.1623Z" fill="white"/>
<path d="M33.186 98.8249C33.5235 96.5774 33.861 94.33 34.311 91.9702C34.6485 92.4197 34.986 92.7568 35.3234 93.2063C34.986 93.2063 34.8735 93.431 34.8735 93.6558C34.6485 95.4537 34.311 97.1393 34.086 98.9372C33.7485 98.8249 33.411 98.8249 33.186 98.8249Z" fill="white"/>
<path d="M61.1976 97.1392C61.0851 96.9144 61.0851 96.6897 60.9726 96.3526C60.4101 94.4423 59.8476 92.4196 59.2852 90.5093C59.7351 90.734 60.2976 90.9588 60.7476 91.1835C60.4101 91.2959 60.4101 91.633 60.5226 91.8577C60.9726 93.5433 61.5351 95.2289 61.985 96.9144C61.7601 97.0268 61.5351 97.1392 61.1976 97.1392Z" fill="white"/>
<path d="M60.4099 97.364C60.0725 96.1279 59.735 94.8918 59.3975 93.6558C59.06 94.1052 58.7225 94.5547 58.385 95.0042C58.7225 95.0042 58.835 95.229 58.9475 95.4537C59.06 95.9032 59.1725 96.3527 59.285 96.9145C58.0475 97.2516 56.6976 97.4764 55.4601 97.7011C55.2352 97.7011 55.1227 97.8135 54.8977 97.8135C54.6727 97.7011 54.3352 97.4764 54.1102 97.364C54.6727 96.8021 55.1227 95.6784 54.8977 94.7795C54.7852 96.0156 54.2227 96.9145 52.7603 97.4764C53.4352 97.9259 54.1102 98.263 54.7852 98.7125C55.1227 98.7125 55.3476 98.6001 55.6851 98.6001C57.1476 98.1506 58.835 97.8135 60.4099 97.364Z" fill="white"/>
<path d="M66.5971 92.6444C67.1596 92.8691 67.722 92.9815 68.2845 93.2062C68.5095 93.6557 68.622 94.1052 68.847 94.4423C68.397 94.667 68.0595 94.7794 67.6095 95.0042C67.4971 94.7794 67.3846 94.5547 67.3846 94.3299C67.4971 94.3299 67.6095 94.2176 67.8345 94.2176C67.8345 94.1052 67.722 93.9928 67.722 93.8804C67.4971 93.8804 67.3846 93.7681 67.1596 93.6557C66.9346 93.3186 66.8221 92.9815 66.5971 92.6444ZM64.5722 96.1279C64.4597 95.9031 64.4597 95.6784 64.3472 95.4536C63.6722 93.5433 62.9972 91.633 62.3223 89.6104C62.7722 89.8351 63.3347 90.0598 63.7847 90.1722C63.5597 90.3969 63.4472 90.6217 63.5597 90.8464C64.0097 92.3073 64.5722 93.6557 65.0222 95.1165C65.3596 95.0042 65.5846 94.8918 65.9221 94.7794C65.8096 94.5547 65.8096 94.4423 65.6971 94.2176C65.9221 93.6557 66.2596 93.2062 66.4846 92.6444C66.5971 92.9815 66.7096 93.3186 66.8221 93.6557C66.7096 93.8805 66.5971 93.9928 66.5971 94.2176C66.5971 94.3299 66.7096 94.4423 66.7096 94.5547C66.8221 94.5547 66.9346 94.4423 67.1596 94.4423C67.2721 94.667 67.3846 94.8918 67.3846 95.1165C66.7096 95.3413 66.0346 95.6784 65.2471 95.9031C65.1346 95.9031 65.1346 95.9031 65.0222 96.0155C65.0222 96.0155 64.7972 96.0155 64.5722 96.1279Z" fill="white"/>
<path d="M46.4606 95.6788C46.7981 95.6788 47.1356 96.0159 47.3606 96.2406C47.6981 96.2406 48.0356 96.2406 48.373 96.1282C48.0356 97.0272 47.5856 97.8138 47.1356 98.7128C47.9231 98.7128 48.7105 98.6004 49.498 98.488C49.3855 97.0272 49.273 95.454 49.048 93.9932C49.048 93.7684 48.9355 93.5437 48.598 93.5437C48.9355 93.2066 49.273 92.7571 49.723 92.3076C49.948 94.555 50.173 96.9148 50.5105 99.1623C50.2855 99.1623 50.0605 99.1623 49.723 99.2746H49.6105C48.598 99.387 47.6981 99.387 46.6856 99.4994C46.6856 98.9375 46.6856 98.488 46.5731 97.9262C46.6856 97.5891 46.9106 97.252 47.0231 97.0272C46.9106 97.0272 46.7981 97.0272 46.7981 97.0272C46.7981 96.8025 46.6856 96.6901 46.5731 96.5777C46.4606 96.353 46.4606 96.0159 46.4606 95.6788ZM43.8732 99.9489C43.8732 100.623 43.3108 101.073 42.5233 101.073C41.8483 101.073 41.3983 100.623 41.1733 100.174C41.2858 100.511 41.6233 100.735 41.9608 100.735C42.4108 100.735 42.8608 100.398 42.8608 99.9489C42.8608 99.2746 42.8608 98.7128 42.8608 98.0386C42.8608 97.8138 42.7483 97.7014 42.4108 97.7014C42.8608 97.3643 43.3108 96.9148 43.6482 96.5777C43.6482 97.3643 43.6482 98.1509 43.6482 98.8251C44.4357 98.8251 45.1107 98.8251 45.8981 98.8251C45.4482 98.0385 44.8857 97.252 44.4357 96.4654C44.7732 96.4654 45.1107 96.4654 45.4482 96.4654C45.5607 96.2406 45.8981 95.9035 46.2356 95.7911C46.2356 96.1282 46.2356 96.353 46.2356 96.6901C46.1231 96.8025 46.0106 96.9148 46.0106 97.1396C45.8982 97.1396 45.7857 97.1396 45.7857 97.1396C46.0106 97.4767 46.1231 97.7014 46.3481 98.0386C46.3481 98.6004 46.3481 99.0499 46.4606 99.6117C45.5607 99.6117 44.5482 99.7241 43.6482 99.7241C43.8732 99.7241 43.8732 99.8365 43.8732 99.9489Z" fill="white"/>
<path d="M29.2489 98.0384C29.9239 98.1508 30.7113 98.3755 31.3863 98.4879H31.4988C31.7238 98.4879 32.0613 98.6002 32.2863 98.6002C32.6237 96.3528 33.0737 94.1054 33.4112 91.858C32.9612 92.1951 32.5112 92.4198 32.0613 92.6446C32.3988 92.7569 32.3988 92.9817 32.3988 93.2064C32.1738 94.6673 31.8363 96.1281 31.6113 97.5889C31.2738 97.5889 31.0488 97.4765 30.7113 97.3642C30.7113 97.1394 30.8238 96.9147 30.8238 96.8023C30.4863 96.3528 30.1488 95.9033 29.8114 95.4538C29.6989 95.791 29.6989 96.1281 29.5864 96.4652C29.6989 96.5776 29.8114 96.8023 29.9239 96.9147C29.9239 97.027 29.9239 97.1394 29.8114 97.2518C29.6989 97.2518 29.4739 97.1394 29.3614 97.1394C29.3614 97.5889 29.2489 97.8136 29.2489 98.0384ZM23.6241 95.6786C23.6241 95.5662 23.7366 95.4539 23.7366 95.3415C23.9616 94.6673 23.5116 93.993 22.8366 93.7683C22.8366 93.7683 22.7241 93.7683 22.7241 93.6559C21.1492 93.0941 19.5743 92.4198 17.9993 91.7456C18.1118 91.5209 18.2243 91.2961 18.3368 91.0714C18.4493 90.8466 18.6743 90.8466 18.8993 90.8466C18.6743 90.2848 18.4493 89.8353 18.2243 89.2734C17.7743 90.1724 17.3244 91.0714 16.9869 92.0827C18.8993 92.9817 20.8117 93.7683 22.7241 94.4425C22.9491 94.5549 23.1741 94.7796 23.0616 95.0044C23.0616 95.1167 22.9491 95.2291 22.9491 95.3415C22.8366 95.5662 22.7241 95.9033 22.7241 96.1281C22.4992 96.2404 22.3867 96.2405 22.1617 96.3528C22.0492 96.1281 21.9367 96.0157 21.8242 95.791C21.9367 95.5662 22.0492 95.2291 22.0492 95.0044C21.8242 94.892 21.5992 94.892 21.3742 94.7796C21.2617 94.7796 21.2617 94.7796 21.1492 94.6673C19.5743 94.1054 17.9993 93.4312 16.4244 92.7569C16.3119 92.9817 16.1994 93.2064 16.0869 93.4312C17.6619 94.1054 19.2368 94.7796 20.8117 95.3415C20.8117 95.4539 20.6992 95.5662 20.6992 95.6786C21.0367 96.2404 21.2617 96.6899 21.5992 97.2518C22.1617 97.027 22.7241 96.8023 23.2866 96.5776C23.2866 96.4652 23.3991 96.3528 23.3991 96.2404C23.9616 96.4652 24.6366 96.5776 25.199 96.8023C25.3115 97.027 25.424 97.1394 25.649 97.2518C25.5365 97.1394 25.5365 97.027 25.424 96.9147C25.9865 97.027 26.4365 97.2518 26.999 97.3642C27.6739 97.5889 28.4614 97.7013 29.1364 97.926C29.1364 97.7013 29.2489 97.4765 29.3614 97.1394C29.2489 97.1394 29.0239 97.027 28.9114 97.027C28.9114 96.9147 28.9114 96.8023 29.0239 96.6899C29.1364 96.5776 29.3614 96.4652 29.4739 96.4652C29.5864 96.1281 29.5864 95.791 29.6989 95.4538C29.2489 95.6786 28.6864 96.0157 28.1239 96.2404C28.1239 96.4652 28.0114 96.6899 28.0114 96.8023C27.6739 96.6899 27.449 96.6899 27.1115 96.5776C27.3365 95.791 27.5614 94.892 27.7864 94.1054C27.3365 94.3301 26.774 94.5549 26.324 94.7796C26.6615 94.892 26.6615 95.2291 26.549 95.4538C26.4365 95.791 26.324 96.1281 26.324 96.4652C26.2115 96.4652 26.099 96.3528 25.9865 96.3528C25.7615 96.2405 25.5365 96.2404 25.3115 96.1281C25.3115 95.791 25.3115 95.5662 25.424 95.2291C25.649 94.3301 25.874 93.2064 24.6366 91.9703C24.2991 92.0827 23.9616 92.3075 23.6241 92.4198C24.4116 92.6446 24.7491 93.4312 24.9741 94.1054C25.0865 94.892 24.6366 95.4538 24.8616 96.0157C24.4116 96.0157 24.0741 95.9033 23.6241 95.6786Z" fill="white"/>
<path d="M36.6737 98.488C36.7862 98.488 37.0112 98.488 37.1237 98.488C37.1237 98.1509 37.2362 97.8138 37.2362 97.4767C37.1237 97.4767 36.8987 97.5891 36.7862 97.5891C36.7862 97.252 36.8987 97.0272 36.8987 96.6901C37.1237 96.5777 37.3486 96.4654 37.3486 96.1282C37.4611 95.3416 37.4611 94.6674 37.5736 93.8808C37.5736 93.6561 37.5736 93.4313 37.2362 93.319C37.6861 92.9818 38.1361 92.6447 38.5861 92.3076C38.3611 94.3303 38.2486 96.353 38.0236 98.3757C38.4736 98.3757 38.9236 98.488 39.3736 98.488C39.3736 98.1509 39.3736 97.8138 39.4861 97.4767C39.4861 97.252 39.3736 97.0272 39.0361 96.9148C39.4861 96.5777 39.936 96.2406 40.386 95.9035C40.386 96.8025 40.2735 97.5891 40.2735 98.488C40.611 98.488 40.836 98.488 41.1735 98.488C41.1735 98.1509 41.1735 97.8138 41.1735 97.4767C41.1735 97.252 41.061 97.0272 40.7235 96.9148C41.1735 96.5777 41.6235 96.2406 42.0735 95.9035C42.0735 97.0272 42.0735 98.1509 41.961 99.2746C40.611 99.2746 39.3736 99.1623 38.0236 99.0499C37.5736 99.0499 37.0112 98.9375 36.5612 98.9375C36.6737 99.0499 36.6737 98.7128 36.6737 98.488ZM36.7862 97.7014C36.5612 97.7014 36.4487 97.8138 36.3362 98.0386C36.3362 98.1509 36.3362 98.2633 36.3362 98.488C36.4487 98.488 36.6737 98.488 36.7862 98.488C36.7862 98.7128 36.7862 98.9375 36.6737 99.2746C36.5612 99.2746 36.4487 99.2746 36.3362 99.2746C35.9987 99.2746 35.6612 99.1623 35.3237 99.1623C35.3237 98.8251 35.4362 98.3757 35.4362 98.0386C35.5487 97.4767 35.9987 97.0272 36.5612 97.0272C36.5612 97.0272 36.6737 97.0272 36.7862 96.9148C36.8987 97.1396 36.8987 97.3643 36.7862 97.7014Z" fill="white"/>
<path d="M14.3993 91.9702C14.5118 92.0826 14.6243 92.0826 14.8493 92.1949C14.9618 91.8578 15.1868 91.6331 15.2993 91.296C15.1868 91.296 14.9618 91.296 14.8493 91.296C14.9618 91.0712 15.0743 90.7341 15.1868 90.5094C15.4118 90.5094 15.7493 90.397 15.8618 90.1723C16.1993 89.498 16.5368 88.8238 16.8742 88.1496C16.9867 87.9248 16.9867 87.7001 16.7617 87.4754C17.3242 87.363 17.7742 87.2506 18.3367 87.0259C17.3242 89.0486 16.3118 91.1836 15.4118 93.2063C14.9618 92.9815 14.6243 92.7568 14.1744 92.6444C14.1744 92.4197 14.2868 92.195 14.3993 91.9702ZM14.6243 91.1836C14.3993 91.0712 14.1744 91.1836 14.0619 91.4084C13.9494 91.5207 13.9494 91.6331 13.8369 91.7455C13.9494 91.8578 14.0619 91.8578 14.2868 91.9702C14.1744 92.195 14.0619 92.4197 13.9494 92.6444C13.4994 92.4197 13.1619 92.195 12.7119 91.9702C12.9369 91.6331 13.0494 91.296 13.2744 90.9589C13.4994 90.5094 14.1744 90.2846 14.7368 90.397C14.7368 90.397 14.8493 90.397 15.0743 90.397C14.9618 90.7341 14.8493 90.9589 14.6243 91.1836C14.7368 91.1836 14.7368 91.1836 14.6243 91.1836Z" fill="white"/>
<path d="M36.8983 92.7571C36.8983 92.5324 36.7858 92.3076 36.5608 92.3076C36.3358 92.3076 36.1108 92.42 36.1108 92.6447C36.1108 92.8695 36.2233 93.0942 36.4483 93.0942C36.6733 93.0942 36.8983 92.9818 36.8983 92.7571Z" fill="white"/>
<path d="M36.8983 93.656C36.8983 93.4313 36.7858 93.2065 36.5608 93.2065C36.3358 93.2065 36.1108 93.3189 36.1108 93.5437C36.1108 93.7684 36.2233 93.9931 36.4483 93.9931C36.6733 93.9931 36.7858 93.8808 36.8983 93.656Z" fill="white"/>
<path d="M15.4118 87.0261C15.2993 87.2508 15.4118 87.4756 15.6368 87.588C15.8618 87.7003 16.0868 87.588 16.1993 87.4756C16.3118 87.2508 16.1993 87.0261 15.9743 86.9137C15.7493 86.8014 15.5243 86.9137 15.4118 87.0261Z" fill="white"/>
<path d="M15.862 86.2394C15.7495 86.4642 15.862 86.6889 16.087 86.8013C16.312 86.9136 16.537 86.8013 16.6495 86.6889C16.762 86.4641 16.6495 86.2394 16.4245 86.127C16.1995 86.0147 15.9745 86.0147 15.862 86.2394Z" fill="white"/>
<path d="M70.0847 90.7341C69.5223 89.498 68.9598 88.3743 68.3973 87.1382C68.9598 87.3629 69.5223 87.4753 70.0847 87.7C69.8597 87.9248 69.7473 88.1495 69.8597 88.3743C70.1972 89.1609 70.6472 89.8351 70.9847 90.6217C70.8722 90.9588 70.7597 91.1835 70.6472 91.5207C70.9847 91.633 71.2097 91.633 71.5472 91.7454C71.7722 92.1949 71.9972 92.532 72.1097 92.9815C71.6597 93.2062 71.3222 93.3186 70.8722 93.5433C70.7597 93.3186 70.6472 93.0939 70.5347 92.8691C70.6472 92.7567 70.7597 92.7567 70.9847 92.6444C70.9847 92.532 70.8722 92.4196 70.8722 92.4196C70.6472 92.4196 70.5347 92.3073 70.3097 92.3073C70.1972 91.9701 69.9722 91.633 69.8597 91.2959C69.9722 91.0712 69.9722 90.9588 70.0847 90.7341ZM70.9847 93.6557C70.5347 93.8805 70.1972 93.9928 69.7473 94.2176C69.5223 93.7681 69.4098 93.431 69.1848 92.9815C69.2973 92.6444 69.4098 92.4196 69.6348 92.0825C69.2973 91.9701 69.0723 91.8578 68.7348 91.8578C68.7348 91.8578 68.7348 91.7454 68.6223 91.7454C68.2848 91.0712 67.9473 90.2846 67.7223 89.6104C67.6098 89.3856 67.3848 89.2732 67.0474 89.2732C67.2724 88.7114 67.4973 88.1495 67.7223 87.5877C68.2848 88.8238 68.8473 90.0598 69.4098 91.1835C69.6348 91.2959 69.7473 91.2959 69.9722 91.4083C70.0847 91.7454 70.3097 92.0825 70.4222 92.4196C70.3097 92.6444 70.3097 92.7567 70.1972 92.9815C70.1972 93.0939 70.3097 93.2062 70.3097 93.2062C70.4222 93.0939 70.5347 93.0939 70.7597 92.9815C70.7597 93.0939 70.8722 93.431 70.9847 93.6557Z" fill="white"/>
<path d="M71.7719 94.4424C71.9969 94.5548 72.1094 94.5548 72.3344 94.5548C71.7719 94.7795 71.2094 95.1166 70.647 95.3414C70.7595 95.229 70.7595 95.0043 70.872 94.8919C70.9845 95.0043 70.9845 95.0043 71.097 94.8919C70.7595 94.5548 71.2094 94.1053 71.5469 94.33H71.4344C71.3219 94.33 71.2095 94.4424 71.3219 94.5548C71.3219 94.6671 71.4344 94.6671 71.6594 94.6671C71.7719 94.6671 71.7719 94.5548 71.7719 94.4424Z" fill="white"/>
<path d="M95.0586 47.0216C95.0586 51.1793 96.8585 52.8649 100.121 52.8649C102.483 52.8649 105.408 52.0783 105.408 46.6844V43.8752C105.408 42.302 105.408 41.0659 105.521 40.3917C105.183 40.3917 104.396 40.3917 103.833 40.504C103.608 40.504 103.383 40.6164 103.383 40.9535V46.7968C103.383 50.5051 102.033 51.1793 100.458 51.1793C99.1084 51.1793 97.5335 50.6174 97.5335 47.0216V41.6277C97.5335 40.7288 97.421 40.504 97.0835 40.504C96.746 40.504 95.3961 40.6164 95.0586 40.6164C95.0586 41.0659 95.1711 41.8525 95.1711 43.0886V47.0216H95.0586ZM108.783 73.3164L107.771 66.1247C107.658 65.6752 107.546 65.5628 107.433 65.5628C106.983 65.5628 105.633 65.6752 105.408 65.7875V66.1247C104.621 68.1473 103.271 71.6308 102.371 74.103L99.7834 66.9113C99.4459 65.8999 99.3334 65.6752 98.9959 65.5628C98.096 65.5628 97.3085 65.7875 96.8585 65.7875L96.971 66.1247C96.1835 70.5071 95.3961 75.5638 95.0586 77.6989C95.3961 77.9236 96.296 77.9236 96.746 77.9236C96.971 77.9236 97.0835 77.8113 97.0835 77.5865C97.421 75.3391 97.9835 70.8442 98.2085 68.4844C99.1084 71.1814 100.796 76.2381 101.246 77.8113C101.583 77.8113 102.146 77.6989 102.483 77.6989C102.933 77.5865 103.046 77.4741 103.158 77.0247C104.396 73.3164 105.521 70.17 106.083 68.4844L106.646 73.3164C106.871 75.3391 106.983 76.4628 107.096 77.3618C107.096 77.6989 107.433 77.8113 107.658 77.8113C107.996 77.8113 109.233 77.6989 109.571 77.5865C109.346 76.7999 109.121 75.3391 108.783 73.3164ZM141.182 70.8442C139.382 69.8329 138.707 69.3834 138.707 68.4844C138.707 67.5855 139.494 67.136 140.507 67.136C141.182 67.136 141.969 67.3607 142.419 67.5855C143.094 67.5855 143.432 66.7989 143.432 66.3494C142.982 65.8999 141.632 65.4504 140.619 65.4504C137.357 65.4504 136.457 67.5855 136.457 68.9339C136.457 70.0576 136.794 71.2937 139.157 72.5298C141.069 73.6535 141.519 74.103 141.519 74.8896C141.519 75.9009 140.732 76.3504 139.494 76.3504C138.594 76.3504 137.357 75.9009 136.682 75.4515C136.457 75.5638 136.232 76.2381 136.232 76.6875C136.232 76.9123 136.344 77.137 136.682 77.3618C137.132 77.6989 138.144 78.1484 139.494 78.1484C141.744 78.1484 143.882 76.7999 143.882 74.4401C143.994 72.5298 142.982 71.7432 141.182 70.8442ZM124.532 41.5154C124.532 40.6164 124.42 40.504 124.195 40.504C123.745 40.504 122.395 40.6164 122.057 40.6164C122.057 40.9535 122.17 41.7401 122.17 43.0886V52.4154C122.17 52.7525 122.282 52.7525 122.62 52.7525C123.07 52.7525 124.42 52.6401 124.645 52.6401C124.645 52.303 124.532 51.6288 124.532 50.2803V41.5154ZM126.22 78.036C126.782 78.036 127.907 77.8113 128.02 77.6989V69.1587C128.02 67.5855 128.02 66.4618 128.132 65.5628C127.682 65.5628 127.12 65.5628 126.557 65.6752C126.332 65.6752 126.107 65.7875 126.107 66.237V71.6308C126.107 72.6422 126.107 73.3164 126.22 74.8896C125.77 73.8783 124.982 72.8669 124.195 71.4061C122.845 69.271 121.158 66.7989 120.595 65.8999C120.37 65.6752 120.258 65.5628 120.033 65.5628C119.695 65.5628 118.008 65.6752 117.67 65.6752V65.7875L118.008 66.237V74.3277C118.008 76.0133 118.008 77.137 117.895 77.8113C118.458 77.8113 119.133 77.8113 119.47 77.6989C119.808 77.5865 119.92 77.5865 119.92 77.137V72.0803C119.92 71.069 119.92 70.0576 119.808 68.1473C120.595 69.6082 121.158 70.7319 122.17 72.4174C123.745 74.7772 124.645 76.3504 125.657 77.6989C125.882 77.9236 125.995 78.036 126.22 78.036ZM112.158 77.4741C112.158 77.8113 112.27 77.8113 112.608 77.8113C113.058 77.8113 114.408 77.6989 114.633 77.6989C114.633 77.3618 114.52 76.6875 114.52 75.3391V66.5741C114.52 65.6752 114.408 65.5628 114.183 65.5628C113.733 65.5628 112.383 65.6752 112.045 65.6752C112.045 66.0123 112.158 66.7989 112.158 68.1473V77.4741ZM245.69 52.4154C245.69 52.7525 245.802 52.7525 246.14 52.7525C246.59 52.7525 247.94 52.6401 248.165 52.6401C248.165 52.303 248.052 51.6288 248.052 50.2803V41.5154C248.052 40.6164 247.94 40.504 247.715 40.504C247.265 40.504 245.915 40.6164 245.577 40.6164C245.577 40.9535 245.69 41.7401 245.69 43.0886V52.4154ZM219.254 52.1906L219.591 52.5277C220.041 52.6401 221.391 52.7525 223.078 52.7525C224.541 52.7525 225.441 52.7525 225.778 52.6401C226.228 52.4154 226.678 51.9659 226.791 51.0669C225.891 51.1793 224.428 51.1793 223.641 51.1793C222.853 51.1793 222.291 51.1793 221.841 51.0669V47.2463H224.766C225.441 47.2463 225.891 47.0216 226.003 45.6731H221.728V42.0772H223.753C224.653 42.0772 225.328 42.0772 225.553 41.9649C225.778 41.7401 226.003 41.2906 226.116 40.504H221.391C220.603 40.504 219.704 40.6164 219.141 40.7288C219.254 41.5154 219.254 42.1896 219.254 43.2009V52.1906ZM264.364 52.5277C264.589 51.8535 265.152 50.5051 265.602 49.3814H269.989C270.439 50.5051 270.664 51.1793 271.114 52.1906C271.339 52.7525 271.451 52.8649 271.789 52.8649C272.239 52.8649 273.589 52.7525 273.926 52.6401V52.5277C273.589 51.7412 273.026 50.5051 272.239 48.4824C271.564 46.7968 270.101 42.9762 269.202 40.8412C269.089 40.6164 268.977 40.504 268.752 40.504C268.527 40.504 267.402 40.6164 266.727 40.7288L266.839 41.1783C266.052 42.9762 263.014 50.168 262.002 52.5277V52.6401C262.452 52.7525 263.239 52.8649 263.689 52.8649C264.139 52.7525 264.364 52.6401 264.364 52.5277ZM267.852 43.2009C268.077 43.8752 268.639 45.2236 269.539 47.6958H266.164C266.839 46.0102 267.402 44.437 267.852 43.2009ZM108.558 49.269C108.558 50.9546 108.558 52.0783 108.446 52.7525C109.008 52.7525 109.683 52.7525 110.02 52.6401C110.358 52.5278 110.47 52.5278 110.47 52.0783V47.0216C110.47 46.0102 110.47 44.9989 110.358 43.0886C111.145 44.5494 111.708 45.6731 112.72 47.3587C114.295 49.7185 115.195 51.2917 116.208 52.6401C116.32 52.8649 116.433 52.8649 116.658 52.8649C117.22 52.8649 118.345 52.6401 118.458 52.5277V43.9875C118.458 42.4143 118.458 41.2906 118.57 40.3917C118.12 40.3917 117.558 40.3917 116.995 40.504C116.77 40.504 116.545 40.6164 116.545 41.0659V46.4597C116.545 47.471 116.545 48.1453 116.658 49.7185C116.208 48.7071 115.42 47.5834 114.633 46.235C113.283 44.0999 111.595 41.6277 111.033 40.7288C110.808 40.504 110.695 40.3917 110.47 40.3917C110.133 40.3917 108.446 40.504 108.108 40.504V40.6164L108.446 41.0659V49.269H108.558ZM203.617 52.5277C204.517 52.7525 205.867 52.8649 206.879 52.8649C209.916 52.8649 212.054 51.5164 212.054 48.9319C212.054 47.6958 211.266 46.4597 209.579 46.0102C210.479 45.5607 211.266 44.6618 211.266 43.4257C211.266 42.1896 210.704 40.3917 206.992 40.3917C205.754 40.3917 203.954 40.6164 203.392 40.7288C203.504 41.6277 203.504 42.1896 203.504 43.2009V52.5277H203.617ZM206.092 41.9649C206.317 41.9649 206.767 41.8525 207.104 41.8525C208.341 41.8525 209.129 42.5267 209.129 43.7628C209.129 44.7741 208.679 45.4484 208.229 45.6731C207.329 45.6731 206.767 45.6731 206.204 45.7855V41.9649H206.092ZM206.092 47.1339C206.429 47.0216 206.654 47.0216 206.992 47.0216C208.566 47.0216 209.579 47.6958 209.579 49.0442C209.579 50.5051 208.566 51.404 207.104 51.404C206.767 51.404 206.317 51.404 206.092 51.2917V47.1339ZM273.926 42.0772H277.414V52.4154C277.414 52.7525 277.526 52.7525 277.864 52.7525C278.651 52.7525 279.439 52.6401 279.889 52.6401C279.889 52.303 279.776 51.6288 279.776 50.2803V42.0772H282.813C283.263 41.9649 283.713 41.5154 283.826 40.504H276.851C274.939 40.504 274.376 40.504 274.039 40.3917C273.814 40.6164 273.589 40.9535 273.364 41.5154C273.476 41.9649 273.701 42.0772 273.926 42.0772ZM285.963 52.1906L286.301 52.5277C286.751 52.6401 288.101 52.7525 289.788 52.7525C291.251 52.7525 292.151 52.7525 292.488 52.6401C292.938 52.4154 293.388 51.9659 293.501 51.0669C292.601 51.1793 291.138 51.1793 290.351 51.1793C289.563 51.1793 289.001 51.1793 288.551 51.0669V47.2463H291.476C292.151 47.2463 292.601 47.0216 292.713 45.6731H288.438V42.0772H290.463C291.363 42.0772 292.038 42.0772 292.263 41.9649C292.488 41.7401 292.713 41.2906 292.826 40.504H288.101C287.313 40.504 286.413 40.6164 285.851 40.7288C285.963 41.5154 285.963 42.1896 285.963 43.2009V52.1906ZM148.494 52.4154C149.731 52.6401 150.856 52.7525 152.319 52.7525C156.256 52.7525 159.293 50.5051 159.293 46.3473C159.293 43.8752 158.281 40.3917 152.431 40.3917C150.856 40.3917 148.831 40.6164 148.494 40.7288C148.494 41.1783 148.494 41.6277 148.494 42.9762V52.4154ZM150.969 41.9649C151.306 41.8525 151.644 41.8525 152.206 41.8525C155.131 41.8525 156.819 43.4257 156.819 46.3473C156.819 50.3927 154.231 51.2917 152.544 51.2917C151.981 51.2917 151.531 51.2917 151.081 51.1793V41.9649H150.969ZM138.932 52.1906L139.269 52.5277C139.719 52.6401 141.069 52.7525 142.757 52.7525C144.219 52.7525 145.119 52.7525 145.457 52.6401C145.907 52.4154 146.357 51.9659 146.469 51.0669C145.569 51.1793 144.107 51.1793 143.319 51.1793C142.532 51.1793 141.969 51.1793 141.519 51.0669V47.2463H144.444C145.119 47.2463 145.569 47.0216 145.682 45.6731H141.407V42.0772H143.432C144.332 42.0772 145.007 42.0772 145.232 41.9649C145.457 41.7401 145.682 41.2906 145.794 40.504H141.069C140.282 40.504 139.382 40.6164 138.819 40.7288C138.932 41.5154 138.932 42.1896 138.932 43.2009V52.1906ZM131.395 77.4741C131.395 77.8113 131.507 77.8113 131.845 77.8113C132.295 77.8113 133.645 77.6989 133.87 77.6989C133.87 77.3618 133.757 76.6875 133.757 75.3391V66.5741C133.757 65.6752 133.645 65.5628 133.42 65.5628C132.97 65.5628 131.62 65.6752 131.282 65.6752C131.282 66.0123 131.395 66.7989 131.395 68.1473V77.4741ZM192.03 52.5277C192.255 51.8535 192.817 50.5051 193.267 49.3814H197.654C198.104 50.5051 198.329 51.1793 198.779 52.1906C199.004 52.7525 199.117 52.8649 199.454 52.8649C199.904 52.8649 201.254 52.7525 201.592 52.6401V52.5277C201.254 51.7412 200.692 50.5051 199.904 48.4824C199.229 46.7968 197.767 42.9762 196.867 40.8412C196.754 40.6164 196.642 40.504 196.417 40.504C196.192 40.504 195.067 40.6164 194.392 40.7288L194.505 41.1783C193.717 42.9762 190.68 50.168 189.667 52.5277V52.6401C190.117 52.7525 190.905 52.8649 191.355 52.8649C191.805 52.7525 192.03 52.6401 192.03 52.5277ZM195.517 43.2009C195.742 43.8752 196.304 45.2236 197.204 47.6958H193.83C194.505 46.0102 195.067 44.437 195.517 43.2009ZM179.093 52.7525C179.43 52.7525 180.555 52.7525 181.118 52.6401C181.455 52.6401 181.568 52.5277 181.568 52.1906V47.6958H181.905C182.58 47.6958 182.918 47.8082 183.48 48.9319C184.267 50.3927 184.605 51.1793 185.167 51.8535C185.617 52.5277 186.18 52.7525 186.855 52.7525C187.53 52.7525 188.317 52.6401 188.43 52.5277V52.4154C187.98 51.8535 187.305 51.0669 186.405 49.3814C185.73 48.2576 185.167 47.2463 184.717 46.9092C185.505 46.5721 187.08 45.6731 187.08 43.8752C187.08 41.403 185.505 40.3917 182.468 40.3917C181.568 40.3917 179.655 40.6164 179.093 40.7288C179.093 41.2906 179.093 41.7401 179.093 42.7515V49.269C179.093 50.8422 179.093 51.9659 179.093 52.7525ZM181.568 41.8525C181.793 41.8525 182.13 41.7401 182.355 41.7401C183.592 41.7401 184.605 42.4143 184.605 43.9875C184.605 45.336 183.817 45.8979 183.368 46.0102C183.143 46.1226 182.018 46.235 181.455 46.1226V41.8525H181.568ZM203.617 67.2484C204.517 67.2484 204.854 67.2484 205.079 67.136C205.304 66.9113 205.642 66.4618 205.754 65.6752C204.854 65.6752 201.479 65.6752 200.804 65.6752C199.904 65.6752 198.779 65.8999 198.442 66.0123C198.442 66.6865 198.554 67.2484 198.554 68.035V77.5865C198.554 77.9236 198.667 77.9236 199.004 77.9236C199.792 77.9236 200.692 77.8113 201.029 77.8113C201.029 76.3504 200.917 74.7772 200.917 72.7546H203.842C204.629 72.7546 205.079 72.6422 205.304 71.1814H200.917V67.3607H203.617V67.2484ZM126.895 42.0772H130.382V52.4154C130.382 52.7525 130.495 52.7525 130.832 52.7525C131.62 52.7525 132.407 52.6401 132.857 52.6401C132.857 52.303 132.745 51.6288 132.745 50.2803V42.0772H135.782C136.232 41.9649 136.682 41.5154 136.794 40.504H129.82C127.907 40.504 127.345 40.504 127.007 40.3917C126.782 40.6164 126.557 40.9535 126.332 41.5154C126.445 41.9649 126.67 42.0772 126.895 42.0772ZM253.902 52.1906V47.6958H254.24C254.915 47.6958 255.252 47.8082 255.815 48.9319C256.602 50.3927 256.939 51.1793 257.502 51.8535C257.952 52.5277 258.514 52.7525 259.189 52.7525C259.864 52.7525 260.652 52.6401 260.764 52.5277V52.4154C260.314 51.8535 259.639 51.0669 258.739 49.3814C258.064 48.2576 257.502 47.2463 257.052 46.9092C257.839 46.5721 259.414 45.6731 259.414 43.8752C259.414 41.403 257.839 40.3917 254.802 40.3917C253.902 40.3917 251.99 40.6164 251.427 40.7288C251.427 41.2906 251.427 41.7401 251.427 42.7515V49.269C251.427 50.9546 251.427 52.0783 251.315 52.8649C251.652 52.8649 252.777 52.8649 253.34 52.7525C253.79 52.6401 253.902 52.5277 253.902 52.1906ZM253.902 41.8525C254.127 41.8525 254.465 41.7401 254.69 41.7401C255.927 41.7401 256.939 42.4143 256.939 43.9875C256.939 45.336 256.152 45.8979 255.702 46.0102C255.477 46.1226 254.352 46.235 253.79 46.1226V41.8525H253.902ZM242.428 48.1453L241.415 40.9535C241.303 40.504 241.19 40.3917 241.078 40.3917C240.628 40.3917 239.278 40.504 239.053 40.6164V40.9535C238.265 42.9762 236.915 46.4597 236.015 48.9319L233.428 41.7401C233.09 40.7288 232.978 40.504 232.64 40.3917C231.741 40.3917 230.953 40.6164 230.503 40.6164L230.616 40.9535C229.828 45.336 229.041 50.3927 228.703 52.5277C229.041 52.7525 229.941 52.7525 230.391 52.7525C230.616 52.7525 230.728 52.6401 230.728 52.4154C231.066 50.168 231.628 45.6731 231.853 43.3133C232.753 46.0102 234.44 51.0669 234.89 52.6401C235.228 52.6401 235.79 52.5277 236.128 52.5277C236.578 52.4154 236.69 52.303 236.803 51.8535C238.04 48.1453 239.165 44.9989 239.728 43.3133L240.29 48.1453C240.515 50.168 240.628 51.2917 240.74 52.1906C240.74 52.5277 241.078 52.6401 241.303 52.6401C241.64 52.6401 242.878 52.5277 243.215 52.4154C242.878 51.6288 242.765 50.168 242.428 48.1453ZM302.613 49.269C302.613 47.471 301.6 46.6845 299.913 45.6731C298.113 44.6618 297.438 44.2123 297.438 43.3133C297.438 42.4143 298.225 41.9649 299.238 41.9649C299.913 41.9649 300.7 42.1896 301.15 42.4143C301.825 42.4143 302.163 41.6277 302.163 41.1783C301.713 40.7288 300.363 40.2793 299.35 40.2793C296.088 40.2793 295.188 42.4143 295.188 43.7628C295.188 44.8865 295.525 46.1226 297.888 47.3587C299.8 48.4824 300.25 48.9319 300.25 49.7185C300.25 50.7298 299.463 51.1793 298.225 51.1793C297.325 51.1793 296.088 50.7298 295.413 50.2803C295.188 50.3927 294.963 51.0669 294.963 51.5164C294.963 51.7412 295.075 51.9659 295.413 52.1906C295.863 52.5277 296.875 52.9772 298.225 52.9772C300.588 52.9772 302.613 51.6288 302.613 49.269ZM171.106 72.9793V77.5865C171.106 77.9236 171.218 77.9236 171.443 77.9236C172.568 77.9236 173.13 77.8113 173.58 77.8113C173.58 77.3618 173.468 76.7999 173.468 75.4515V72.7546C173.468 72.5298 173.58 72.1927 173.693 71.968C173.918 71.6308 176.73 67.3607 177.293 66.5741C177.518 66.1247 177.63 65.8999 177.293 65.7875C177.068 65.6752 176.393 65.5628 175.605 65.5628C175.268 66.237 173.355 69.3834 172.568 70.6195C171.78 69.271 170.768 67.5855 170.093 66.4618C169.643 65.6752 169.418 65.5628 169.081 65.5628C168.631 65.5628 167.618 65.6752 166.943 65.8999V66.0123C168.068 67.6979 169.868 70.2824 170.881 72.0803C170.993 72.3051 171.106 72.6422 171.106 72.9793ZM177.068 52.5277C176.73 51.6288 176.168 50.3927 175.38 48.4824C174.705 46.7968 173.243 42.9762 172.343 40.8412C172.23 40.6164 172.118 40.504 171.893 40.504C171.668 40.504 170.543 40.6164 169.868 40.7288L169.981 41.1783C169.193 42.9762 166.156 50.168 165.143 52.5277V52.6401C165.593 52.7525 166.381 52.8649 166.831 52.8649C167.168 52.8649 167.281 52.7525 167.393 52.6401C167.618 51.9659 168.181 50.6174 168.631 49.4937H173.018C173.468 50.6174 173.693 51.2917 174.143 52.303C174.368 52.8649 174.48 52.9772 174.818 52.9772C175.38 52.7525 176.73 52.6401 177.068 52.5277ZM169.306 47.6958C169.981 46.0102 170.543 44.437 170.993 43.2009C171.218 43.8752 171.78 45.2236 172.68 47.6958H169.306ZM148.606 65.6752C146.694 65.6752 146.132 65.6752 145.794 65.5628C145.569 65.7875 145.344 66.1247 145.119 66.6865C145.007 67.136 145.119 67.2484 145.457 67.2484H148.944V77.5865C148.944 77.9236 149.056 77.9236 149.394 77.9236C150.181 77.9236 150.969 77.8113 151.531 77.8113C151.531 77.4741 151.419 76.7999 151.419 75.4515V67.3607H154.456C154.906 67.2484 155.356 66.7989 155.469 65.7875H148.606V65.6752ZM163.006 72.1927C163.793 71.8556 165.368 70.9566 165.368 69.1587C165.368 66.6865 163.793 65.6752 160.756 65.6752C159.856 65.6752 157.944 65.8999 157.381 66.0123C157.381 66.5741 157.381 67.0236 157.381 68.035V74.5525C157.381 76.2381 157.381 77.3618 157.269 78.1484C157.606 78.1484 158.731 78.1484 159.293 78.036C159.631 78.036 159.743 77.9236 159.743 77.5865V73.0917H160.081C160.756 73.0917 161.093 73.204 161.656 74.3277C162.443 75.7886 162.781 76.5752 163.343 77.2494C163.793 77.9236 164.356 78.1484 165.031 78.1484C165.706 78.1484 166.493 78.036 166.606 77.9236V77.8113C166.156 77.2494 165.481 76.4628 164.581 74.7772C164.131 73.5411 163.456 72.5298 163.006 72.1927ZM161.656 71.2937C161.431 71.4061 160.306 71.5185 159.743 71.4061V67.0236C159.968 67.0236 160.306 66.9113 160.531 66.9113C161.768 66.9113 162.781 67.5855 162.781 69.1587C162.893 70.6195 162.106 71.1814 161.656 71.2937ZM195.967 71.6308C195.967 68.2597 193.717 65.3381 189.78 65.3381C185.842 65.3381 183.48 68.1473 183.48 71.8556C183.48 74.7772 185.28 78.1484 189.78 78.1484C193.717 78.036 195.967 75.1143 195.967 71.6308ZM189.78 76.5752C187.755 76.5752 185.955 74.8896 185.955 71.6308C185.955 68.4844 187.53 66.9113 189.442 66.9113C191.805 66.9113 193.267 69.0463 193.267 71.8556C193.38 74.7772 192.03 76.5752 189.78 76.5752Z" fill="#B68A35"/>
<path d="M211.829 67.6977C211.829 66.9111 211.829 66.3492 211.716 65.675C212.054 65.5626 213.179 65.4503 214.079 65.3379C214.754 65.3379 218.016 65.3379 218.916 65.3379C218.804 66.2369 218.466 66.574 218.241 66.7987C218.016 66.9111 217.566 66.9111 216.779 66.9111H214.191V70.7317H218.466C218.241 72.1925 217.791 72.3049 217.116 72.3049H214.191C214.191 74.2152 214.191 75.7884 214.304 77.2492C213.966 77.3616 213.066 77.3616 212.279 77.3616C211.941 77.3616 211.829 77.2492 211.829 77.0245V67.6977Z" fill="#B68A35"/>
<path d="M221.053 67.9224C221.053 66.6863 221.053 65.8997 220.941 65.4503C221.278 65.3379 222.628 65.3379 222.966 65.3379C223.303 65.3379 223.303 65.5626 223.303 66.3492V74.8894C223.303 76.2379 223.303 76.9121 223.416 77.2492C223.078 77.3616 221.841 77.3616 221.391 77.3616C221.053 77.3616 220.941 77.2492 220.941 77.0245V67.9224H221.053Z" fill="#B68A35"/>
<path d="M226.341 65.5626C226.678 65.4503 228.366 65.3379 228.703 65.3379C228.928 65.3379 229.041 65.4503 229.266 65.675C229.828 66.574 231.403 68.9338 232.866 71.0688C233.766 72.4173 234.44 73.541 234.89 74.44C234.778 72.9791 234.778 72.1925 234.778 71.2936V66.0121C234.778 65.5626 234.89 65.4503 235.228 65.4503C235.79 65.3379 236.353 65.3379 236.803 65.3379C236.803 66.1245 236.69 67.2482 236.69 68.8214V77.2492C236.465 77.3616 235.453 77.5863 234.89 77.5863C234.665 77.5863 234.553 77.474 234.44 77.3616C233.428 76.0131 232.416 74.5523 230.953 72.1925C229.941 70.6193 229.378 69.4956 228.591 68.0348C228.703 69.9451 228.703 70.9564 228.703 71.9678V76.9121C228.703 77.3616 228.591 77.3616 228.253 77.474C227.916 77.5863 227.353 77.5863 226.678 77.5863C226.678 76.7997 226.791 75.676 226.791 74.1028V66.1245L226.341 65.5626Z" fill="#B68A35"/>
<path d="M242.203 74.1028C241.753 75.2265 241.19 76.575 240.965 77.2492C240.853 77.474 240.74 77.474 240.403 77.474C239.953 77.474 239.165 77.3616 238.715 77.2492V77.1369C239.728 74.7771 242.653 67.6977 243.44 66.0121L243.328 65.5626C244.003 65.4503 245.128 65.3379 245.353 65.3379C245.578 65.3379 245.69 65.4503 245.803 65.675C246.703 67.8101 248.165 71.5183 248.84 73.2039C249.627 75.1142 250.077 76.3503 250.415 77.1369V77.2492C249.965 77.3616 248.727 77.474 248.277 77.474C247.94 77.474 247.827 77.3616 247.602 76.9121C247.265 75.9008 247.04 75.2265 246.59 74.1028H242.203ZM246.028 72.5296C245.128 70.1698 244.565 68.709 244.34 68.1472C243.89 69.3833 243.328 70.9564 242.653 72.5296H246.028Z" fill="#B68A35"/>
<path d="M252.102 65.5626C252.44 65.4503 254.127 65.3379 254.464 65.3379C254.689 65.3379 254.802 65.4503 255.027 65.675C255.589 66.574 257.164 68.9338 258.627 71.0688C259.527 72.4173 260.202 73.541 260.652 74.44C260.539 72.9791 260.539 72.1925 260.539 71.2936V66.0121C260.539 65.5626 260.652 65.4503 260.989 65.4503C261.552 65.3379 262.114 65.3379 262.564 65.3379C262.564 66.1245 262.452 67.2482 262.452 68.8214V77.2492C262.227 77.3616 261.214 77.5863 260.652 77.5863C260.427 77.5863 260.314 77.474 260.202 77.3616C259.189 76.0131 258.177 74.5523 256.714 72.1925C255.702 70.6193 255.139 69.4956 254.352 68.0348C254.464 69.9451 254.464 70.9564 254.464 71.9678V76.9121C254.464 77.3616 254.352 77.3616 254.014 77.474C253.677 77.5863 253.114 77.5863 252.44 77.5863C252.44 76.7997 252.552 75.676 252.552 74.1028V66.1245L252.102 65.5626Z" fill="#B68A35"/>
<path d="M275.051 75.4515C274.939 76.1257 274.714 76.6876 274.376 76.9123C273.926 77.2494 272.914 77.5865 271.564 77.5865C267.176 77.5865 264.814 75.1144 264.814 71.4061C264.814 67.4731 267.851 65.001 271.564 65.001C273.364 65.001 274.826 65.5628 275.051 65.8999C275.051 66.5742 274.601 67.2484 274.039 67.136C273.476 66.9113 272.576 66.5742 271.564 66.5742C269.201 66.5742 267.401 68.035 267.401 71.1814C267.401 73.7659 269.089 75.7886 272.126 75.7886C273.476 75.901 274.489 75.5639 275.051 75.4515Z" fill="#B68A35"/>
<path d="M277.414 68.1475C277.414 67.2486 277.414 66.5743 277.301 65.7877C277.864 65.6754 278.651 65.563 279.439 65.563C280.451 65.563 282.589 65.563 284.051 65.563C283.938 66.462 283.714 66.7991 283.489 67.0238C283.151 67.1362 282.589 67.1362 281.689 67.1362H279.664V70.5073H283.826C283.601 71.8558 283.264 72.0805 282.589 72.0805H279.664V75.7888C280.114 75.9011 280.676 75.9011 281.464 75.9011C282.251 75.9011 283.601 75.9011 284.613 75.7888C284.388 76.5754 284.051 77.0248 283.601 77.362C283.376 77.4743 282.476 77.4743 281.014 77.4743C279.326 77.4743 278.089 77.362 277.639 77.2496L277.301 76.9125V68.1475H277.414Z" fill="#B68A35"/>
<defs>
<linearGradient id="paint0_linear_369_5287" x1="12.1648" y1="93.6938" x2="74.3739" y2="93.6938" gradientUnits="userSpaceOnUse">
<stop stop-color="#D70926"/>
<stop offset="0.1404" stop-color="#D70D29"/>
<stop offset="0.2532" stop-color="#D91731"/>
<stop offset="0.3564" stop-color="#DC2740"/>
<stop offset="0.4533" stop-color="#E03F55"/>
<stop offset="0.5169" stop-color="#E35367"/>
<stop offset="0.5784" stop-color="#DF3E54"/>
<stop offset="0.6665" stop-color="#DC2740"/>
<stop offset="0.761" stop-color="#D91631"/>
<stop offset="0.8656" stop-color="#D70C29"/>
<stop offset="1" stop-color="#D70926"/>
</linearGradient>
<linearGradient id="paint1_linear_369_5287" x1="70.4722" y1="62.3128" x2="73.5484" y2="54.9902" gradientUnits="userSpaceOnUse">
<stop stop-color="white"/>
<stop offset="1" stop-color="#B68A35"/>
</linearGradient>
<linearGradient id="paint2_linear_369_5287" x1="15.9878" y1="62.3127" x2="12.912" y2="54.9903" gradientUnits="userSpaceOnUse">
<stop stop-color="white"/>
<stop offset="1" stop-color="#B68A35"/>
</linearGradient>
<linearGradient id="paint3_linear_369_5287" x1="43.2279" y1="84.2759" x2="43.2279" y2="63.7719" gradientUnits="userSpaceOnUse">
<stop stop-color="white"/>
<stop offset="0.1694" stop-color="#FAF9F9"/>
<stop offset="0.3858" stop-color="#EAEAEA"/>
<stop offset="0.6277" stop-color="#D0D0CF"/>
<stop offset="0.8863" stop-color="#ACACAB"/>
<stop offset="1" stop-color="#9A9999"/>
</linearGradient>
<linearGradient id="paint4_linear_369_5287" x1="69.7804" y1="52.6582" x2="73.2458" y2="45.5156" gradientUnits="userSpaceOnUse">
<stop stop-color="white"/>
<stop offset="0.1694" stop-color="#FAF9F9"/>
<stop offset="0.3858" stop-color="#EAEAEA"/>
<stop offset="0.6277" stop-color="#D0D0CF"/>
<stop offset="0.8863" stop-color="#ACACAB"/>
<stop offset="1" stop-color="#9A9999"/>
</linearGradient>
<linearGradient id="paint5_linear_369_5287" x1="72.1539" y1="72.5167" x2="75.9156" y2="68.1347" gradientUnits="userSpaceOnUse">
<stop stop-color="white"/>
<stop offset="0.1694" stop-color="#FAF9F9"/>
<stop offset="0.3858" stop-color="#EAEAEA"/>
<stop offset="0.6277" stop-color="#D0D0CF"/>
<stop offset="0.8863" stop-color="#ACACAB"/>
<stop offset="1" stop-color="#9A9999"/>
</linearGradient>
<linearGradient id="paint6_linear_369_5287" x1="16.6779" y1="52.6576" x2="13.213" y2="45.5159" gradientUnits="userSpaceOnUse">
<stop stop-color="white"/>
<stop offset="0.1694" stop-color="#FAF9F9"/>
<stop offset="0.3858" stop-color="#EAEAEA"/>
<stop offset="0.6277" stop-color="#D0D0CF"/>
<stop offset="0.8863" stop-color="#ACACAB"/>
<stop offset="1" stop-color="#9A9999"/>
</linearGradient>
<linearGradient id="paint7_linear_369_5287" x1="14.3026" y1="72.5165" x2="10.5409" y2="68.1345" gradientUnits="userSpaceOnUse">
<stop stop-color="white"/>
<stop offset="0.1694" stop-color="#FAF9F9"/>
<stop offset="0.3858" stop-color="#EAEAEA"/>
<stop offset="0.6277" stop-color="#D0D0CF"/>
<stop offset="0.8863" stop-color="#ACACAB"/>
<stop offset="1" stop-color="#9A9999"/>
</linearGradient>
<linearGradient id="paint8_linear_369_5287" x1="20.5206" y1="70.0247" x2="32.1837" y2="58.2471" gradientUnits="userSpaceOnUse">
<stop stop-color="white"/>
<stop offset="0.2976" stop-color="#E6D7BB"/>
<stop offset="0.6347" stop-color="#CCAE73"/>
<stop offset="0.8777" stop-color="#BC9446"/>
<stop offset="1" stop-color="#B68A35"/>
</linearGradient>
<linearGradient id="paint9_linear_369_5287" x1="65.121" y1="70.8772" x2="54.4233" y2="58.3944" gradientUnits="userSpaceOnUse">
<stop stop-color="white"/>
<stop offset="0.2976" stop-color="#E6D7BB"/>
<stop offset="0.6347" stop-color="#CCAE73"/>
<stop offset="0.8777" stop-color="#BC9446"/>
<stop offset="1" stop-color="#B68A35"/>
</linearGradient>
<linearGradient id="paint10_linear_369_5287" x1="2.40015" y1="21.496" x2="17.5578" y2="32.3348" gradientUnits="userSpaceOnUse">
<stop stop-color="white"/>
<stop offset="0.1028" stop-color="#FBF9F4"/>
<stop offset="0.2824" stop-color="#F1E8D7"/>
<stop offset="0.5174" stop-color="#E0CDA9"/>
<stop offset="0.7955" stop-color="#C9A869"/>
<stop offset="1" stop-color="#B68A35"/>
</linearGradient>
<linearGradient id="paint11_linear_369_5287" x1="61.9078" y1="17.5227" x2="54.7404" y2="31.0885" gradientUnits="userSpaceOnUse">
<stop stop-color="white"/>
<stop offset="0.1048" stop-color="#F2EADB"/>
<stop offset="0.2681" stop-color="#E0CDA9"/>
<stop offset="0.4298" stop-color="#D1B57F"/>
<stop offset="0.5864" stop-color="#C5A25F"/>
<stop offset="0.7366" stop-color="#BD9548"/>
<stop offset="0.8776" stop-color="#B88D3A"/>
<stop offset="1" stop-color="#B68A35"/>
</linearGradient>
<linearGradient id="paint12_linear_369_5287" x1="38.4882" y1="11.1365" x2="37.7419" y2="7.72571" gradientUnits="userSpaceOnUse">
<stop stop-color="white"/>
<stop offset="1" stop-color="#191817"/>
</linearGradient>
<linearGradient id="paint13_linear_369_5287" x1="30.826" y1="42.5193" x2="55.4497" y2="42.5193" gradientUnits="userSpaceOnUse">
<stop offset="0.011236" stop-color="#DDDCDC"/>
<stop offset="0.0656916" stop-color="#E7E7E6"/>
<stop offset="0.1748" stop-color="#F4F4F4"/>
<stop offset="0.3095" stop-color="#FDFDFD"/>
<stop offset="0.544" stop-color="white"/>
<stop offset="0.6729" stop-color="#FBFBFB"/>
<stop offset="0.7953" stop-color="#F0F0F0"/>
<stop offset="0.9145" stop-color="#DDDDDD"/>
<stop offset="0.9725" stop-color="#D1D1D1"/>
</linearGradient>
<linearGradient id="paint14_linear_369_5287" x1="45.538" y1="42.6137" x2="37.6605" y2="47.538" gradientUnits="userSpaceOnUse">
<stop stop-color="white"/>
<stop offset="0.6292" stop-color="#D1D1D1"/>
</linearGradient>
</defs>
</svg>
