<svg width="55" height="80" viewBox="0 0 55 80" fill="none" xmlns="http://www.w3.org/2000/svg">
<path d="M45.0676 58.358C44.9889 58.437 44.9889 58.437 45.0676 58.358C40.0258 61.4396 34.3537 63.494 28.4453 63.652C28.1302 63.8891 27.5 64.3632 27.5 64.3632C27.5 64.3632 26.7909 63.8101 26.5546 63.652C20.6462 63.494 14.9741 61.3606 10.0111 58.358C10.0111 58.358 9.93231 58.358 9.93231 58.2789C9.85353 58.2789 4.73291 61.5186 4.73291 61.5186V68.4721C11.3503 72.4229 18.6767 74.7933 26.5546 74.9515C26.7909 75.1884 27.5 75.7418 27.5 75.7418C27.5 75.7418 28.209 75.1884 28.4453 74.9515C36.3232 74.7933 43.6496 72.4229 50.267 68.4721V61.5186C50.267 61.6767 45.0676 58.437 45.0676 58.358Z" fill="#191817"/>
<path d="M45.3259 59.5846C40.334 62.4146 34.3913 64.6158 28.607 64.7731C28.4485 64.8516 27.4976 65.6378 27.4976 65.6378C27.4976 65.6378 26.5468 64.9303 26.3883 64.7731C20.604 64.6158 14.582 62.4146 9.59006 59.5846L5.54895 62.3361V68.0748C11.9671 71.6913 19.0985 73.7347 26.4675 73.8921H26.626C26.626 73.8921 27.1807 74.3637 27.4184 74.5994C27.6561 74.3637 28.2108 73.8921 28.2108 73.8921H28.3692C35.7383 73.7347 42.9489 71.6122 49.2878 68.0748V62.3361L45.3259 59.5846Z" fill="url(#paint0_linear_7578_4827)"/>
<path d="M20.0478 7.46785C18.6846 8.17507 18.6044 9.03947 18.9252 9.66807C19.0054 9.58954 19.6469 9.58954 20.2883 9.27521C20.6091 9.19661 22.0524 9.51094 23.0147 10.2967C23.0949 9.9038 23.1751 9.51094 23.1751 9.118C23.1751 7.86075 22.6138 6.68205 21.7317 6.05341C21.6515 6.13199 21.4912 6.13199 21.411 6.21057C20.2883 6.83921 20.4487 7.31069 20.0478 7.46785Z" fill="white"/>
<path d="M54.184 35.445C54.184 35.1283 54.1049 34.8116 54.1049 34.4949C53.7887 31.8031 53.8677 29.1905 53.9468 26.4986C54.0259 24.0443 53.6306 21.6692 52.3655 19.5316C51.2587 17.6315 49.2821 15.098 46.9101 14.7813C44.6964 14.4646 43.2733 16.4439 41.2967 16.9189C39.0829 17.4731 37.8179 17.4731 35.6831 15.8897C34.8134 15.098 31.809 8.7643 31.0184 7.49758C30.0696 6.0725 28.8046 5.20162 27.1442 4.72659C25.2467 4.25156 21.847 5.04327 21.1354 5.99333C20.661 6.6267 20.3448 6.54753 20.3448 6.94338C20.3448 7.73509 21.847 9.3185 23.112 10.1102C22.1632 10.1894 23.5864 12.4062 23.4282 12.9604C23.191 13.5146 23.2701 16.3647 20.0285 16.9189C17.4984 17.5523 14.415 16.9981 13.7034 16.7606C11.6478 16.2064 10.0665 14.3855 7.93177 14.7022C5.55983 15.0188 3.74139 17.4731 2.6345 19.3732C1.36949 21.59 1.05323 23.886 1.05323 26.3403C1.13229 29.0321 1.21136 31.6448 0.895107 34.3366C0.895107 34.6533 0.81604 34.97 0.81604 35.2866C0.81604 35.2075 11.964 29.3488 12.2802 29.0321C12.7546 28.5571 12.9918 28.2404 13.6244 27.607L13.7034 42.6496C13.7034 42.6496 15.4428 40.3536 15.9172 40.8286C16.2334 41.1453 15.0475 48.9832 14.0196 52.6251C14.2568 52.6251 15.601 51.8334 15.759 51.9126C15.9962 51.9917 15.9172 53.8919 15.9962 54.0502C16.1544 53.8127 16.6288 52.9418 16.945 53.1001C17.3404 53.1793 17.3404 54.2085 17.3404 54.5252C17.6566 53.8127 17.8938 52.8626 18.2891 52.1501C18.6054 51.5167 19.3169 50.25 19.7913 49.4583C20.1866 48.9041 21.7679 47.2415 22.6376 46.9248C23.8236 46.5289 26.907 46.8456 27.4605 48.429H27.6977C28.5674 46.2914 31.5718 46.1331 33.074 47.3998C33.8646 47.954 35.8413 50.6458 36.1575 51.2792C36.4737 51.9126 37.4225 53.7335 37.8179 54.5252C37.8179 54.2085 37.8179 53.1793 38.134 53.1001C38.5294 53.021 39.0038 53.8919 39.0829 54.0502C39.1619 53.8919 39.0829 51.9917 39.3201 51.9126C39.4782 51.8334 40.8223 52.6251 41.0595 52.6251C40.0316 49.3791 39.3201 42.8871 39.241 42.4912C39.241 42.1745 39.0829 39.4035 39.241 38.2951C39.3201 40.1953 39.5573 40.6703 41.3757 42.6496C41.3757 42.1745 41.5338 29.0321 41.4548 27.607C42.0082 28.1612 42.1663 28.6363 42.7198 29.0321C44.5383 30.4572 54.184 35.2866 54.184 35.445Z" fill="#B68A35"/>
<path d="M41.4401 39.7706C41.4401 39.6919 41.5189 39.6919 41.5189 39.6133C41.7555 39.8493 41.9131 40.0066 42.1497 40.2426C43.0171 41.1865 43.6478 42.2878 44.3575 43.3104C45.1461 44.4117 46.1711 45.277 47.1961 46.2209C48.0635 47.0075 52.0061 49.918 53.8985 51.0979C54.2138 49.5247 53.8196 46.4569 53.8196 44.8836C53.8196 43.4677 53.8195 42.5238 52.558 41.6585C50.981 40.5572 49.0885 39.7706 47.4327 38.8266C45.9345 37.9614 44.5941 36.8601 43.0959 35.9162C41.992 35.2868 41.5978 34.5002 41.4401 33.635C41.2035 35.7589 41.2824 37.804 41.4401 39.7706Z" fill="url(#paint1_linear_7578_4827)"/>
<path d="M13.3968 39.7706C13.3968 39.6919 13.3179 39.6919 13.3179 39.6133C13.0813 39.8493 12.9236 40.0066 12.6871 40.2426C11.8197 41.1865 11.1889 42.2878 10.4792 43.3104C9.69078 44.4117 8.66568 45.277 7.64065 46.2209C6.77326 47.0075 2.83075 49.918 0.938338 51.0979C0.622937 49.5247 1.01719 46.4569 1.01719 44.8836C1.01719 43.4677 1.01719 42.5238 2.2788 41.6585C3.85581 40.5572 5.74823 39.7706 7.40409 38.8266C8.90224 37.9614 10.2427 36.8601 11.7408 35.9162C12.8448 35.2868 13.2391 34.5002 13.3968 33.635C13.6333 35.7589 13.5544 37.804 13.3968 39.7706Z" fill="url(#paint2_linear_7578_4827)"/>
<path d="M33.2218 47.3784C32.1084 46.2695 29.325 45.9526 27.4163 48.2497C25.5872 45.9526 22.7242 46.2695 21.6108 47.3784C21.3722 48.4874 18.3502 58.4681 17.9525 59.4979C19.4635 59.9732 19.4635 59.7355 20.4179 59.4187C20.6565 62.2703 22.3266 60.5277 22.7242 60.2108C24.0762 62.5871 25.3486 61.1613 25.9848 60.0523C25.9848 60.9237 26.3824 61.399 27.3368 62.0326C28.2911 61.3198 28.6887 60.9237 28.6887 60.0523C29.4045 61.1613 30.5974 62.5871 31.9494 60.2108C32.347 60.6068 34.0171 62.2703 34.2557 59.4187C35.2895 59.7355 35.21 59.9732 36.7211 59.4979C36.4825 58.4681 33.4604 48.4874 33.2218 47.3784Z" fill="white"/>
<path d="M41.3761 34.4631C42.4035 37.552 52.0451 41.7497 54.0207 42.9377C54.0207 40.9577 53.8627 39.6904 53.8627 38.1064C53.8627 36.6808 53.8627 35.7303 52.5982 34.8591C51.0177 33.7502 49.1209 32.9582 47.4613 32.0078C45.9598 31.1366 44.6163 30.0277 43.1148 29.0773C42.0083 28.4437 41.6132 27.6517 41.4552 26.7805C41.139 28.8397 41.3761 34.5422 41.3761 34.4631Z" fill="white"/>
<path d="M41.3319 45.1838C41.3319 46.6035 42.3693 47.7078 43.4067 48.5754C43.4067 49.3641 43.8856 51.4937 45.6413 52.1247C45.6413 53.3079 46.599 54.8853 48.3547 55.753C48.3547 57.2515 50.1902 58.5136 51.1478 58.7502C50.4295 63.4826 53.3025 64.9023 54.0207 65.2967C54.0207 63.3249 53.8611 55.2009 53.8611 53.6234C53.8611 52.2036 53.8611 51.2571 52.5843 50.3895C47.5566 46.7613 43.0876 41.5556 41.1723 39.3472C41.0126 41.3979 41.3319 45.2627 41.3319 45.1838Z" fill="white"/>
<path d="M13.4361 34.4631C12.4107 37.552 2.78792 41.7497 0.81604 42.9377C0.81604 40.9577 0.973791 39.6904 0.973791 38.1064C0.973791 36.6808 0.97379 35.7303 2.2358 34.8591C3.81331 33.7502 5.7063 32.9582 7.36269 32.0078C8.86131 31.1366 10.2022 30.0277 11.7009 29.0773C12.8051 28.4437 13.1995 27.6517 13.3573 26.7805C13.6728 28.8397 13.515 34.5422 13.4361 34.4631Z" fill="white"/>
<path d="M13.4963 45.1838C13.4963 46.6035 12.4609 47.7078 11.4255 48.5754C11.4255 49.3641 10.9476 51.4937 9.19531 52.1247C9.19531 53.3079 8.23956 54.8853 6.48731 55.753C6.48731 57.2515 4.6554 58.5136 3.69962 58.7502C4.41645 63.4826 1.54913 64.9023 0.832294 65.2967C0.752649 63.3249 0.991589 55.2009 0.991589 53.6234C0.991589 52.2036 0.991589 51.2571 2.26596 50.3895C7.2041 46.7613 11.7441 41.5556 13.6556 39.3472C13.8149 41.3979 13.576 45.2627 13.4963 45.1838Z" fill="white"/>
<path d="M33.2218 47.3784C32.1084 46.2695 29.325 45.9526 27.4163 48.2497C25.5872 45.9526 22.7242 46.2695 21.6108 47.3784C21.3722 48.4874 18.3502 58.4681 17.9525 59.4979C19.4635 59.9732 19.4635 59.7355 20.4179 59.4187C20.6565 62.2703 22.3266 60.5277 22.7242 60.2108C24.0762 62.5871 25.3486 61.1613 25.9848 60.0523C25.9848 60.9237 26.3824 61.399 27.3368 62.0326C28.2911 61.3198 28.6887 60.9237 28.6887 60.0523C29.4045 61.1613 30.5974 62.5871 31.9494 60.2108C32.347 60.6068 34.0171 62.2703 34.2557 59.4187C35.2895 59.7355 35.21 59.9732 36.7211 59.4979C36.4825 58.4681 33.4604 48.4874 33.2218 47.3784Z" fill="url(#paint3_linear_7578_4827)"/>
<path d="M41.3761 34.4631C42.4035 37.552 52.0451 41.7497 54.0207 42.9377C54.0207 40.9577 53.8627 39.6904 53.8627 38.1064C53.8627 36.6808 53.8627 35.7303 52.5982 34.8591C51.0177 33.7502 49.1209 32.9582 47.4613 32.0078C45.9598 31.1366 44.6163 30.0277 43.1148 29.0773C42.0083 28.4437 41.6132 27.6517 41.4552 26.7805C41.139 28.8397 41.3761 34.5422 41.3761 34.4631Z" fill="url(#paint4_linear_7578_4827)"/>
<path d="M41.3319 45.1838C41.3319 46.6035 42.3693 47.7078 43.4067 48.5754C43.4067 49.3641 43.8856 51.4937 45.6413 52.1247C45.6413 53.3079 46.599 54.8853 48.3547 55.753C48.3547 57.2515 50.1902 58.5136 51.1478 58.7502C50.4295 63.4826 53.3025 64.9023 54.0207 65.2967C54.0207 63.3249 53.8611 55.2009 53.8611 53.6234C53.8611 52.2036 53.8611 51.2571 52.5843 50.3895C47.5566 46.7613 43.0876 41.5556 41.1723 39.3472C41.0126 41.3979 41.3319 45.2627 41.3319 45.1838Z" fill="url(#paint5_linear_7578_4827)"/>
<path d="M13.4361 34.4631C12.4107 37.552 2.78792 41.7497 0.81604 42.9377C0.81604 40.9577 0.973791 39.6904 0.973791 38.1064C0.973791 36.6808 0.97379 35.7303 2.2358 34.8591C3.81331 33.7502 5.7063 32.9582 7.36269 32.0078C8.86131 31.1366 10.2022 30.0277 11.7009 29.0773C12.8051 28.4437 13.1995 27.6517 13.3573 26.7805C13.6728 28.8397 13.515 34.5422 13.4361 34.4631Z" fill="url(#paint6_linear_7578_4827)"/>
<path d="M13.4963 45.1838C13.4963 46.6035 12.4609 47.7078 11.4255 48.5754C11.4255 49.3641 10.9476 51.4937 9.19531 52.1247C9.19531 53.3079 8.23956 54.8853 6.48731 55.753C6.48731 57.2515 4.6554 58.5136 3.69962 58.7502C4.41645 63.4826 1.54913 64.9023 0.832294 65.2967C0.752649 63.3249 0.991589 55.2009 0.991589 53.6234C0.991589 52.2036 0.991589 51.2571 2.26596 50.3895C9.11565 45.4993 11.7441 41.5556 13.6556 39.3472C13.8149 41.3979 13.576 45.2627 13.4963 45.1838Z" fill="url(#paint7_linear_7578_4827)"/>
<path d="M15.9972 54.362C15.9972 53.8886 16.2333 52.6262 15.6824 52.3106C15.3676 52.0738 14.5807 52.784 13.8724 53.1785C15.0529 49.5489 17.8072 38.5811 17.335 35.2671C20.6401 37.003 22.4501 38.1865 24.4961 39.6068C26.5422 41.1061 26.7783 45.4458 25.4404 44.8935C22.5288 43.7888 18.6727 47.6552 17.4137 54.1253C17.0989 53.2574 16.8628 52.6262 15.9972 54.362Z" fill="url(#paint8_linear_7578_4827)"/>
<path d="M38.9749 54.362C38.9749 53.8886 38.7357 52.6262 39.2938 52.3106C39.6127 52.0738 40.41 52.784 41.1276 53.1785C39.9316 49.5489 37.1411 38.5811 37.6195 35.2671C34.2708 37.003 32.4371 38.1865 30.3641 39.6068C28.2911 41.1061 28.0519 45.4458 29.4073 44.8935C32.3573 43.7888 36.264 47.6552 37.5397 54.1253C37.7789 53.2574 38.0978 52.6262 38.9749 54.362Z" fill="url(#paint9_linear_7578_4827)"/>
<path d="M21.7407 16.844C15.1698 21.5602 9.07387 14.5646 7.01549 16.5296C5.74883 17.7086 2.02792 21.796 2.02792 23.6039C2.02792 25.4117 2.26543 33.8222 1.63208 34.451C3.45294 34.451 12.3989 28.8702 12.8739 28.3986C14.6156 26.6693 15.2489 27.534 17.4656 27.534C18.2573 26.9838 19.2073 26.5908 20.1573 26.0406C23.4032 23.9969 21.8198 20.0668 21.7407 16.844Z" fill="url(#paint10_linear_7578_4827)"/>
<path d="M52.6531 23.2352C52.1014 21.4968 48.2396 16.2814 46.5057 16.2814C44.4567 16.2814 40.9889 19.6793 36.9694 18.0989C32.1619 16.1233 32.7923 8.85341 27.3543 6.32473C29.1669 6.79885 30.9008 7.82613 30.3492 7.51004C27.7483 2.76879 21.601 4.74431 20.2612 6.79885C20.0247 7.58907 21.601 9.09047 22.862 10.1177C24.0441 11.9352 24.1229 12.0933 23.1772 15.1751C22.2314 18.2569 29.4822 17.3087 31.5314 19.7583C33.7381 22.445 36.1813 24.4996 39.5702 25.2898C39.649 25.2898 39.8067 25.2898 39.8855 25.3688C40.516 27.1863 45.7176 32.1646 53.2048 34.6143C52.1802 33.1128 53.2048 24.8946 52.6531 23.2352Z" fill="url(#paint11_linear_7578_4827)"/>
<path d="M10.1099 61.5835C10.2644 61.8998 10.5733 61.8998 10.8823 61.8998C11.0368 61.8998 11.1912 61.8207 11.2684 61.8998C11.4229 61.8998 11.5774 62.3743 11.7319 62.4533C11.8863 62.4533 12.427 62.4533 12.5815 62.4533C12.8904 62.5324 13.1993 62.8487 13.5083 62.8487C13.8172 62.8487 13.9717 62.6115 14.0489 62.3742C14.1262 62.0579 13.9717 60.9509 14.2806 60.6347C14.4351 60.7137 14.8212 61.1091 15.0529 61.1882C15.2074 61.2672 15.7481 61.4254 15.8253 61.5044C15.9026 61.5044 14.8985 59.8439 14.8985 59.5277C14.744 58.3415 15.7481 56.8391 16.057 56.2066C16.2114 55.8903 16.5204 54.7832 16.6749 54.4669C16.8294 54.1506 16.9066 53.3599 16.5976 53.5971C15.5164 54.3878 15.7481 52.4901 15.4391 52.5692C14.5895 52.7273 14.3579 54.1506 14.2034 54.8623C14.0489 55.4158 12.8132 58.4206 12.5815 58.4997C12.3498 58.4206 11.9636 58.4996 11.7319 58.9741C11.4229 58.5787 11.0368 58.0252 10.4961 58.0252C9.80097 58.1043 10.1099 59.1323 10.1872 59.5277C10.2644 59.8439 9.95544 60.8719 9.95544 61.1882C9.95544 61.1882 10.0327 61.4254 10.1099 61.5835Z" fill="white"/>
<path d="M44.9427 61.5038C44.7869 61.8202 44.3194 61.9784 43.9297 61.9784C43.7738 61.9784 43.4621 62.1366 43.3842 62.2158C43.2283 62.374 43.0725 62.2949 42.8388 62.374C42.6829 62.374 42.527 62.4531 42.3712 62.4531C42.0594 62.5322 41.7477 62.7695 41.436 62.8487C41.1243 62.8487 40.8906 62.6113 40.8126 62.2949C40.7347 61.9784 40.5009 60.7917 40.345 60.8709C40.1892 60.95 39.4099 61.2665 38.9424 61.4246C38.8644 61.4246 39.7995 59.6842 39.9554 59.3678C40.1113 59.0513 40.1113 58.814 39.8775 58.3393C39.8775 58.2602 39.1762 56.9153 38.8644 56.2033C38.7086 55.8869 38.3189 54.6211 38.1631 54.3046C38.0073 53.9882 37.9293 53.1971 38.241 53.4344C39.4099 54.2255 39.0982 52.3268 39.4099 52.406C40.2671 52.5642 40.5009 53.9882 40.6568 54.7002C40.8126 55.254 41.1243 55.8869 41.3581 56.3616C41.5139 56.9153 42.0594 57.7065 42.0594 58.5766C42.0594 58.5766 42.2153 58.3393 42.3712 58.3393C42.7608 58.3393 42.9946 58.2602 43.0725 58.814C43.3842 58.3393 43.7738 57.8646 44.3194 57.8646C45.0207 57.9438 44.7869 58.9722 44.709 59.3678C44.6311 59.6842 44.709 59.8424 44.7869 60.0798C45.2545 61.1082 44.9427 61.5038 44.9427 61.5038Z" fill="white"/>
<path d="M24.8071 7.20028C24.8071 7.76891 24.3175 8.17507 23.6647 8.17507C23.0118 8.17507 22.5222 7.68768 22.5222 7.20028C22.5222 6.63166 23.0118 6.2255 23.6647 6.2255C24.2358 6.14427 24.8071 6.63166 24.8071 7.20028Z" fill="url(#paint12_linear_7578_4827)"/>
<path d="M20.3353 8.1751H20.4006C20.4006 8.0119 20.2701 7.84869 20.0742 7.84869C19.8784 7.84869 19.7478 8.0119 19.7478 8.1751C19.7478 8.33831 19.8784 8.41989 20.0089 8.50151V8.41989C20.0742 8.25671 20.2048 8.1751 20.3353 8.1751Z" fill="#191817"/>
<path fill-rule="evenodd" clip-rule="evenodd" d="M22.8046 7.3264C23.1114 8.44831 24.7222 7.88736 24.262 6.60517C24.9524 6.36476 25.4126 6.36476 25.9495 6.28463C24.5688 6.04421 23.0347 5.88394 22.0376 6.36476C21.5773 6.60517 21.7307 6.92571 21.7307 7.00586C21.8074 6.76544 22.2677 6.6853 22.5745 6.84558C22.3444 8.92911 24.8756 8.68871 24.7989 7.00586C24.5688 8.36815 22.8813 8.36815 22.8046 7.3264Z" fill="#191817"/>
<path fill-rule="evenodd" clip-rule="evenodd" d="M24.1543 6.86944C23.9762 6.73887 23.4421 6.67359 23.175 6.86944C23.175 6.67359 23.3531 6.54303 23.6202 6.54303C23.9762 6.54303 24.1543 6.67359 24.1543 6.86944Z" fill="white"/>
<path d="M54.3688 43.5085C54.6054 43.5873 54.8422 43.6661 55 43.745C54.2899 42.6411 54.3688 40.9064 54.3688 40.5122V36.3332C54.6054 36.4121 54.8422 36.4909 55 36.5697C54.2899 35.4658 54.3688 33.7312 54.3688 33.3369V23.4808C54.3688 20.7999 50.2654 14.2555 46.7145 14.1766C44.2683 14.0978 41.3486 17.5671 37.7188 16.6998C36.6141 16.3844 35.6671 15.2016 34.8781 13.6247C33.5366 10.9438 32.274 7.31675 29.0387 5.18782C25.5667 2.9012 21.3845 5.50322 20.9111 5.89747C20.5165 6.29171 19.8852 7.3956 19.4907 7.5533C18.3859 8.10524 18.2281 9.1303 18.2281 9.52451C18.2281 9.91878 18.307 10.7861 19.0172 11.3381C18.9383 10.8649 18.8594 10.6284 19.0172 10.3919C19.4907 10.4707 20.4376 10.6284 21.0689 10.3919C21.3845 10.7073 22.0947 11.2592 22.4103 11.89C22.8838 12.7573 22.8838 12.8362 22.8838 13.2305C22.8838 14.0978 22.4892 15.3594 21.2267 16.1478C19.9641 17.0941 16.8866 17.5671 13.0201 16.3055C10.9685 15.5959 10.1004 14.1766 8.20658 14.1766C4.73456 14.2555 0.631282 20.7999 0.631282 23.4808V33.2581C0.631282 33.6523 0.710187 35.4658 0 36.4909C0.0789128 36.4909 0.315644 36.4121 0.631282 36.3332V40.5122C0.631282 40.9064 0.710187 42.72 0 43.745C0.157826 43.6661 0.39455 43.5873 0.631282 43.5085V48.8702C0.631282 49.2645 0.710187 51.078 0 52.103C0.0789128 52.103 0.315644 52.0242 0.631282 51.8664V62.6688C0.631282 62.9842 0.631282 64.0092 0.39455 65.0342C0.315644 65.3497 0.552369 65.7439 0.868006 65.5862C2.20948 65.1131 4.26115 64.0092 4.26115 61.013V59.2783C5.28695 58.8052 6.47057 58.0955 6.86514 56.1243C7.96984 55.5724 9.23245 54.5473 9.5481 52.5761C10.7317 51.8664 11.9153 50.6838 11.9153 48.476C12.9412 47.6875 13.5724 46.8201 13.6514 46.1105C13.7303 45.6374 13.8092 44.5335 13.8092 43.1931C14.5194 42.6411 15.0717 42.0103 15.3874 41.4584C15.2295 44.297 14.6772 48.0817 13.4146 53.2857C13.6514 53.2857 13.967 53.2069 14.2827 53.1281C14.1248 54.1531 13.1779 56.6763 12.6256 57.859C12.5467 57.859 12.4677 57.859 12.3888 57.859C12.1521 57.859 12.0732 58.0955 11.9153 58.3321C11.6786 57.9378 11.284 57.2282 10.495 57.4648C9.70586 57.7013 9.86368 58.7263 10.0215 59.1206C10.2582 59.9879 9.70586 60.2245 9.78477 60.9341C9.86368 61.4072 10.1793 61.8014 10.495 61.9591C10.5739 62.1957 10.7317 62.3534 10.9685 62.4323C11.2052 62.5111 11.2052 62.3534 11.2052 62.038C11.284 62.038 11.284 62.038 11.363 61.9591C11.4419 62.1957 11.5997 62.3534 11.7575 62.4323C11.8364 62.5899 11.9943 62.7476 12.3099 62.9842C12.6256 63.1419 12.3888 62.8265 12.3888 62.5111C12.4677 62.5111 12.6256 62.4323 12.7045 62.3534C12.7045 62.4323 12.7834 62.5111 12.8623 62.5899L12.9412 62.6688C13.0201 62.9842 13.2568 63.1419 13.5724 63.3784C13.8092 63.4573 13.7303 63.2207 13.6514 62.9842C13.967 62.9842 14.2827 62.8265 14.3616 62.2745C14.5194 61.5649 14.1248 61.6437 14.5983 60.7764C14.6772 60.7764 15.3085 61.013 15.4663 61.0918C14.835 60.8552 14.5194 59.3571 14.4405 59.8302C13.8881 60.7764 14.3616 62.5111 13.8092 62.5899C12.0732 62.6688 13.3357 60.5399 13.4146 59.9879C13.4935 59.2783 13.4146 58.3321 14.1248 58.4898C14.7561 58.6474 15.4663 60.6187 15.8608 61.1706C15.9398 61.2495 16.7288 61.7226 16.8077 61.5649C16.0187 60.7764 15.5452 59.5148 15.4663 59.1206C15.3874 58.5687 15.3874 58.3321 15.5452 57.859C15.703 57.4648 16.6499 55.7301 17.0445 54.9416C17.1234 55.257 17.2812 55.5724 17.2812 55.8089C17.439 53.9954 19.4118 50.6838 21.1478 48.6336C20.5165 50.6838 19.0961 55.5724 18.7016 56.9128C18.3859 58.0167 17.5969 59.1994 17.439 59.3571C18.0703 59.5937 19.3329 59.8302 20.1219 59.436C19.9641 59.9091 20.043 60.3033 20.3587 60.6976C20.8321 61.1706 22.0947 61.486 22.8049 60.3822C23.3572 62.1957 25.2511 62.1169 26.0402 60.8552C26.3558 61.8803 27.066 62.038 27.4605 62.4323C27.8551 62.038 28.5653 61.8803 28.8809 60.8552C29.67 62.1169 31.6428 62.1957 32.1162 60.3822C32.7475 61.486 34.0889 61.1706 34.5624 60.6976C34.957 60.3033 34.957 59.9091 34.7992 59.436C35.6671 59.7513 36.8508 59.5937 37.482 59.3571C37.3242 59.1994 36.5352 58.0167 36.2195 56.9128C35.825 55.5724 34.4046 50.6049 33.7733 48.6336C35.5093 50.6049 37.482 53.9954 37.6399 55.8089C37.7188 55.5724 37.7977 55.257 37.8766 54.9416C38.2712 55.8089 39.2181 57.4648 39.3759 57.859C39.5337 58.2532 39.6126 58.5687 39.4548 59.1206C39.3759 59.5148 38.9813 60.7764 38.1923 61.5649C38.2712 61.8014 38.9813 61.4072 38.9813 61.3284C39.3759 60.6976 40.165 58.7263 40.7173 58.5687C41.3486 58.3321 41.3486 59.3571 41.4276 60.0667C41.5065 60.6187 42.769 62.7476 41.033 62.6688C40.4018 62.6688 40.8752 60.8552 40.4018 59.9091C40.3228 59.5148 39.9283 61.013 39.3759 61.2495C39.4548 61.2495 40.0861 60.8552 40.165 60.8552C40.5596 61.7226 40.2439 61.6437 40.4018 62.3534C40.5596 62.8265 40.7962 63.063 41.1119 63.063C41.1119 63.2995 41.033 63.5362 41.2697 63.4573C41.5854 63.2995 41.8221 63.063 41.901 62.7476C41.901 62.7476 41.9799 62.7476 41.9799 62.6688C42.0589 62.5899 42.1378 62.5111 42.1378 62.4323C42.2167 62.5111 42.3744 62.5899 42.4534 62.5899C42.3744 62.9053 42.2167 63.2207 42.5323 63.063C42.8479 62.8265 43.0057 62.6688 43.0846 62.5111C43.2425 62.4323 43.4003 62.2745 43.4792 62.038C43.5581 62.038 43.5581 62.1169 43.637 62.1169C43.637 62.4323 43.637 62.6688 43.8738 62.5111C44.1104 62.4323 44.2683 62.2745 44.3472 62.038C44.7418 61.8803 44.9785 61.5649 45.0574 61.013C45.1363 60.3033 44.5839 59.9879 44.8207 59.1994C44.9785 58.7263 45.1363 57.7802 44.3472 57.5436C43.5581 57.307 43.2425 57.9378 42.9268 58.4109C42.8479 58.1744 42.6901 58.0167 42.4534 57.9378C42.3744 57.9378 42.2956 57.9378 42.2167 57.9378C41.5854 56.8339 40.7173 54.3108 40.5596 53.2069C40.8752 53.2857 41.1908 53.3646 41.4276 53.3646C40.0861 48.0817 39.5337 44.297 39.3759 41.5372C39.6915 42.0892 40.2439 42.72 40.9541 43.2719C40.9541 44.6124 41.033 45.7163 41.1119 46.1893C41.2697 46.8989 41.8221 47.7663 42.8479 48.5548C42.8479 50.8414 44.0316 52.0242 45.2152 52.6549C45.5309 54.6262 46.7934 55.6512 47.8981 56.2031C48.2927 58.0955 49.4763 58.8841 50.5022 59.3571V61.0918C50.5022 64.0881 52.4749 65.192 53.8953 65.7439C54.2899 65.9016 54.5265 65.5862 54.4476 65.3497C54.132 64.3246 54.132 63.1419 54.132 62.8265V51.9453C54.3687 52.0242 54.6054 52.103 54.7633 52.1819C54.0531 51.078 54.132 49.3433 54.132 48.9491V43.5085H54.3688ZM21.3056 9.91878C21.0689 9.99765 19.8063 10.2342 19.6485 10.0765C19.8853 9.91878 20.1219 9.83991 20.6743 9.52451C21.0689 9.52451 21.4634 9.76104 22.0158 10.1553C21.6212 9.91878 21.6213 9.83991 21.3056 9.91878ZM3.31421 53.5223V56.5974C3.31421 56.9916 3.31421 58.0955 3.2353 59.3571V61.4072C3.2353 62.6688 1.97274 63.8515 1.10474 64.2458C1.26256 64.0092 1.49929 63.3784 1.49929 62.4323V51.4722C2.05166 51.1568 2.68293 50.8414 3.15639 50.2106C3.2353 50.2106 3.2353 50.1318 3.31421 50.1318C3.31421 51.9453 3.31421 53.2069 3.31421 53.5223ZM3.31421 44.1393C3.31421 44.6124 3.2353 47.2143 3.2353 47.5298C3.2353 48.8702 1.97274 49.9741 1.10474 50.3684C1.26256 50.1318 1.49929 49.501 1.49929 48.5548V43.1142C1.97274 42.8777 2.52511 42.5623 2.91966 42.0892C3.07748 42.0103 3.2353 42.0103 3.39312 41.9315C3.39312 42.6411 3.31421 43.5873 3.31421 44.1393ZM1.18365 41.9315C1.34147 41.6949 1.57819 41.0642 1.57819 40.1179V35.8601C2.05166 35.6236 2.60402 35.3082 2.99857 34.8351C3.15639 34.7562 3.2353 34.7562 3.39312 34.6774C3.39312 34.9928 3.31421 35.387 3.31421 35.8601V38.4621C3.31421 40.4333 2.20947 41.5372 1.18365 41.9315ZM4.26115 34.362C4.81347 34.1254 5.36586 33.7312 5.83934 33.2581C5.91825 33.2581 6.07608 33.1793 6.15492 33.1793C6.15492 33.4946 6.07608 33.8889 6.07608 34.362V37.0429C6.07608 38.8564 5.05021 39.9603 4.02439 40.4333C4.18224 39.8814 4.26115 39.3295 4.26115 38.6986V36.0967C4.26115 35.5447 4.18224 34.9139 4.26115 34.362ZM6.07608 51.9453V54.6262C6.07608 56.5185 4.81347 57.6224 4.10331 57.9378C4.26115 57.7013 4.26115 57.1494 4.26115 56.2031V55.257V53.68C4.26115 53.3646 4.26115 51.7876 4.26115 49.8164C4.89239 49.501 5.6026 49.1067 6.15492 48.3971C6.07608 49.7375 6.07608 51.4722 6.07608 51.9453ZM6.07608 42.5623V45.2431C6.07608 47.0567 4.9713 48.2394 4.10331 48.6336C4.18224 48.1606 4.26115 47.6875 4.26115 47.1356V47.0567C4.26115 46.9778 4.26115 46.9778 4.26115 46.8989V45.9528V44.3758C4.26115 43.745 4.26115 42.4835 4.26115 41.6161C4.81347 41.3796 5.36586 40.9853 5.83934 40.5122C5.91825 40.5122 6.07608 40.4333 6.15492 40.4333C6.07608 41.0642 6.07608 42.0892 6.07608 42.5623ZM6.78622 38.6986C6.94405 38.2256 7.02296 37.7525 7.02296 37.2005V33.0215C7.02296 32.9427 7.02296 32.8639 7.02296 32.785C7.33861 32.6273 7.65426 32.4696 7.96985 32.233C8.2855 32.1542 8.52224 32.0754 8.75897 31.9965C8.75897 32.3119 8.75897 32.6273 8.75897 33.1004V35.5447C8.68006 37.2005 7.73318 38.2256 6.78622 38.6986ZM8.68006 49.1856V51.6299C8.68006 53.2857 7.89093 54.232 6.94405 54.7839V50.6049C6.94405 50.4471 6.94405 48.476 6.94405 47.2932C7.57535 46.9778 8.20658 46.5047 8.68006 45.8739C8.68006 46.8989 8.68006 48.476 8.68006 49.1856ZM8.68006 40.3545V42.7988C8.68006 44.4546 7.81209 45.4797 6.94405 45.9528C6.94405 45.7951 6.94405 45.6374 6.94405 45.4008V41.2218C6.94405 41.0642 6.94405 40.5122 6.94405 39.9603C7.2597 39.8025 7.65426 39.566 7.96985 39.3295C8.20658 39.2506 8.44332 39.1718 8.68006 39.014C8.68006 39.4872 8.68006 39.4872 8.68006 40.3545ZM9.62694 38.541C9.9426 38.3044 10.3372 38.0679 10.6528 37.7525C10.8106 37.6736 10.8896 37.5947 10.9685 37.5947C10.9685 37.8314 10.9685 38.0679 10.9685 38.3044V40.7487C10.9685 42.168 10.3372 43.1142 9.5481 43.745C9.5481 43.5085 9.62694 43.2719 9.62694 43.0354V39.4872C9.5481 39.1718 9.5481 38.8564 9.62694 38.541ZM10.9685 45.7951V48.2394C10.9685 49.6587 10.3372 50.6049 9.62694 51.1568V48.1606C9.62694 47.8452 9.62694 46.0317 9.62694 45.0066C10.1004 44.6912 10.5739 44.297 10.9685 43.8239C10.9685 44.5335 10.9685 45.4008 10.9685 45.7951ZM10.9685 31.8388V34.2832C10.9685 35.8601 10.1793 36.8851 9.31136 37.4371C9.46919 36.964 9.5481 36.4121 9.5481 35.7024V32.1542C9.5481 31.9965 9.5481 31.76 9.5481 31.6022C10.0215 31.3657 10.3372 30.9715 10.6528 30.6561C10.7317 30.5772 10.8106 30.5772 10.8895 30.4983C10.9685 30.7349 10.9685 31.208 10.9685 31.8388ZM13.2568 45.0854C13.2568 45.7951 12.6256 46.5836 11.8364 47.2143V45.4797C11.8364 45.0854 11.8364 42.72 11.8364 41.6161C12.5467 41.143 13.0201 40.5122 13.2568 40.0391C13.3357 41.9315 13.2568 44.6124 13.2568 45.0854ZM11.8364 37.0429C12.4677 36.5697 13.0201 35.939 13.2568 35.4658C13.2568 36.8063 13.2568 37.989 13.2568 38.3044C13.2568 39.0929 12.6256 39.8025 11.8364 40.4333V37.989C11.8364 37.7525 11.8364 37.3582 11.8364 37.0429ZM13.2568 33.6523C13.2568 34.4408 12.5466 35.3082 11.6786 35.939C11.7575 35.5447 11.8364 34.9928 11.8364 34.4408C11.8364 33.1004 11.8364 33.3369 11.8364 31.5234C11.8364 31.0503 11.8364 30.4195 11.8364 29.8676C12.4677 29.3944 12.9412 28.8426 13.2568 28.2906C13.3357 30.183 13.2568 33.1004 13.2568 33.6523ZM11.284 59.436C11.363 59.6725 11.6786 61.486 10.9685 61.7226C10.3372 61.8803 9.62694 61.4072 10.1793 60.1456C10.4161 59.436 10.0215 58.0955 10.4161 58.0167C10.9685 57.859 11.4419 58.6475 11.5997 59.2783C11.6786 59.436 11.6786 59.6725 11.5997 59.7513C11.5208 59.436 11.284 59.0417 11.284 59.436ZM13.1779 60.0667C13.1779 60.2245 13.099 60.3033 13.099 60.461C12.9412 60.2245 12.7045 59.436 12.7045 59.9091C12.7045 60.2245 12.7045 62.1957 12.0732 62.1957C11.4419 62.2745 11.284 61.7226 11.6786 61.013C11.9943 60.3822 11.7575 58.4898 12.231 58.4109C12.7045 58.4109 13.0201 58.8052 13.1779 59.2783C13.1779 59.5148 13.2568 59.7513 13.1779 60.0667ZM16.0976 56.0455C15.8608 56.4397 15.5452 56.5185 15.3874 56.8339C15.1506 57.1494 15.3085 57.7802 14.9928 58.0167C14.835 58.1744 14.7561 58.3321 14.7561 58.8052C14.5983 58.5687 14.3616 58.3321 14.2037 58.2532C13.8881 58.0167 13.4146 58.0955 13.1779 58.4898C13.099 58.4109 13.0201 58.3321 12.9412 58.1744C13.0201 58.0955 13.099 57.9378 13.099 57.7802C13.2568 57.5436 13.1779 57.1494 13.2568 56.9916C13.3357 56.9128 13.5724 56.7551 13.7303 56.5185C13.8092 56.282 13.8092 55.8089 13.8881 55.5724C13.967 55.3359 14.1248 55.257 14.2827 54.9416C14.2827 54.8627 14.3616 54.232 14.4405 53.9954C14.5983 53.6011 14.9928 53.1281 15.3874 52.7338C15.3874 53.6011 15.3874 53.8377 15.5452 54.7839C15.9398 54.3896 16.2554 54.0742 16.571 53.7588C16.571 54.3896 16.4921 54.5473 16.2554 55.0204C16.1765 55.4147 16.3343 55.6512 16.0976 56.0455ZM18.5437 59.1206C18.8594 58.8052 19.0961 58.0167 19.254 57.2282C19.4118 56.5974 21.2267 49.8952 21.6212 48.2394C21.9369 47.924 22.1736 47.7663 22.4103 47.6086C22.5682 47.4509 22.8049 47.3721 23.0416 47.3721C22.5682 49.0279 20.9111 56.6763 20.5954 58.2532C20.4376 59.1206 19.6485 59.2783 18.5437 59.1206ZM22.726 58.9629C22.5682 59.9879 22.4103 60.6187 21.3056 60.3033C20.5954 60.1456 21.2267 58.9629 21.3845 58.1744C21.5424 57.4648 23.3572 48.5548 23.594 47.2143C23.9096 47.2143 24.3042 47.2144 24.6198 47.2932C24.3831 48.2394 22.726 58.9629 22.726 58.9629ZM25.9613 57.6224C25.8824 58.5687 25.8034 59.3571 25.8034 59.5937C25.4089 61.486 22.9627 61.4072 23.4361 58.8841C23.515 58.2532 24.7776 49.2645 25.0933 47.4509C25.5667 47.6086 26.1191 47.7663 26.5137 48.0817C26.4347 49.0279 26.1191 54.3108 25.9613 57.6224ZM27.4605 61.4072C26.9871 61.0918 26.5926 60.6187 26.5926 59.1994C26.5926 57.9378 26.7504 49.6587 26.8292 48.3182C27.1449 48.6336 27.3816 48.949 27.4605 49.3433C27.5395 48.949 27.7762 48.6336 28.0918 48.3182C28.0918 49.6587 28.3286 57.9378 28.3286 59.1994C28.3286 60.6187 27.934 61.0918 27.4605 61.4072ZM29.1966 59.5937C29.1176 59.3571 29.1176 58.6474 29.0387 57.6224C28.8809 54.3108 28.5653 49.0279 28.5653 48.0028C28.9598 47.7663 29.5122 47.5298 29.9857 47.3721C30.2224 49.2645 31.485 58.1744 31.6428 58.8052C32.0373 61.3284 29.5122 61.486 29.1966 59.5937ZM33.6944 60.3033C32.5108 60.6187 32.4318 59.9091 32.274 58.9629C32.274 58.9629 30.6169 48.2394 30.3802 47.2932C30.7747 47.2144 31.0904 47.2143 31.406 47.2143C31.6428 48.3971 33.5366 57.4648 33.6155 58.1744C33.7733 58.9629 34.4046 60.1456 33.6944 60.3033ZM35.6671 57.2282C35.825 58.0167 36.0617 58.8052 36.3773 59.1206C35.2726 59.3571 34.5624 59.1206 34.2468 58.1744C33.9311 56.6763 32.1951 49.0279 31.8006 47.2932C32.0373 47.3721 32.274 47.4509 32.4318 47.5298C32.6686 47.6875 32.9053 47.924 33.221 48.1606C33.6944 49.8952 35.5093 56.5974 35.6671 57.2282ZM43.3214 59.2783C43.4792 58.7263 43.9527 57.9378 44.505 58.0167C44.8996 58.0955 44.505 59.5148 44.7418 60.1456C45.2152 61.486 44.505 61.8803 43.9527 61.7226C43.2425 61.5649 43.5581 59.7513 43.637 59.436C43.637 59.0417 43.4003 59.436 43.2425 59.6725C43.2425 59.5937 43.2425 59.5148 43.3214 59.2783ZM42.769 58.4898C43.2425 58.4898 42.9268 60.3822 43.3214 61.0918C43.637 61.8014 43.4792 62.3534 42.8479 62.2745C42.2167 62.1957 42.2167 60.3033 42.2167 59.9879C42.2167 59.5148 41.9799 60.2245 41.8221 60.5398C41.8221 60.461 41.7432 60.3033 41.7432 60.1456C41.6643 59.8302 41.7432 59.5937 41.7432 59.436C41.9799 58.8841 42.2956 58.4109 42.769 58.4898ZM41.1119 56.5974C41.1908 56.8339 41.5065 56.9917 41.5065 57.0705C41.5854 57.2282 41.5854 57.6224 41.6643 57.859C41.7432 58.0167 41.8221 58.0956 41.8221 58.2532C41.7432 58.3321 41.6643 58.4109 41.5854 58.5687C41.4276 58.1744 40.9541 58.0955 40.5596 58.3321C40.4018 58.4109 40.165 58.6474 40.0072 58.8841C40.0861 58.4109 40.0072 58.2532 39.7705 58.0955C39.5337 57.7802 39.6126 57.2282 39.3759 56.9128C39.2181 56.6763 38.9024 56.5185 38.6657 56.1243C38.429 55.7301 38.5868 55.4935 38.3501 55.0992C38.1134 54.6262 38.0344 54.4685 38.0344 53.8377C38.2712 54.1531 38.5868 54.4685 39.0602 54.8627C39.2181 53.9166 39.2181 53.68 39.2181 52.8127C39.6126 53.1281 40.0861 53.68 40.165 54.0742C40.2439 54.3108 40.3228 54.9416 40.3228 55.0204C40.4018 55.3359 40.5596 55.4146 40.7173 55.6512C41.033 55.8878 41.033 56.3609 41.1119 56.5974ZM41.2697 38.3833C41.2697 38.4621 41.2697 38.4621 41.2697 38.541C41.2697 38.541 41.2697 38.4621 41.2697 38.3833ZM43.0846 45.4797V47.2143C42.2956 46.5836 41.6643 45.7951 41.6643 45.0854C41.6643 44.5335 41.5854 41.9315 41.5854 40.0391C41.901 40.5911 42.3744 41.143 43.0057 41.6161C43.0847 42.7988 43.0846 45.0854 43.0846 45.4797ZM41.6643 35.387C41.9799 35.939 42.4533 36.4909 43.1636 36.964C43.1636 37.2794 43.1636 37.6736 43.1636 37.9102V40.3545C42.3744 39.7237 41.7432 38.9352 41.7432 38.2256C41.6643 37.989 41.6643 36.7275 41.6643 35.387ZM41.6643 33.6523C41.6643 33.1004 41.5854 30.183 41.5854 28.2906C41.901 28.8426 42.3744 29.3944 43.0057 29.8676C43.0847 30.4195 43.0057 31.0503 43.0057 31.5234C43.0057 33.4158 43.0057 33.1004 43.0057 34.4408C43.0057 34.9928 43.0847 35.4658 43.1636 35.939C42.3744 35.2293 41.6643 34.4408 41.6643 33.6523ZM45.3731 48.1606V51.1568C44.6628 50.6049 44.0316 49.6587 44.0316 48.2394V45.7951C44.0316 45.322 44.0316 44.5335 44.0316 43.8239C44.4261 44.3758 44.8996 44.6912 45.3731 45.0066C45.3731 46.1105 45.3731 47.8452 45.3731 48.1606ZM44.0316 40.7487V38.3044C44.0316 38.0679 44.0316 37.7525 44.0316 37.5947C44.1104 37.6736 44.2683 37.7525 44.4261 37.7525C44.7417 38.0679 45.0574 38.3044 45.452 38.541C45.452 38.8564 45.452 39.1718 45.452 39.4083V42.9565C45.452 43.1931 45.452 43.4296 45.5309 43.6661C44.6628 43.1142 44.0316 42.168 44.0316 40.7487ZM44.0316 34.2043V31.76C44.0316 31.1292 44.0316 30.6561 43.9527 30.3407C44.0316 30.4195 44.1104 30.4195 44.2683 30.4983C44.5839 30.8137 44.9785 31.208 45.3731 31.4446C45.3731 31.6811 45.3731 31.8388 45.3731 31.9965V35.5447C45.3731 36.1755 45.452 36.8063 45.6098 37.2794C44.8207 36.8063 44.0316 35.8601 44.0316 34.2043ZM47.977 50.6049V54.7839C47.1091 54.232 46.241 53.2069 46.241 51.6299V49.1856C46.241 48.476 46.241 46.8989 46.241 45.9528C46.7145 46.5836 47.3458 47.0567 47.977 47.3721C47.977 48.3971 47.977 50.4471 47.977 50.6049ZM46.3199 42.7988V40.3545C46.3199 39.4083 46.3199 39.4083 46.3199 39.014C46.5567 39.0929 46.7934 39.2506 47.0302 39.3295C47.3458 39.566 47.6614 39.8025 48.056 39.9603C48.056 40.5122 48.056 41.143 48.056 41.2218V45.4008C48.056 45.5585 48.056 45.7951 48.056 45.9528C47.1091 45.4797 46.3199 44.4546 46.3199 42.7988ZM46.3199 35.4658V33.0215C46.3199 32.5484 46.3199 32.1542 46.3199 31.9176C46.5567 31.9965 46.7934 32.0754 47.1091 32.1542C47.4247 32.3908 47.7403 32.5484 48.056 32.7061C48.056 32.785 48.056 32.8639 48.056 32.9427V37.1217C48.056 37.6736 48.1349 38.2256 48.2927 38.6198C47.2669 38.2256 46.3199 37.2005 46.3199 35.4658ZM48.924 54.6262V51.9453C48.924 51.4722 48.924 49.7375 48.8451 48.476C49.3974 49.1856 50.1076 49.5799 50.7389 49.8952C50.7389 51.8664 50.7389 53.4434 50.7389 53.7588V55.3359V56.282C50.7389 57.2282 50.7389 57.7802 50.8967 58.0167C50.1076 57.6224 48.924 56.5185 48.924 54.6262ZM48.924 45.2431V42.5623C48.924 42.0892 48.924 41.0642 48.8451 40.3545C48.924 40.4333 49.0818 40.4333 49.1607 40.4333C49.6341 40.9064 50.1865 41.3007 50.7389 41.5372C50.7389 42.4046 50.7389 43.6661 50.7389 44.297V45.8739V46.8201C50.7389 46.8989 50.7389 46.9778 50.7389 46.9778V47.0567C50.7389 47.6086 50.8178 48.0817 50.8967 48.5548C50.0287 48.2394 48.924 47.0567 48.924 45.2431ZM48.924 37.0429V34.362C48.924 33.8889 48.924 33.4946 48.8451 33.1793C48.924 33.2581 49.0818 33.2581 49.1607 33.2581C49.6341 33.7312 50.1865 34.1254 50.7389 34.362C50.7389 34.9139 50.7389 35.5447 50.7389 36.0967V38.6986C50.7389 39.3295 50.8178 39.8814 50.9756 40.3545C49.9498 39.8814 48.924 38.8564 48.924 37.0429ZM51.6858 61.4072V59.3571C51.6858 58.0955 51.6858 56.9128 51.6858 56.5974V53.5223C51.6858 53.2857 51.6858 51.9453 51.6858 50.2106C51.7647 50.2106 51.8436 50.2895 51.8436 50.2895C52.3171 50.8414 52.9483 51.2357 53.5007 51.551V62.5111C53.5007 63.4573 53.6586 64.0881 53.8953 64.3246C52.8694 63.8515 51.6858 62.6688 51.6858 61.4072ZM51.6858 47.5298C51.6858 47.2143 51.6858 44.6124 51.6858 44.1393C51.6858 43.5873 51.6858 42.6411 51.6069 41.9315C51.7647 42.0103 51.9225 42.0103 52.0804 42.0892C52.5538 42.5623 53.0272 42.8777 53.5007 43.1142V48.5548C53.5007 49.501 53.6586 50.1318 53.8953 50.3684C52.8694 49.9741 51.6858 48.8702 51.6858 47.5298ZM51.6069 38.541V35.8601C51.6069 35.387 51.6069 35.0716 51.528 34.6774C51.6858 34.7562 51.8436 34.7562 51.9225 34.8351C52.396 35.3082 52.8694 35.6236 53.3429 35.8601V40.1179C53.3429 41.0642 53.5007 41.6949 53.7375 41.9315C52.7905 41.5372 51.6069 40.4333 51.6069 38.541ZM51.6069 31.3657V30.4195C51.6069 29.9464 51.6069 29.4733 51.6069 29.2368C51.6069 28.3694 51.4491 27.1867 50.5811 26.5559C50.8178 27.5809 50.66 27.7387 50.66 29.4733V30.6561C50.66 30.6561 50.66 30.6561 50.66 30.8137V31.5234C50.66 32.1542 50.7389 32.7061 50.8967 33.1793C49.8709 32.7061 48.8451 31.6811 48.8451 29.7887C48.8451 29.1579 48.6873 26.6348 47.8981 25.6097V30.0253C47.8981 30.5772 47.977 31.1292 48.1349 31.6022C45.8465 30.4195 46.0043 26.3982 45.2941 24.9001C45.2941 26.2405 45.2941 27.1867 45.2941 28.5272C45.2941 29.1579 45.3731 29.7887 45.5309 30.2618C43.4792 29.0002 43.2425 26.3982 43.0846 24.5058C42.8479 25.2155 42.5323 27.029 43.0846 28.8426C41.7432 27.8175 40.9541 25.6097 41.033 23.9539C40.7962 24.8212 40.6384 26.1616 41.033 27.4233C40.9541 28.9214 40.9541 40.7487 40.9541 42.0103C40.165 41.3796 39.3759 40.1968 39.4548 38.4621C39.4548 38.1467 39.5337 37.9102 39.5337 37.6736C40.0861 33.9677 40.165 28.6848 38.6657 24.427C39.9283 31.0503 38.3501 37.8314 38.1134 39.2506C37.7188 41.6949 38.5868 46.7413 40.3228 52.4184C40.0072 52.103 38.8236 51.6299 38.3501 51.1568C38.3501 51.6299 38.5079 52.1819 38.5079 53.2857C37.8766 52.2607 37.7188 52.2607 37.0876 51.1568C37.2453 52.4184 37.2453 52.5761 37.2453 53.68C36.6141 52.4973 36.2984 50.9991 34.8781 48.7913C31.7217 43.9027 27.2238 46.8989 27.2238 47.7663C27.2238 46.8989 22.726 43.9027 19.5696 48.7913C18.1492 50.9991 17.8336 52.4973 17.2023 53.68C17.2023 52.5761 17.1234 52.4184 17.3601 51.1568C16.7288 52.2607 16.4921 52.2607 15.9398 53.2857C15.9398 52.1819 16.0976 51.6299 16.0976 51.1568C15.6241 51.6299 14.5194 52.103 14.1248 52.4184C15.8608 46.8201 16.6499 41.6949 16.3343 39.2506C16.0976 37.9102 14.5983 31.0503 15.7819 24.427C14.2827 28.6848 14.3616 33.9677 14.9139 37.6736C14.9139 37.9102 14.9928 38.2256 14.9928 38.4621C15.0717 40.1968 14.2827 41.3796 13.4935 42.0103C13.4935 40.7487 13.4935 28.9214 13.4146 27.4233C13.8092 26.0828 13.6514 24.8212 13.4146 23.9539C13.4935 25.5309 12.7834 27.7387 11.363 28.8426C11.9153 27.1079 11.5997 25.2155 11.363 24.5058C11.2052 26.3982 10.9685 28.9214 8.9168 30.2618C9.07463 29.7887 9.15354 29.2368 9.15354 28.5272C9.15354 27.1867 9.15354 26.2405 9.15354 24.9001C8.36441 26.4771 8.60115 30.4983 6.31275 31.6022C6.47057 31.1292 6.54948 30.6561 6.54948 30.0253V25.6097C5.76043 26.6348 5.6026 29.2368 5.6026 29.7887C5.6026 31.6022 4.57673 32.7061 3.55094 33.1793C4.18224 32.7061 4.26115 32.1542 4.26115 31.5234V30.8137C4.26115 30.6561 4.26115 30.6561 4.26115 30.6561V29.4733C4.26115 27.7387 4.10331 27.5809 4.34007 26.5559C3.47202 27.1079 3.31421 28.2906 3.31421 29.2368C3.31421 29.4733 3.31421 29.9464 3.31421 30.4195V31.3657C3.31421 33.2581 2.13056 34.3619 1.10474 34.7562C1.26256 34.5197 1.49929 33.8889 1.49929 32.9427V23.7173C1.49929 21.1153 4.49782 18.1191 5.68151 16.7787C8.75897 13.1516 10.1793 16.069 13.2568 17.1729C18.4648 18.9076 21.2267 16.9363 21.2267 16.9363C23.9885 15.2016 23.9885 13.5459 23.9885 12.5208C23.9885 11.8112 23.7518 10.9438 23.1995 10.313C22.2525 9.36684 20.5954 9.05143 20.2798 9.1303C19.6485 9.44571 19.0961 9.44571 18.9383 9.52451C18.6227 8.97256 18.7016 8.02639 20.043 7.31675C20.4376 7.0802 20.2798 6.68596 21.3845 5.97631C24.7776 4.16279 27.934 4.87243 29.8279 6.92251C29.1966 6.68596 28.5653 6.44941 27.3816 6.37056C28.9598 6.92251 30.7747 8.18409 31.9584 10.3919C32.4318 11.2592 33.5366 13.6247 33.9311 14.3343C34.7992 15.8324 36.2984 19.0652 41.5854 17.2517C44.7417 16.2267 46.0832 13.2305 49.1607 16.8575C50.2654 18.198 53.3429 21.1942 53.3429 23.7962V33.0215C53.3429 33.9677 53.5007 34.5985 53.7375 34.8351C52.7905 34.2832 51.6069 33.2581 51.6069 31.3657Z" fill="#191817"/>
<path d="M20.5747 9.48071C20.0416 9.82106 19.8893 9.90617 19.5846 10.0763C19.7369 10.2464 20.9555 9.9912 21.184 9.90617C21.4886 9.82106 21.4886 9.9912 21.8695 10.0763C21.3363 9.82106 20.9555 9.56582 20.5747 9.48071Z" fill="white"/>
<path d="M37.5371 31.1869C37.5371 36.7562 32.9876 41.3056 27.4184 41.3056C21.8492 41.3056 17.2997 36.7562 17.2997 31.1869C17.2997 25.6178 21.8492 21.0682 27.4184 21.0682C33.066 21.0682 37.5371 25.6178 37.5371 31.1869Z" fill="#DDDCDC"/>
<path d="M36.0683 31.2264C36.0683 35.9661 32.1798 39.8368 27.4184 39.8368C26.3868 39.8368 25.3552 39.6789 24.4822 39.2839C21.1493 38.0989 18.7686 34.8602 18.7686 31.1475C18.7686 27.4347 21.1493 24.196 24.4822 23.0111C25.4346 22.6951 26.3868 22.5371 27.4184 22.5371C32.1798 22.6161 36.0683 26.4078 36.0683 31.2264Z" fill="url(#paint13_linear_7578_4827)"/>
<path d="M35.5787 28.2493C28.0522 26.293 19.2582 28.2493 19.2582 28.2493C20.1297 25.8236 22.0311 23.8673 24.4871 23.0066C25.4378 22.6936 26.3885 22.5371 27.4185 22.5371C31.142 22.6154 34.3903 24.9628 35.5787 28.2493Z" fill="#008B39"/>
<path d="M35.5787 33.9614C28.0097 36.054 19.2582 33.9614 19.2582 33.9614C20.1255 36.4564 22.0177 38.4686 24.4618 39.3538C25.4079 39.6758 26.354 39.8368 27.379 39.8368C31.1634 39.8368 34.396 37.4222 35.5787 33.9614Z" fill="#191817"/>
<path d="M28.6734 27.7757C32.3957 27.9325 34.8507 28.4814 34.8507 28.4814C35.6427 29.2657 35.5635 32.4809 34.8507 33.8925C34.8507 33.8925 32.1581 34.4414 29.2278 34.5982C27.0894 34.6767 24.3967 34.4414 24.3967 34.4414C24.3967 34.4414 24.3175 33.5003 24.3175 31.2261C24.3175 28.8735 24.3967 27.9325 24.3967 27.9325C24.3967 27.9325 26.6934 27.6972 28.6734 27.7757Z" fill="url(#paint14_linear_7578_4827)"/>
<path d="M23.9253 31.0285C23.9253 35.9405 24.4807 39.3472 24.4807 39.3472C21.1486 38.1588 18.7686 34.9106 18.7686 31.187C18.7686 27.4634 21.1486 24.2151 24.4807 23.0267C24.4807 23.0267 23.9253 25.9581 23.9253 31.0285Z" fill="#D70926"/>
<path d="M27.4179 41.7953C21.5599 41.7953 16.8101 37.0629 16.8101 31.2264C16.8101 25.311 21.5599 20.5787 27.4179 20.5787C33.276 20.5787 38.0257 25.311 38.0257 31.1476C38.1049 36.9841 33.276 41.7953 27.4179 41.7953ZM27.4179 21.2886C21.9556 21.2886 17.5226 25.7054 17.5226 31.1476C17.5226 36.5897 21.9556 41.0066 27.4179 41.0066C32.8801 41.0066 37.3132 36.5897 37.3132 31.1476C37.3924 25.7054 32.8801 21.2886 27.4179 21.2886Z" fill="#191817"/>
<path d="M33.6202 40.1255C33.6202 40.1255 32.7225 39.887 32.4777 39.8076L32.1513 38.6944C32.1513 38.6944 31.6617 39.41 31.4985 39.6485C31.2537 39.6485 30.3561 39.569 30.3561 39.569L31.0905 40.5231C31.0089 40.7617 30.6009 41.6363 30.6009 41.6363L31.6617 41.1592L32.5593 41.7953C32.5593 41.7953 32.5593 40.8412 32.5593 40.6821C32.8041 40.6027 33.6202 40.2051 33.6202 40.1255Z" fill="#191817"/>
<path d="M32.641 40.3264L32.4863 40.2448L32.0998 40.0816L32.0225 39.8368V39.5104L31.7133 40H31.1721L31.4813 40.4896L31.404 40.816L31.3267 41.0608L31.4813 40.9793L31.7133 40.8976L32.1771 41.3056V40.7344L32.641 40.3264Z" fill="white"/>
<path d="M24.4806 39.569C24.4806 39.4895 24.4806 39.4895 24.4806 39.569C24.4806 39.569 23.6049 39.6485 23.2865 39.6485C23.1273 39.4895 22.6496 38.6944 22.6496 38.6944L22.3312 39.8076C22.0923 39.887 21.2166 40.1255 21.2166 40.1255C21.2166 40.1255 22.0127 40.6027 22.2516 40.6821C22.2516 40.8412 22.2516 41.7953 22.2516 41.7953L23.1273 41.1592L24.1623 41.6363C24.1623 41.6363 23.8438 40.7617 23.6846 40.5231L24.4806 39.569Z" fill="#191817"/>
<path d="M23.5101 40.2061L23.6646 39.9742H23.1235L22.9689 39.7423L22.8143 39.5104L22.6597 40.0515L22.4277 40.1288L22.1958 40.2061L22.6597 40.4381V40.9792L22.9689 40.7473L23.1235 40.5927L23.4328 40.7473L23.5873 40.8246L23.5101 40.5154L23.4328 40.2835L23.5101 40.2061Z" fill="white"/>
<path d="M21.0534 24.8539L19.9681 24.3244L19.8906 23.1899C19.8906 23.1899 19.3479 23.795 19.1154 24.0219L18.1076 23.795C18.1076 23.795 18.4177 24.5513 18.5727 24.7026C18.4177 24.9295 17.9525 25.6102 17.9525 25.6102C17.9525 25.6102 18.8053 25.4589 19.0379 25.4589L19.7355 26.2908C19.7355 26.2908 19.8906 25.4589 19.8906 25.232C20.2007 25.1564 20.9759 24.8539 21.0534 24.8539Z" fill="#191817"/>
<path d="M29.0505 20.3052C28.9709 20.3052 28.9709 20.3052 29.0505 20.3052C29.0505 20.3052 28.0951 20.2257 27.8563 20.2257C27.7767 19.9876 27.3787 19.273 27.3787 19.273C27.3787 19.273 26.9806 19.9876 26.901 20.2257C26.6621 20.2257 25.7864 20.3052 25.7864 20.3052C25.7864 20.3052 26.5029 20.9404 26.6621 21.0991L26.4233 22.2107C26.4233 22.2107 27.2194 21.7343 27.3787 21.6549C27.6174 21.7343 28.3339 22.2107 28.3339 22.2107L28.0951 21.0991C28.3339 20.9404 28.9709 20.3052 29.0505 20.3052Z" fill="#191817"/>
<path d="M28.2345 20.7075C28.2345 20.6302 28.2345 20.6302 28.2345 20.7075L27.6632 20.6302L27.4184 20.0891L27.092 20.6302H26.6024L27.0104 21.0168L26.9288 21.5579L27.4184 21.326L27.9081 21.5579L27.8265 21.0168L28.2345 20.7075Z" fill="white"/>
<path d="M36.8843 25.7375C36.8843 25.7375 36.4073 25.021 36.2482 24.7822C36.3278 24.5433 36.7253 23.8268 36.7253 23.8268L35.6917 24.0657C35.5326 23.9065 34.8966 23.1899 34.8966 23.1899L34.8171 24.3841L33.7834 24.9414C33.7834 24.9414 34.5786 25.2599 34.8171 25.3395C34.8966 25.5783 34.9761 26.454 34.9761 26.454L35.6917 25.5783C35.9302 25.5783 36.8048 25.7375 36.8843 25.7375Z" fill="#191817"/>
<path d="M36.0682 25.2299L35.7781 24.8219L35.9957 24.2507L35.4879 24.4139L35.1977 24.0059V24.5771L34.7626 24.8219L35.1977 25.0667L35.2703 25.638L35.633 25.2299H36.0682Z" fill="white"/>
<path d="M20.2374 24.779L19.6963 24.5471V24.0059L19.387 24.3924L18.8459 24.2378L19.0778 24.779L18.7686 25.1655L19.3097 25.0883L19.6963 25.4748L19.7736 24.9336L20.2374 24.779C20.2374 24.8563 20.2374 24.8563 20.2374 24.779Z" fill="white"/>
<path d="M18.9317 34.2063C18.9317 34.2063 18.3752 33.5534 18.2161 33.3086C18.2957 33.0638 18.5342 32.1662 18.5342 32.1662L17.5005 32.6558C17.262 32.4926 16.5464 32.003 16.5464 32.003C16.5464 32.003 16.7055 32.9006 16.7055 33.1454L15.8308 33.8798C15.8308 33.8798 16.6259 34.1246 16.8645 34.1246C16.944 34.3694 17.1825 35.2671 17.1825 35.2671C17.1825 35.2671 17.58 34.4511 17.7391 34.2063H18.9317Z" fill="#191817"/>
<path d="M18.2789 33.824L17.8903 33.4375L18.0457 32.8964L17.5018 33.1283L17.0354 32.819L17.1132 33.2828L16.6469 33.6694L17.1909 33.824L17.3463 34.2879L17.6572 33.824H18.2789Z" fill="white"/>
<path d="M39.0059 33.8798L38.1313 33.1454C38.2108 32.9006 38.2903 32.003 38.2903 32.003C38.2903 32.003 37.5747 32.5742 37.3362 32.6558L36.3025 32.1662C36.3025 32.1662 36.5411 33.0638 36.6206 33.3086C36.4616 33.4719 35.905 34.2063 35.905 34.2063H37.0181C37.1772 34.4511 37.5747 35.2671 37.5747 35.2671C37.5747 35.2671 37.8132 34.3694 37.8927 34.1246C38.1313 34.1246 39.0059 33.8798 39.0059 33.8798Z" fill="#191817"/>
<path d="M38.1899 33.6694L37.7236 33.2828L37.8013 32.819L37.335 33.1283L36.791 32.8964L36.9464 33.4375L36.5579 33.824H37.1018L37.4127 34.2879L37.5681 33.824L38.1899 33.6694Z" fill="white"/>
<path d="M41.9021 69.2519C42.0615 69.6525 41.7427 70.1331 41.2643 70.2933C40.786 70.4535 40.3874 70.2933 40.1483 69.9729C40.3078 70.1331 40.5468 70.2132 40.8657 70.1331C41.1846 70.0529 41.4238 69.7325 41.344 69.4121C41.1846 69.0116 41.1049 68.531 40.9454 68.1304C40.8657 67.9702 40.7063 67.8901 40.5468 67.9702C40.786 67.6498 40.9454 67.2492 41.1846 66.9288C41.4238 67.6498 41.6629 68.4508 41.9021 69.2519Z" fill="white"/>
<path d="M24.3175 72.1514C24.4807 72.1514 24.6439 72.0817 24.6439 71.9417C24.6439 71.8017 24.4807 71.732 24.3175 71.6617C24.1543 71.6617 23.9911 71.732 23.9911 71.8714C23.9911 72.0114 24.1543 72.1514 24.3175 72.1514Z" fill="white"/>
<path d="M15.9533 66.4675C15.7828 66.3953 15.6123 66.4675 15.5271 66.6118C15.4418 66.7562 15.6123 66.9005 15.7828 66.9005C15.9533 66.9727 16.1238 66.9005 16.1238 66.7562C16.209 66.6118 16.1238 66.4675 15.9533 66.4675Z" fill="white"/>
<path d="M36.6045 67.4184C36.4646 67.4184 36.3947 67.5583 36.3947 67.6981C36.3947 67.838 36.5345 67.908 36.6744 67.908C36.8143 67.908 36.8843 67.7681 36.8843 67.6282C36.8843 67.4883 36.7444 67.4184 36.6045 67.4184Z" fill="white"/>
<path d="M25.6232 72.3146C25.7864 72.3146 25.9496 72.2448 25.9496 72.1046C25.9496 71.9645 25.7864 71.8947 25.6232 71.825C25.46 71.825 25.2968 71.8947 25.2968 72.0349C25.2968 72.1744 25.46 72.3146 25.6232 72.3146Z" fill="white"/>
<path d="M23.5015 72.1514C23.6647 72.1514 23.8279 72.0811 23.8279 71.9417C23.8279 71.8017 23.6647 71.7314 23.5015 71.6617C23.3383 71.6617 23.175 71.7314 23.175 71.8714C23.175 72.0811 23.3383 72.1514 23.5015 72.1514Z" fill="white"/>
<path d="M16.6935 66.6224C16.507 66.549 16.3204 66.6959 16.3204 66.7693C16.3204 66.9163 16.4137 67.0632 16.6002 67.0632C16.7867 67.1367 16.9733 67.0632 16.9733 66.9163C16.9733 66.7693 16.88 66.6224 16.6935 66.6224Z" fill="white"/>
<path d="M37.2573 67.2552C37.1174 67.2552 37.0475 67.4084 37.0475 67.5615C37.0475 67.7147 37.1874 67.7914 37.3272 67.7147C37.4671 67.7147 37.5371 67.5615 37.5371 67.4084C37.5371 67.3317 37.3972 67.2552 37.2573 67.2552Z" fill="white"/>
<path d="M48.3272 66.4392C48.2479 66.2789 48.1687 66.1187 48.0894 65.9584C47.4552 64.6765 46.821 63.3947 46.1869 62.0327C46.5832 62.1127 46.9003 62.1929 47.2967 62.273C47.1381 62.4332 47.1381 62.5935 47.2174 62.7537C47.7723 63.8754 48.3272 64.997 48.9614 66.1187C48.6443 66.1988 48.4857 66.359 48.3272 66.4392Z" fill="white"/>
<path d="M33.087 71.0089C32.9129 69.4036 32.6518 67.7181 32.4778 66.1128C32.8259 66.3536 33.1741 66.5141 33.5223 66.7549C33.2611 66.8352 33.2611 66.9957 33.2611 67.1562C33.4352 68.4405 33.6093 69.6444 33.7834 70.9286C33.5223 70.9286 33.3482 71.0089 33.087 71.0089Z" fill="white"/>
<path d="M20.4006 70.7668C20.6326 69.1873 20.8645 67.608 21.1737 65.9496C21.4057 66.2655 21.6376 66.5024 21.8695 66.8183C21.6376 66.8183 21.5603 66.9762 21.5603 67.1342C21.4057 68.3977 21.1737 69.5822 21.0191 70.8457C20.7872 70.7668 20.5553 70.7668 20.4006 70.7668Z" fill="white"/>
<path d="M40.0668 69.5401C39.9852 69.3796 39.9852 69.2192 39.9036 68.9785C39.4956 67.6148 39.0875 66.1708 38.6796 64.8071C39.0059 64.9675 39.414 65.128 39.7404 65.2884C39.4956 65.3687 39.4956 65.6093 39.5772 65.7697C39.9036 66.973 40.3117 68.1763 40.638 69.3796C40.4749 69.4598 40.3117 69.5401 40.0668 69.5401Z" fill="white"/>
<path d="M39.4955 69.725C39.2579 68.8473 39.0203 67.9696 38.7827 67.092C38.5451 67.4111 38.3075 67.7302 38.0699 68.0494C38.3075 68.0494 38.3867 68.209 38.4659 68.3686C38.5451 68.6877 38.6243 69.0069 38.7035 69.4058C37.8322 69.6452 36.8818 69.8048 36.0106 69.9643C35.8522 69.9643 35.773 70.0441 35.6146 70.0441C35.4562 69.9643 35.2186 69.8048 35.0601 69.725C35.4562 69.326 35.773 68.5281 35.6146 67.8899C35.5354 68.7676 35.1394 69.4058 34.1097 69.8048C34.5849 70.124 35.0601 70.3633 35.5354 70.6825C35.773 70.6825 35.9313 70.6027 36.169 70.6027C37.1987 70.2835 38.3867 70.0441 39.4955 69.725Z" fill="white"/>
<path d="M43.7951 66.4448C44.1891 66.6023 44.583 66.6811 44.9769 66.8387C45.1345 67.1539 45.2133 67.469 45.3709 67.7054C45.0557 67.8629 44.8193 67.9417 44.5042 68.0994C44.4254 67.9417 44.3467 67.7842 44.3467 67.6266C44.4254 67.6266 44.5042 67.5478 44.6618 67.5478C44.6618 67.469 44.583 67.3902 44.583 67.3114C44.4254 67.3114 44.3467 67.2327 44.1891 67.1539C44.0315 66.9175 43.9527 66.6811 43.7951 66.4448ZM42.3769 68.8872C42.2981 68.7296 42.2981 68.5721 42.2193 68.4145C41.7466 67.075 41.2738 65.7356 40.8011 64.3175C41.1162 64.4751 41.5102 64.6326 41.8254 64.7114C41.6678 64.869 41.589 65.0266 41.6678 65.1841C41.983 66.2084 42.3769 67.1539 42.6921 68.1781C42.9284 68.0994 43.086 68.0206 43.3224 67.9417C43.2436 67.7842 43.2436 67.7054 43.1648 67.5478C43.3224 67.1539 43.5587 66.8387 43.7163 66.4448C43.7951 66.6811 43.8739 66.9175 43.9527 67.1539C43.8739 67.3115 43.7951 67.3902 43.7951 67.5478C43.7951 67.6266 43.8739 67.7054 43.8739 67.7842C43.9527 67.7842 44.0315 67.7054 44.1891 67.7054C44.2679 67.8629 44.3467 68.0205 44.3467 68.1781C43.8739 68.3357 43.4011 68.5721 42.8496 68.7296C42.7708 68.7296 42.7708 68.7296 42.6921 68.8084C42.6921 68.8084 42.5345 68.8084 42.3769 68.8872Z" fill="white"/>
<path d="M29.6462 68.498C29.8822 68.498 30.1182 68.7365 30.2755 68.8955C30.5115 68.8955 30.7474 68.8955 30.9833 68.816C30.7474 69.452 30.4328 70.0086 30.1182 70.6447C30.6688 70.6447 31.2193 70.5651 31.7699 70.4856C31.6912 69.452 31.6126 68.339 31.4553 67.3054C31.4553 67.1464 31.3766 66.9874 31.1406 66.9874C31.3766 66.7489 31.6126 66.4308 31.9272 66.1128C32.0845 67.7029 32.2418 69.3725 32.4778 70.9627C32.3205 70.9627 32.1632 70.9627 31.9272 71.0422H31.8485C31.1406 71.1217 30.5115 71.1217 29.8036 71.2012C29.8036 70.8036 29.8036 70.4856 29.7249 70.0881C29.8036 69.8496 29.9609 69.6111 30.0395 69.452C29.9609 69.452 29.8822 69.452 29.8822 69.452C29.8822 69.2931 29.8036 69.2135 29.7249 69.134C29.6462 68.975 29.6462 68.7365 29.6462 68.498ZM27.8372 71.5192C27.8372 71.9962 27.444 72.3146 26.8934 72.3146C26.4215 72.3146 26.1069 71.9962 25.9496 71.6785C26.0282 71.9169 26.2642 72.0754 26.5002 72.0754C26.8148 72.0754 27.1294 71.837 27.1294 71.5192C27.1294 71.0422 27.1294 70.6447 27.1294 70.1676C27.1294 70.0086 27.0508 69.9291 26.8148 69.9291C27.1294 69.6906 27.444 69.3725 27.6799 69.134C27.6799 69.6906 27.6799 70.2471 27.6799 70.7241C28.2305 70.7241 28.7025 70.7241 29.253 70.7241C28.9384 70.1676 28.5451 69.6111 28.2305 69.0546C28.4665 69.0546 28.7025 69.0546 28.9384 69.0546C29.0171 68.8955 29.253 68.657 29.4889 68.5775C29.4889 68.816 29.4889 68.975 29.4889 69.2135C29.4103 69.2931 29.3316 69.3725 29.3316 69.5316C29.253 69.5316 29.1744 69.5316 29.1744 69.5316C29.3316 69.7701 29.4103 69.9291 29.5676 70.1676C29.5676 70.5651 29.5676 70.8832 29.6462 71.2807C29.0171 71.2807 28.3092 71.3602 27.6799 71.3602C27.8372 71.3602 27.8372 71.4397 27.8372 71.5192Z" fill="white"/>
<path d="M17.623 70.1261C18.0999 70.2047 18.6562 70.362 19.1332 70.4407H19.2127C19.3716 70.4407 19.6101 70.5193 19.7691 70.5193C20.0074 68.9462 20.3254 67.3732 20.5638 65.8002C20.2459 66.0361 19.928 66.1934 19.6101 66.3507C19.8485 66.4293 19.8485 66.5867 19.8485 66.7439C19.6896 67.7665 19.4511 68.789 19.2921 69.8114C19.0537 69.8114 18.8947 69.7328 18.6562 69.6542C18.6562 69.4968 18.7357 69.3395 18.7357 69.2609C18.4973 68.9462 18.2588 68.6316 18.0204 68.317C17.9409 68.553 17.9409 68.789 17.8615 69.0249C17.9409 69.1036 18.0204 69.2609 18.0999 69.3395C18.0999 69.4181 18.0999 69.4968 18.0204 69.5755C17.9409 69.5755 17.782 69.4968 17.7025 69.4968C17.7025 69.8114 17.623 69.9687 17.623 70.1261ZM13.6488 68.4743C13.6488 68.3957 13.7283 68.3171 13.7283 68.2384C13.8873 67.7665 13.5694 67.2945 13.0924 67.1372C13.0924 67.1372 13.013 67.1372 13.013 67.0586C11.9002 66.6653 10.7875 66.1934 9.67468 65.7215C9.75416 65.5642 9.83365 65.4069 9.91314 65.2496C9.99262 65.0922 10.1516 65.0922 10.3106 65.0922C10.1516 64.699 9.99262 64.3844 9.83365 63.9911C9.51571 64.6203 9.19783 65.2496 8.95937 65.9574C10.3106 66.5867 11.6618 67.1372 13.013 67.6091C13.1719 67.6878 13.3309 67.8451 13.2514 68.0024C13.2514 68.081 13.1719 68.1597 13.1719 68.2384C13.0924 68.3957 13.013 68.6316 13.013 68.789C12.854 68.8676 12.7746 68.8676 12.6156 68.9462C12.5361 68.789 12.4566 68.7103 12.3771 68.553C12.4566 68.3957 12.5361 68.1597 12.5361 68.0024C12.3771 67.9238 12.2182 67.9238 12.0592 67.8451C11.9797 67.8451 11.9797 67.8451 11.9002 67.7665C10.7875 67.3732 9.67468 66.9013 8.56194 66.4293C8.48246 66.5867 8.40297 66.7439 8.32349 66.9013C9.43629 67.3732 10.549 67.8451 11.6618 68.2384C11.6618 68.3171 11.5823 68.3957 11.5823 68.4743C11.8207 68.8676 11.9797 69.1822 12.2182 69.5755C12.6156 69.4181 13.013 69.2609 13.4104 69.1036C13.4104 69.0249 13.4899 68.9462 13.4899 68.8676C13.8873 69.0249 14.3642 69.1036 14.7616 69.2609C14.8411 69.4181 14.9205 69.4968 15.0795 69.5755C15 69.4968 15 69.4181 14.9205 69.3395C15.318 69.4181 15.6359 69.5755 16.0333 69.6542C16.5102 69.8114 17.0666 69.8901 17.5435 70.0474C17.5435 69.8901 17.623 69.7328 17.7025 69.4968C17.623 69.4968 17.464 69.4181 17.3845 69.4181C17.3845 69.3395 17.3845 69.2609 17.464 69.1822C17.5435 69.1036 17.7025 69.0249 17.782 69.0249C17.8615 68.789 17.8615 68.553 17.9409 68.317C17.623 68.4743 17.2256 68.7103 16.8281 68.8676C16.8281 69.0249 16.7487 69.1822 16.7487 69.2609C16.5102 69.1822 16.3513 69.1822 16.1128 69.1036C16.2718 68.553 16.4307 67.9238 16.5897 67.3732C16.2718 67.5305 15.8744 67.6878 15.5564 67.8451C15.7949 67.9238 15.7949 68.1597 15.7154 68.317C15.6359 68.553 15.5564 68.789 15.5564 69.0249C15.4769 69.0249 15.3975 68.9462 15.318 68.9462C15.159 68.8676 15 68.8676 14.8411 68.789C14.8411 68.553 14.8411 68.3957 14.9205 68.1597C15.0795 67.5305 15.2385 66.7439 14.3642 65.8788C14.1258 65.9574 13.8873 66.1148 13.6488 66.1934C14.2052 66.3507 14.4437 66.9013 14.6027 67.3732C14.6821 67.9238 14.3642 68.317 14.5232 68.7103C14.2052 68.7103 13.9668 68.6316 13.6488 68.4743Z" fill="white"/>
<path d="M22.816 70.4561C22.8949 70.4561 23.0527 70.4561 23.1315 70.4561C23.1315 70.2192 23.2104 69.9823 23.2104 69.7454C23.1315 69.7454 22.9738 69.8244 22.8949 69.8244C22.8949 69.5875 22.9738 69.4296 22.9738 69.1926C23.1315 69.1137 23.2892 69.0347 23.2892 68.7978C23.3681 68.245 23.3681 67.7712 23.447 67.2184C23.447 67.0605 23.447 66.9025 23.2104 66.8236C23.5259 66.5866 23.8414 66.3497 24.157 66.1128C23.9992 67.5343 23.9203 68.9557 23.7625 70.3772C24.0781 70.3772 24.3936 70.4561 24.7092 70.4561C24.7092 70.2192 24.7092 69.9823 24.788 69.7454C24.788 69.5875 24.7092 69.4296 24.4725 69.3506C24.788 69.1137 25.1035 68.8768 25.4191 68.6399C25.4191 69.2716 25.3402 69.8244 25.3402 70.4561C25.5768 70.4561 25.7346 70.4561 25.9712 70.4561C25.9712 70.2192 25.9712 69.9823 25.9712 69.7454C25.9712 69.5875 25.8924 69.4296 25.6557 69.3506C25.9712 69.1137 26.2868 68.8768 26.6023 68.6399C26.6023 69.4296 26.6023 70.2192 26.5234 71.0089C25.5768 71.0089 24.7092 70.93 23.7625 70.851C23.447 70.851 23.0527 70.772 22.7371 70.772C22.816 70.851 22.816 70.6141 22.816 70.4561ZM22.8949 69.9034C22.7371 69.9034 22.6582 69.9823 22.5793 70.1403C22.5793 70.2192 22.5793 70.2982 22.5793 70.4561C22.6582 70.4561 22.816 70.4561 22.8949 70.4561C22.8949 70.6141 22.8949 70.772 22.816 71.0089C22.7371 71.0089 22.6582 71.0089 22.5793 71.0089C22.3427 71.0089 22.106 70.93 21.8694 70.93C21.8694 70.693 21.9483 70.3772 21.9483 70.1403C22.0272 69.7454 22.3427 69.4295 22.7371 69.4295C22.7371 69.4295 22.816 69.4296 22.8949 69.3506C22.9738 69.5085 22.9738 69.6665 22.8949 69.9034Z" fill="white"/>
<path d="M7.21362 65.8843C7.29196 65.9644 7.3703 65.9644 7.52699 66.0445C7.60533 65.8041 7.76201 65.6439 7.84035 65.4036C7.76201 65.4036 7.60533 65.4036 7.52699 65.4036C7.60533 65.2433 7.68367 65.003 7.76201 64.8427C7.91869 64.8427 8.15371 64.7626 8.23205 64.6024C8.46708 64.1216 8.7021 63.6409 8.93705 63.1602C9.0154 63 9.0154 62.8398 8.85871 62.6796C9.25042 62.5994 9.56378 62.5193 9.95549 62.3591C9.25042 63.8012 8.54542 65.3234 7.91869 66.7656C7.60533 66.6053 7.3703 66.4451 7.05701 66.365C7.05701 66.2048 7.13528 66.0446 7.21362 65.8843ZM7.3703 65.3234C7.21362 65.2433 7.05701 65.3234 6.97867 65.4837C6.90033 65.5638 6.90033 65.6439 6.82198 65.7241C6.90033 65.8041 6.97867 65.8041 7.13528 65.8843C7.05701 66.0446 6.97867 66.2048 6.90033 66.365C6.58696 66.2048 6.35194 66.0446 6.03857 65.8843C6.19526 65.6439 6.2736 65.4036 6.43028 65.1632C6.58696 64.8428 7.05701 64.6825 7.44864 64.7626C7.44864 64.7626 7.52698 64.7626 7.68367 64.7626C7.60533 65.003 7.52698 65.1632 7.3703 65.3234C7.44864 65.3234 7.44864 65.3234 7.3703 65.3234Z" fill="white"/>
<path d="M23.0118 66.4858C23.0118 66.2994 22.9419 66.1128 22.802 66.1128C22.6621 66.1128 22.5222 66.2061 22.5222 66.3926C22.5222 66.5791 22.5922 66.7656 22.7321 66.7656C22.8719 66.7656 23.0118 66.6723 23.0118 66.4858Z" fill="white"/>
<path d="M23.0118 67.0454C23.0118 66.9055 22.9419 66.7656 22.802 66.7656C22.6621 66.7656 22.5222 66.8356 22.5222 66.9755C22.5222 67.1154 22.5922 67.2552 22.7321 67.2552C22.8719 67.2552 22.9419 67.1853 23.0118 67.0454Z" fill="white"/>
<path d="M7.86676 62.4605C7.7829 62.6038 7.86676 62.7473 8.03448 62.819C8.2022 62.8907 8.36992 62.819 8.45378 62.7473C8.53764 62.6038 8.45378 62.4605 8.28606 62.3887C8.11834 62.3171 7.95062 62.3888 7.86676 62.4605Z" fill="white"/>
<path d="M8.19318 61.8592C8.10932 62.0439 8.19318 62.2285 8.3609 62.3208C8.52862 62.4131 8.69634 62.3208 8.7802 62.2285C8.86406 62.0438 8.7802 61.8592 8.61248 61.7668C8.44476 61.6746 8.27704 61.6746 8.19318 61.8592Z" fill="white"/>
<path d="M46.2848 65.0092C45.9041 64.1543 45.5233 63.3772 45.1424 62.5223C45.5233 62.6777 45.9041 62.7554 46.2848 62.9108C46.1325 63.0663 46.0564 63.2217 46.1325 63.3772C46.361 63.9212 46.6657 64.3875 46.8942 64.9315C46.818 65.1646 46.7418 65.32 46.6657 65.5532C46.8942 65.6309 47.0465 65.6309 47.275 65.7086C47.4273 66.0195 47.5797 66.2527 47.6558 66.5635C47.3512 66.7189 47.1227 66.7967 46.818 66.9521C46.7418 66.7967 46.6657 66.6413 46.5895 66.4858C46.6657 66.4081 46.7418 66.4081 46.8942 66.3304C46.8942 66.2527 46.818 66.1749 46.818 66.1749C46.6657 66.1749 46.5895 66.0972 46.4372 66.0972C46.361 65.864 46.2087 65.6309 46.1325 65.3978C46.2087 65.2424 46.2087 65.1646 46.2848 65.0092ZM46.8942 67.0298C46.5895 67.1853 46.361 67.2629 46.0564 67.4184C45.9041 67.1075 45.8279 66.8744 45.6756 66.5635C45.7518 66.3304 45.8279 66.1749 45.9802 65.9418C45.7518 65.864 45.5994 65.7864 45.3709 65.7864C45.3709 65.7864 45.3709 65.7086 45.2948 65.7086C45.0663 65.2424 44.8378 64.6983 44.6854 64.2321C44.6093 64.0766 44.4569 63.9989 44.2285 63.9989C44.3808 63.6103 44.5331 63.2217 44.6854 62.8332C45.0663 63.688 45.4471 64.5429 45.8279 65.32C45.9802 65.3978 46.0564 65.3978 46.2087 65.4755C46.2848 65.7086 46.4372 65.9418 46.5133 66.1749C46.4372 66.3304 46.4372 66.4081 46.361 66.5635C46.361 66.6413 46.4372 66.7189 46.4372 66.7189C46.5133 66.6413 46.5895 66.6413 46.7418 66.5635C46.7418 66.6413 46.818 66.8744 46.8942 67.0298Z" fill="white"/>
<path d="M47.4381 67.6869C47.5904 67.7553 47.6666 67.7553 47.8189 67.7553C47.4381 67.8922 47.0573 68.0975 46.6765 68.2344C46.7527 68.166 46.7527 68.0291 46.8288 67.9607C46.905 68.0291 46.905 68.0291 46.9812 67.9607C46.7527 67.7553 47.0573 67.4816 47.2858 67.6184H47.2096C47.1334 67.6184 47.0573 67.6869 47.1334 67.7553C47.1334 67.8237 47.2096 67.8237 47.3619 67.8237C47.4381 67.8237 47.4381 67.7553 47.4381 67.6869Z" fill="white"/>
<defs>
<linearGradient id="paint0_linear_7578_4827" x1="5.5598" y1="67.0795" x2="49.3773" y2="67.0795" gradientUnits="userSpaceOnUse">
<stop stop-color="#D70926"/>
<stop offset="0.1404" stop-color="#D70D29"/>
<stop offset="0.2532" stop-color="#D91731"/>
<stop offset="0.3564" stop-color="#DC2740"/>
<stop offset="0.4533" stop-color="#E03F55"/>
<stop offset="0.5169" stop-color="#E35367"/>
<stop offset="0.5784" stop-color="#DF3E54"/>
<stop offset="0.6665" stop-color="#DC2740"/>
<stop offset="0.761" stop-color="#D91631"/>
<stop offset="0.8656" stop-color="#D70C29"/>
<stop offset="1" stop-color="#D70926"/>
</linearGradient>
<linearGradient id="paint1_linear_7578_4827" x1="46.6004" y1="45.0471" x2="48.7519" y2="39.9191" gradientUnits="userSpaceOnUse">
<stop stop-color="white"/>
<stop offset="1" stop-color="#B68A35"/>
</linearGradient>
<linearGradient id="paint2_linear_7578_4827" x1="8.2808" y1="45.047" x2="6.12962" y2="39.9192" gradientUnits="userSpaceOnUse">
<stop stop-color="white"/>
<stop offset="1" stop-color="#B68A35"/>
</linearGradient>
<linearGradient id="paint3_linear_7578_4827" x1="27.4375" y1="60.4902" x2="27.4375" y2="46.0366" gradientUnits="userSpaceOnUse">
<stop stop-color="white"/>
<stop offset="0.1694" stop-color="#FAF9F9"/>
<stop offset="0.3858" stop-color="#EAEAEA"/>
<stop offset="0.6277" stop-color="#D0D0CF"/>
<stop offset="0.8863" stop-color="#ACACAB"/>
<stop offset="1" stop-color="#9A9999"/>
</linearGradient>
<linearGradient id="paint4_linear_7578_4827" x1="46.0623" y1="38.2773" x2="48.5098" y2="33.2493" gradientUnits="userSpaceOnUse">
<stop stop-color="white"/>
<stop offset="0.1694" stop-color="#FAF9F9"/>
<stop offset="0.3858" stop-color="#EAEAEA"/>
<stop offset="0.6277" stop-color="#D0D0CF"/>
<stop offset="0.8863" stop-color="#ACACAB"/>
<stop offset="1" stop-color="#9A9999"/>
</linearGradient>
<linearGradient id="paint5_linear_7578_4827" x1="47.7478" y1="52.2732" x2="50.3837" y2="49.1698" gradientUnits="userSpaceOnUse">
<stop stop-color="white"/>
<stop offset="0.1694" stop-color="#FAF9F9"/>
<stop offset="0.3858" stop-color="#EAEAEA"/>
<stop offset="0.6277" stop-color="#D0D0CF"/>
<stop offset="0.8863" stop-color="#ACACAB"/>
<stop offset="1" stop-color="#9A9999"/>
</linearGradient>
<linearGradient id="paint6_linear_7578_4827" x1="8.80263" y1="38.2768" x2="6.35255" y2="33.2533" gradientUnits="userSpaceOnUse">
<stop stop-color="white"/>
<stop offset="0.1694" stop-color="#FAF9F9"/>
<stop offset="0.3858" stop-color="#EAEAEA"/>
<stop offset="0.6277" stop-color="#D0D0CF"/>
<stop offset="0.8863" stop-color="#ACACAB"/>
<stop offset="1" stop-color="#9A9999"/>
</linearGradient>
<linearGradient id="paint7_linear_7578_4827" x1="7.13549" y1="52.2731" x2="4.49869" y2="49.1747" gradientUnits="userSpaceOnUse">
<stop stop-color="white"/>
<stop offset="0.1694" stop-color="#FAF9F9"/>
<stop offset="0.3858" stop-color="#EAEAEA"/>
<stop offset="0.6277" stop-color="#D0D0CF"/>
<stop offset="0.8863" stop-color="#ACACAB"/>
<stop offset="1" stop-color="#9A9999"/>
</linearGradient>
<linearGradient id="paint8_linear_7578_4827" x1="11.5441" y1="50.5514" x2="19.7339" y2="42.3124" gradientUnits="userSpaceOnUse">
<stop stop-color="white"/>
<stop offset="0.2976" stop-color="#E6D7BB"/>
<stop offset="0.6347" stop-color="#CCAE73"/>
<stop offset="0.8777" stop-color="#BC9446"/>
<stop offset="1" stop-color="#B68A35"/>
</linearGradient>
<linearGradient id="paint9_linear_7578_4827" x1="42.8717" y1="51.15" x2="35.371" y2="42.316" gradientUnits="userSpaceOnUse">
<stop stop-color="white"/>
<stop offset="0.2976" stop-color="#E6D7BB"/>
<stop offset="0.6347" stop-color="#CCAE73"/>
<stop offset="0.8777" stop-color="#BC9446"/>
<stop offset="1" stop-color="#B68A35"/>
</linearGradient>
<linearGradient id="paint10_linear_7578_4827" x1="-1.27068" y1="16.4388" x2="9.35259" y2="24.0813" gradientUnits="userSpaceOnUse">
<stop stop-color="white"/>
<stop offset="0.1028" stop-color="#FBF9F4"/>
<stop offset="0.2824" stop-color="#F1E8D7"/>
<stop offset="0.5174" stop-color="#E0CDA9"/>
<stop offset="0.7955" stop-color="#C9A869"/>
<stop offset="1" stop-color="#B68A35"/>
</linearGradient>
<linearGradient id="paint11_linear_7578_4827" x1="40.5407" y1="13.5538" x2="35.4899" y2="23.0779" gradientUnits="userSpaceOnUse">
<stop stop-color="white"/>
<stop offset="0.1048" stop-color="#F2EADB"/>
<stop offset="0.2681" stop-color="#E0CDA9"/>
<stop offset="0.4298" stop-color="#D1B57F"/>
<stop offset="0.5864" stop-color="#C5A25F"/>
<stop offset="0.7366" stop-color="#BD9548"/>
<stop offset="0.8776" stop-color="#B88D3A"/>
<stop offset="1" stop-color="#B68A35"/>
</linearGradient>
<linearGradient id="paint12_linear_7578_4827" x1="24.0834" y1="9.20296" x2="23.5456" y2="6.73657" gradientUnits="userSpaceOnUse">
<stop stop-color="white"/>
<stop offset="1" stop-color="#191817"/>
</linearGradient>
<linearGradient id="paint13_linear_7578_4827" x1="18.691" y1="31.2212" x2="36.061" y2="31.2212" gradientUnits="userSpaceOnUse">
<stop offset="0.011236" stop-color="#DDDCDC"/>
<stop offset="0.0656916" stop-color="#E7E7E6"/>
<stop offset="0.1748" stop-color="#F4F4F4"/>
<stop offset="0.3095" stop-color="#FDFDFD"/>
<stop offset="0.544" stop-color="white"/>
<stop offset="0.6729" stop-color="#FBFBFB"/>
<stop offset="0.7953" stop-color="#F0F0F0"/>
<stop offset="0.9145" stop-color="#DDDDDD"/>
<stop offset="0.9725" stop-color="#D1D1D1"/>
</linearGradient>
<linearGradient id="paint14_linear_7578_4827" x1="29.0533" y1="31.2868" x2="23.5349" y2="34.7667" gradientUnits="userSpaceOnUse">
<stop stop-color="white"/>
<stop offset="0.6292" stop-color="#D1D1D1"/>
</linearGradient>
</defs>
</svg>
